{"glyphs":{"0":{"ha":574,"x_min":65,"x_max":517,"o":"m 291 -17 q 127 49 190 -17 q 65 229 65 115 l 65 770 q 127 950 65 884 q 291 1017 190 1017 q 454 950 392 1017 q 517 770 517 884 l 517 229 q 454 49 517 115 q 291 -17 392 -17 m 291 125 q 339 138 323 125 q 362 173 356 151 q 369 227 369 196 l 369 772 q 362 826 369 804 q 339 862 356 849 q 291 874 323 874 q 242 862 259 874 q 219 826 225 849 q 213 772 213 804 l 213 227 q 219 173 213 196 q 242 138 225 151 q 291 125 259 125 z "},"1":{"ha":573,"x_min":95,"x_max":501,"o":"m 501 0 l 95 0 l 95 142 l 224 142 l 224 844 l 95 844 l 95 962 l 298 1000 l 372 1000 l 372 142 l 501 142 l 501 0 z "},"2":{"ha":575,"x_min":64,"x_max":515,"o":"m 515 0 l 64 0 l 64 204 q 182 465 64 340 q 246 530 214 498 q 306 591 278 561 q 368 715 368 658 l 368 772 q 361 827 368 804 q 290 874 348 874 q 241 862 258 874 q 211 772 211 840 l 211 690 l 64 690 l 64 770 q 126 950 64 884 q 290 1017 189 1017 q 454 949 391 1017 q 515 770 515 884 l 515 713 q 429 508 515 606 q 351 427 391 465 q 283 357 314 392 q 211 201 211 277 l 211 142 l 368 142 l 368 309 l 515 309 l 515 0 z "},"3":{"ha":575,"x_min":60,"x_max":511,"o":"m 286 -17 q 122 49 184 -17 q 60 229 60 115 l 60 309 l 208 309 l 208 227 q 237 138 208 159 q 286 125 254 125 q 334 138 317 125 q 357 173 351 151 q 363 227 363 196 l 363 327 q 357 381 363 358 q 334 416 351 404 q 286 429 317 429 l 212 429 l 212 571 l 286 571 q 331 584 315 571 q 353 619 347 596 q 359 672 359 642 l 359 772 q 353 826 359 804 q 331 862 347 849 q 286 874 315 874 q 218 826 230 874 q 212 772 212 804 l 212 690 l 64 690 l 64 772 q 129 955 64 889 q 286 1017 190 1017 q 442 954 381 1017 q 507 772 507 889 l 507 673 q 430 500 507 550 q 511 325 511 452 l 511 229 q 449 49 511 115 q 286 -17 387 -17 z "},"4":{"ha":575,"x_min":35,"x_max":533,"o":"m 315 309 l 315 736 l 176 309 l 315 309 m 459 309 l 533 309 l 533 167 l 459 167 l 459 0 l 315 0 l 315 167 l 35 167 l 35 237 l 282 1000 l 459 1000 l 459 309 z "},"5":{"ha":574,"x_min":62,"x_max":514,"o":"m 288 -17 q 125 49 187 -17 q 62 229 62 115 l 62 309 l 210 309 l 210 227 q 239 138 210 159 q 288 125 256 125 q 337 138 320 125 q 360 173 353 151 q 366 227 366 196 l 366 284 q 267 473 366 385 q 72 604 205 527 l 72 1000 l 514 1000 l 514 690 l 366 690 l 366 857 l 219 857 l 219 687 q 421 526 344 616 q 514 287 514 416 l 514 229 q 452 49 514 115 q 288 -17 389 -17 z "},"6":{"ha":574,"x_min":71,"x_max":522,"o":"m 296 -17 q 133 49 195 -17 q 71 229 71 115 l 71 770 q 133 950 71 884 q 296 1017 195 1017 q 460 950 397 1017 q 522 770 522 884 l 522 690 l 374 690 l 374 772 q 368 826 374 804 q 345 862 361 849 q 296 874 328 874 q 248 862 264 874 q 224 826 231 849 q 218 772 218 804 l 218 581 q 266 601 238 593 q 315 608 293 608 q 499 491 450 608 q 522 361 522 435 l 522 229 q 460 49 522 115 q 296 -17 397 -17 m 296 125 q 345 138 328 125 q 368 173 361 151 q 374 227 374 196 l 374 364 q 368 417 374 395 q 345 453 361 440 q 296 465 328 465 q 248 453 264 465 q 224 417 231 440 q 218 364 218 395 l 218 227 q 224 173 218 196 q 248 138 231 151 q 296 125 264 125 z "},"7":{"ha":575,"x_min":61,"x_max":513,"o":"m 342 0 l 195 0 l 195 195 q 207 305 195 254 q 239 404 219 357 q 280 497 258 451 q 320 590 301 543 q 352 688 340 637 q 365 798 365 739 l 365 857 l 209 857 l 209 690 l 61 690 l 61 1000 l 513 1000 l 513 795 q 498 662 513 724 q 414 441 475 568 q 363 324 385 380 q 342 210 342 268 l 342 0 z "},"8":{"ha":568,"x_min":61,"x_max":513,"o":"m 287 -17 q 123 49 186 -17 q 61 229 61 115 l 61 325 q 142 500 61 452 q 65 673 65 550 l 65 772 q 130 955 65 889 q 287 1017 191 1017 q 444 954 382 1017 q 508 772 508 889 l 508 673 q 431 500 508 550 q 513 325 513 452 l 513 229 q 450 49 513 115 q 287 -17 388 -17 m 287 125 q 335 138 319 125 q 358 173 352 151 q 365 227 365 196 l 365 327 q 358 381 365 358 q 335 416 352 404 q 287 429 319 429 q 238 416 255 429 q 215 381 221 404 q 209 327 209 358 l 209 227 q 215 173 209 196 q 238 138 221 151 q 287 125 255 125 m 287 571 q 333 584 317 571 q 355 619 349 596 q 361 672 361 642 l 361 772 q 355 826 361 804 q 333 862 349 849 q 287 874 317 874 q 241 862 257 874 q 219 826 225 849 q 213 772 213 804 l 213 672 q 219 619 213 642 q 241 584 225 596 q 287 571 257 571 z "},"9":{"ha":575,"x_min":61,"x_max":513,"o":"m 287 1017 q 450 950 388 1017 q 513 770 513 884 l 513 229 q 450 49 513 115 q 287 -17 388 -17 q 123 49 185 -17 q 61 229 61 115 l 61 309 l 209 309 l 209 227 q 215 173 209 196 q 238 138 221 151 q 287 125 255 125 q 335 138 318 125 q 358 173 352 151 q 365 227 365 196 l 365 419 q 317 399 345 406 q 268 392 290 392 q 84 509 132 392 q 61 638 61 564 l 61 770 q 123 950 61 884 q 287 1017 185 1017 m 287 874 q 238 862 255 874 q 215 826 221 849 q 209 772 209 804 l 209 635 q 215 582 209 604 q 238 546 221 559 q 287 534 255 534 q 335 546 318 534 q 358 582 352 559 q 365 635 365 604 l 365 772 q 358 826 365 804 q 335 862 352 849 q 287 874 318 874 z "},"\u0000":{"ha":136,"x_min":0,"x_max":0,"o":""}," ":{"ha":285,"x_min":0,"x_max":0,"o":""},"!":{"ha":307,"x_min":54,"x_max":239,"o":"m 182 221 l 111 221 l 54 1000 l 239 1000 l 182 221 m 146 -17 q 89 -4 109 -17 q 62 31 69 8 q 54 85 54 54 q 61 136 54 113 q 88 172 68 159 q 146 186 108 186 q 204 173 184 186 q 231 138 224 161 q 239 85 239 115 q 232 33 239 56 q 205 -3 225 10 q 146 -17 186 -17 z "},"\"":{"ha":481,"x_min":28,"x_max":440,"o":"m 156 555 l 85 555 l 28 1000 l 213 1000 l 156 555 m 383 555 l 313 555 l 256 1000 l 440 1000 l 383 555 z "},"#":{"ha":644,"x_min":20,"x_max":607,"o":"m 132 444 l 156 555 l 68 555 l 68 666 l 180 666 l 250 1000 l 363 1000 l 293 666 l 406 666 l 477 1000 l 590 1000 l 519 666 l 607 666 l 607 555 l 495 555 l 472 444 l 560 444 l 560 334 l 448 334 l 377 0 l 264 0 l 335 334 l 222 334 l 151 0 l 38 0 l 109 334 l 20 334 l 20 444 l 132 444 m 269 555 l 245 444 l 359 444 l 382 555 l 269 555 z "},"$":{"ha":585,"x_min":45,"x_max":524,"o":"m 340 -146 l 229 -146 l 229 -12 q 111 53 159 2 q 45 245 45 122 l 45 309 l 193 309 l 193 245 q 218 149 193 178 q 284 125 240 125 q 351 149 329 125 q 377 245 377 178 l 377 275 q 310 386 377 332 q 243 435 279 410 q 110 547 153 496 q 45 722 45 622 l 45 754 q 111 947 45 878 q 229 1011 159 998 l 229 1145 l 340 1145 l 340 1012 q 458 947 410 998 q 524 754 524 878 l 524 690 l 377 690 l 377 754 q 351 850 377 822 q 285 874 329 874 q 218 850 241 874 q 193 754 193 821 l 193 724 q 264 601 193 659 q 334 549 296 575 q 463 443 421 490 q 524 277 524 372 l 524 245 q 458 53 524 122 q 340 -12 410 2 l 340 -146 z "},"%":{"ha":715,"x_min":34,"x_max":674,"o":"m 192 632 q 78 679 121 632 q 34 804 34 725 l 34 844 q 78 970 34 924 q 192 1017 121 1017 q 307 970 263 1017 q 350 844 350 924 l 350 804 q 307 679 350 725 q 192 632 263 632 m 516 -17 q 402 30 446 -17 q 358 155 358 76 l 358 195 q 402 321 358 275 q 516 368 446 368 q 631 321 587 368 q 674 195 674 275 l 674 155 q 631 30 674 76 q 516 -17 587 -17 m 516 83 q 560 102 549 83 q 571 153 571 121 l 571 197 q 560 249 571 229 q 516 268 549 268 q 472 249 483 268 q 461 197 461 229 l 461 153 q 472 102 461 121 q 516 83 483 83 m 186 0 l 77 0 l 522 1000 l 631 1000 l 186 0 m 192 732 q 236 751 225 732 q 247 802 247 770 l 247 846 q 236 898 247 878 q 192 917 225 917 q 148 898 159 917 q 137 846 137 878 l 137 802 q 148 751 137 770 q 192 732 159 732 z "},"&":{"ha":911,"x_min":14,"x_max":875,"o":"m 318 581 q 361 614 340 597 q 436 697 407 652 q 466 800 466 743 q 401 874 466 873 q 340 851 362 874 q 309 795 318 829 q 299 726 299 761 q 318 581 299 656 m 245 125 q 376 162 307 125 q 246 349 300 243 q 188 283 210 317 q 161 199 161 244 q 185 142 161 160 q 245 125 208 125 m 749 -17 q 492 63 615 -17 q 245 -17 369 -17 q 127 7 179 -17 q 44 79 75 31 q 14 199 14 127 q 92 399 14 311 q 189 488 127 439 q 152 726 152 608 q 181 869 152 803 q 266 976 210 935 q 401 1017 321 1017 q 508 991 462 1017 q 581 917 555 965 q 608 800 608 869 q 524 584 608 682 q 368 444 472 523 q 497 252 419 336 q 656 481 598 349 q 700 690 700 583 l 847 690 q 795 437 847 563 q 613 161 730 279 q 749 125 679 125 q 875 142 812 125 l 875 0 q 749 -17 808 -17 z "},"'":{"ha":252,"x_min":28,"x_max":213,"o":"m 156 555 l 86 555 l 28 1000 l 213 1000 l 156 555 z "},"(":{"ha":351,"x_min":62,"x_max":302,"o":"m 302 -40 q 169 0 222 -40 q 89 104 116 39 q 62 245 62 169 l 62 754 q 89 895 62 830 q 169 1000 116 960 q 302 1039 222 1039 l 302 928 q 210 754 210 902 l 210 245 q 302 71 210 98 l 302 -40 z "},")":{"ha":359,"x_min":34,"x_max":274,"o":"m 34 -40 l 34 71 q 126 245 126 98 l 126 754 q 34 928 126 902 l 34 1039 q 167 1000 114 1039 q 247 895 220 960 q 274 754 274 830 l 274 245 q 247 104 274 169 q 167 0 220 39 q 34 -40 114 -40 z "},"*":{"ha":492,"x_min":16,"x_max":466,"o":"m 306 555 l 176 555 l 203 711 l 81 610 l 16 722 l 165 777 l 16 833 l 81 945 l 203 843 l 176 1000 l 306 1000 l 279 843 l 401 945 l 466 833 l 317 777 l 466 722 l 401 610 l 279 711 l 306 555 z "},"+":{"ha":450,"x_min":-15,"x_max":432,"o":"m 264 536 l 432 536 l 432 426 l 264 426 l 264 258 l 153 258 l 153 426 l -15 426 l -15 536 l 153 536 l 153 705 l 264 705 l 264 536 z "},",":{"ha":224,"x_min":7,"x_max":191,"o":"m 99 -195 l 16 -195 q 76 -16 76 -64 q 21 17 35 -9 q 7 85 7 43 q 14 136 7 113 q 40 172 20 159 q 99 186 60 186 q 157 173 137 186 q 184 138 176 161 q 191 85 191 115 q 99 -195 191 -39 z "},"-":{"ha":410,"x_min":20,"x_max":389,"o":"m 389 410 l 20 410 l 20 552 l 389 552 l 389 410 z "},".":{"ha":231,"x_min":12,"x_max":197,"o":"m 104 -17 q 47 -4 67 -17 q 20 31 27 8 q 12 85 12 54 q 19 136 12 113 q 46 172 26 159 q 104 186 66 186 q 162 173 142 186 q 189 138 182 161 q 197 85 197 115 q 190 33 197 56 q 163 -3 183 10 q 104 -17 144 -17 z "},"/":{"ha":361,"x_min":5,"x_max":334,"o":"m 121 0 l 5 0 l 218 1000 l 334 1000 l 121 0 z "},":":{"ha":256,"x_min":28,"x_max":213,"o":"m 121 176 q 63 188 83 176 q 36 223 43 201 q 28 277 28 246 q 35 328 28 305 q 62 365 42 351 q 121 378 82 378 q 178 366 159 378 q 205 331 198 353 q 213 277 213 308 q 206 225 213 248 q 180 189 199 202 q 121 176 160 176 m 121 621 q 63 634 83 621 q 36 669 43 646 q 28 722 28 692 q 35 774 28 751 q 62 810 42 797 q 121 824 82 824 q 178 811 159 824 q 205 776 198 799 q 213 722 213 753 q 206 671 213 694 q 180 635 199 648 q 121 621 160 621 z "},";":{"ha":270,"x_min":35,"x_max":220,"o":"m 127 -195 l 45 -195 q 104 -16 104 -64 q 50 17 64 -9 q 35 85 35 43 q 42 136 35 113 q 69 172 49 159 q 127 186 89 186 q 185 173 165 186 q 212 138 205 161 q 220 85 220 115 q 127 -195 220 -39 m 127 621 q 70 634 90 621 q 43 669 50 646 q 35 722 35 692 q 42 774 35 751 q 69 810 49 797 q 127 824 89 824 q 185 811 165 824 q 212 776 205 799 q 220 722 220 753 q 213 671 220 694 q 186 635 206 648 q 127 621 167 621 z "},"<":{"ha":490,"x_min":0,"x_max":447,"o":"m 447 258 l 0 426 l 0 536 l 447 705 l 447 587 l 168 481 l 447 376 l 447 258 z "},"=":{"ha":490,"x_min":0,"x_max":447,"o":"m 447 536 l 0 536 l 0 647 l 447 647 l 447 536 m 447 315 l 0 315 l 0 426 l 447 426 l 447 315 z "},">":{"ha":490,"x_min":0,"x_max":447,"o":"m 0 258 l 0 376 l 280 481 l 0 587 l 0 705 l 447 536 l 447 426 l 0 258 z "},"?":{"ha":529,"x_min":33,"x_max":484,"o":"m 293 221 l 223 221 l 201 517 q 313 640 287 600 q 336 715 336 675 l 336 772 q 330 826 336 804 q 307 862 324 849 q 258 874 290 874 q 210 862 227 874 q 180 772 180 840 l 180 690 l 33 690 l 33 770 q 95 950 33 884 q 258 1017 157 1017 q 422 950 359 1017 q 484 770 484 884 l 484 713 q 397 508 484 606 q 308 415 369 475 l 293 221 m 258 -17 q 201 -4 221 -17 q 174 31 181 8 q 166 85 166 54 q 173 136 166 113 q 199 172 180 159 q 258 186 219 186 q 316 173 296 186 q 343 138 336 161 q 351 85 351 115 q 344 33 351 56 q 317 -3 337 10 q 258 -17 298 -17 z "},"@":{"ha":751,"x_min":68,"x_max":665,"o":"m 485 -17 q 354 36 404 -17 q 304 180 304 89 l 304 431 q 354 575 304 522 q 485 628 404 628 q 547 619 517 628 l 547 690 q 499 846 547 794 q 367 898 450 898 q 235 846 283 898 q 186 690 186 794 l 186 0 l 68 0 l 68 690 q 150 929 68 842 q 367 1017 233 1017 q 583 929 500 1017 q 665 690 665 842 l 665 180 q 615 36 665 89 q 485 -17 566 -17 m 485 97 q 535 119 523 97 q 547 178 547 141 l 547 433 q 535 492 547 470 q 485 515 523 515 q 434 492 447 515 q 422 433 422 470 l 422 178 q 434 119 422 141 q 485 97 447 97 z "},"A":{"ha":581,"x_min":16,"x_max":551,"o":"m 551 0 l 406 0 l 377 205 l 191 205 l 161 0 l 16 0 l 175 1000 l 393 1000 l 551 0 m 357 347 l 286 821 l 282 821 l 210 347 l 357 347 z "},"B":{"ha":618,"x_min":79,"x_max":558,"o":"m 319 0 l 79 0 l 79 1000 l 300 1000 q 474 930 408 1000 q 540 738 540 861 l 540 672 q 469 488 540 549 q 558 291 558 430 l 558 262 q 492 70 558 139 q 319 0 427 0 m 300 552 q 358 567 338 552 q 385 609 378 582 q 393 672 393 636 l 393 738 q 385 801 393 774 q 358 843 378 828 q 300 857 338 857 l 227 857 l 227 552 l 300 552 m 319 142 q 376 157 356 142 q 404 198 396 172 q 411 262 411 225 l 411 291 q 404 354 411 327 q 376 395 396 380 q 319 410 356 410 l 227 410 l 227 142 l 319 142 z "},"C":{"ha":597,"x_min":61,"x_max":541,"o":"m 301 -17 q 127 53 193 -17 q 61 245 61 122 l 61 754 q 127 947 61 878 q 301 1017 193 1017 q 475 947 409 1017 q 541 754 541 878 l 541 690 l 393 690 l 393 754 q 359 859 393 833 q 301 874 338 874 q 244 859 264 874 q 216 818 224 844 q 209 754 209 791 l 209 245 q 216 182 209 209 q 244 140 224 155 q 301 125 264 125 q 386 182 370 125 q 393 245 393 209 l 393 309 l 541 309 l 541 245 q 475 53 541 122 q 301 -17 409 -17 z "},"D":{"ha":638,"x_min":79,"x_max":558,"o":"m 319 0 l 79 0 l 79 1000 l 319 1000 q 492 930 427 1000 q 558 738 558 861 l 558 262 q 492 70 558 139 q 319 0 427 0 m 319 142 q 376 157 356 142 q 404 198 396 172 q 411 262 411 225 l 411 738 q 404 801 411 774 q 376 843 396 828 q 319 857 356 857 l 227 857 l 227 142 l 319 142 z "},"E":{"ha":547,"x_min":79,"x_max":485,"o":"m 485 0 l 79 0 l 79 1000 l 485 1000 l 485 857 l 227 857 l 227 552 l 466 552 l 466 410 l 227 410 l 227 142 l 485 142 l 485 0 z "},"F":{"ha":536,"x_min":79,"x_max":485,"o":"m 227 0 l 79 0 l 79 1000 l 485 1000 l 485 857 l 227 857 l 227 552 l 466 552 l 466 410 l 227 410 l 227 0 z "},"G":{"ha":609,"x_min":61,"x_max":541,"o":"m 301 -17 q 127 52 193 -17 q 61 245 61 122 l 61 754 q 127 947 61 878 q 301 1017 193 1017 q 476 947 410 1017 q 541 754 541 878 l 541 690 l 393 690 l 393 754 q 359 859 393 833 q 301 874 339 874 q 244 859 264 874 q 216 818 224 844 q 209 754 209 791 l 209 245 q 216 182 209 209 q 244 140 224 155 q 301 125 264 125 q 386 182 370 125 q 393 245 393 209 l 393 410 l 301 410 l 301 552 l 541 552 l 541 245 q 476 52 541 122 q 301 -17 410 -17 z "},"H":{"ha":663,"x_min":79,"x_max":558,"o":"m 558 0 l 410 0 l 410 410 l 226 410 l 226 0 l 79 0 l 79 1000 l 226 1000 l 226 552 l 410 552 l 410 1000 l 558 1000 l 558 0 z "},"I":{"ha":330,"x_min":79,"x_max":226,"o":"m 226 0 l 79 0 l 79 1000 l 226 1000 l 226 0 z "},"J":{"ha":378,"x_min":43,"x_max":283,"o":"m 43 857 l 43 1000 l 283 1000 l 283 245 q 217 53 283 122 q 43 -17 151 -17 l 43 125 q 101 140 81 125 q 128 182 121 155 q 136 245 136 209 l 136 857 l 43 857 z "},"K":{"ha":616,"x_min":79,"x_max":580,"o":"m 226 410 l 226 0 l 79 0 l 79 1000 l 226 1000 l 226 552 l 314 552 l 417 1000 l 571 1000 l 449 481 l 580 0 l 426 0 l 314 410 l 226 410 z "},"L":{"ha":518,"x_min":79,"x_max":484,"o":"m 79 1000 l 226 1000 l 226 142 l 484 142 l 484 0 l 79 0 l 79 1000 z "},"M":{"ha":859,"x_min":79,"x_max":754,"o":"m 416 357 l 612 1000 l 754 1000 l 754 0 l 612 0 l 612 574 l 450 0 l 383 0 l 220 574 l 220 0 l 79 0 l 79 1000 l 220 1000 l 416 357 z "},"N":{"ha":663,"x_min":79,"x_max":558,"o":"m 558 0 l 420 0 l 227 567 l 227 0 l 79 0 l 79 1000 l 217 1000 l 411 432 l 411 1000 l 558 1000 l 558 0 z "},"O":{"ha":622,"x_min":61,"x_max":541,"o":"m 301 -17 q 127 53 193 -17 q 61 245 61 122 l 61 754 q 127 947 61 878 q 301 1017 193 1017 q 475 947 409 1017 q 541 754 541 878 l 541 245 q 475 53 541 122 q 301 -17 409 -17 m 301 125 q 358 140 338 125 q 386 182 378 155 q 393 245 393 209 l 393 754 q 386 818 393 791 q 358 859 378 844 q 301 874 338 874 q 244 859 264 874 q 216 818 224 844 q 209 754 209 791 l 209 245 q 216 182 209 209 q 244 140 224 155 q 301 125 264 125 z "},"P":{"ha":603,"x_min":79,"x_max":558,"o":"m 227 0 l 79 0 l 79 1000 l 319 1000 q 492 930 427 1000 q 558 738 558 861 l 558 672 q 492 480 558 549 q 319 410 427 410 l 227 410 l 227 0 m 319 552 q 376 567 356 552 q 404 609 396 582 q 411 672 411 636 l 411 738 q 404 801 411 774 q 376 843 396 828 q 319 857 356 857 l 227 857 l 227 552 l 319 552 z "},"Q":{"ha":622,"x_min":61,"x_max":541,"o":"m 301 125 q 358 140 338 125 q 386 182 378 155 q 393 245 393 209 l 393 754 q 386 818 393 791 q 358 859 378 844 q 301 874 338 874 q 244 859 264 874 q 216 818 224 844 q 209 754 209 791 l 209 245 q 216 182 209 209 q 244 140 224 155 q 301 125 264 125 m 301 -17 q 127 53 193 -17 q 61 245 61 122 l 61 754 q 127 947 61 878 q 301 1017 193 1017 q 475 947 409 1017 q 541 754 541 878 l 541 245 q 475 53 541 122 q 438 21 458 35 l 479 -136 l 332 -136 l 301 -17 z "},"R":{"ha":625,"x_min":79,"x_max":580,"o":"m 580 0 l 426 0 l 319 410 l 226 410 l 226 0 l 79 0 l 79 1000 l 319 1000 q 492 930 427 1000 q 558 738 558 861 l 558 672 q 461 452 558 521 l 580 0 m 319 552 q 376 567 356 552 q 403 609 396 582 q 410 672 410 636 l 410 738 q 403 801 410 774 q 376 843 396 828 q 319 857 356 857 l 226 857 l 226 552 l 319 552 z "},"S":{"ha":584,"x_min":43,"x_max":523,"o":"m 283 -17 q 109 53 175 -17 q 43 245 43 122 l 43 309 l 191 309 l 191 245 q 217 149 191 178 q 283 125 239 125 q 349 149 328 125 q 376 245 376 178 l 376 275 q 309 386 376 332 q 242 435 278 410 q 109 547 152 496 q 43 722 43 622 l 43 754 q 110 947 43 878 q 283 1017 176 1017 q 457 947 391 1017 q 523 754 523 878 l 523 690 l 376 690 l 376 754 q 350 850 376 822 q 283 874 328 874 q 217 850 239 874 q 191 754 191 821 l 191 724 q 262 601 191 659 q 332 550 294 575 q 462 443 420 490 q 523 277 523 372 l 523 245 q 457 53 523 122 q 283 -17 391 -17 z "},"T":{"ha":554,"x_min":30,"x_max":509,"o":"m 344 857 l 344 0 l 196 0 l 196 857 l 30 857 l 30 1000 l 509 1000 l 509 857 l 344 857 z "},"U":{"ha":640,"x_min":68,"x_max":547,"o":"m 308 -17 q 134 53 200 -17 q 68 245 68 122 l 68 1000 l 216 1000 l 216 245 q 250 140 216 166 q 308 125 271 125 q 365 140 345 125 q 393 182 385 155 q 400 245 400 209 l 400 1000 l 547 1000 l 547 245 q 481 53 547 122 q 308 -17 416 -17 z "},"V":{"ha":592,"x_min":22,"x_max":557,"o":"m 398 0 l 180 0 l 22 1000 l 167 1000 l 288 179 l 291 179 l 412 1000 l 557 1000 l 398 0 z "},"W":{"ha":994,"x_min":33,"x_max":951,"o":"m 838 0 l 612 0 l 493 857 l 490 857 l 372 0 l 145 0 l 33 1000 l 178 1000 l 262 179 l 265 179 l 383 1000 l 600 1000 l 718 179 l 722 179 l 805 1000 l 951 1000 l 838 0 z "},"X":{"ha":599,"x_min":27,"x_max":562,"o":"m 562 0 l 408 0 l 296 410 l 294 410 l 182 0 l 27 0 l 159 481 l 36 1000 l 190 1000 l 294 552 l 296 552 l 399 1000 l 553 1000 l 431 481 l 562 0 z "},"Y":{"ha":558,"x_min":7,"x_max":542,"o":"m 348 0 l 201 0 l 201 343 l 7 1000 l 155 1000 l 273 571 l 276 571 l 394 1000 l 542 1000 l 348 343 l 348 0 z "},"Z":{"ha":497,"x_min":41,"x_max":447,"o":"m 447 0 l 41 0 l 41 71 l 277 857 l 41 857 l 41 1000 l 447 1000 l 447 928 l 210 142 l 447 142 l 447 0 z "},"[":{"ha":308,"x_min":34,"x_max":274,"o":"m 274 -23 l 34 -23 l 34 1023 l 274 1023 l 274 911 l 181 911 l 181 87 l 274 87 l 274 -23 z "},"\\":{"ha":361,"x_min":5,"x_max":334,"o":"m 121 1000 l 334 0 l 218 0 l 5 1000 l 121 1000 z "},"]":{"ha":308,"x_min":34,"x_max":274,"o":"m 34 -23 l 34 87 l 126 87 l 126 911 l 34 911 l 34 1023 l 274 1023 l 274 -23 l 34 -23 z "},"^":{"ha":513,"x_min":34,"x_max":479,"o":"m 479 555 l 361 555 l 256 832 l 152 555 l 34 555 l 201 1000 l 312 1000 l 479 555 z "},"_":{"ha":480,"x_min":0,"x_max":480,"o":"m 480 -178 l 0 -178 l 0 -68 l 480 -68 l 480 -178 z "},"`":{"ha":277,"x_min":34,"x_max":243,"o":"m 243 1055 l 165 1055 l 34 1240 l 187 1240 l 243 1055 z "},"a":{"ha":581,"x_min":16,"x_max":551,"o":"m 551 0 l 406 0 l 377 205 l 191 205 l 161 0 l 16 0 l 175 1000 l 393 1000 l 551 0 m 357 347 l 286 821 l 282 821 l 210 347 l 357 347 z "},"b":{"ha":618,"x_min":79,"x_max":558,"o":"m 319 0 l 79 0 l 79 1000 l 300 1000 q 474 930 408 1000 q 540 738 540 861 l 540 672 q 469 488 540 549 q 558 291 558 430 l 558 262 q 492 70 558 139 q 319 0 427 0 m 300 552 q 358 567 338 552 q 385 609 378 582 q 393 672 393 636 l 393 738 q 385 801 393 774 q 358 843 378 828 q 300 857 338 857 l 227 857 l 227 552 l 300 552 m 319 142 q 376 157 356 142 q 404 198 396 172 q 411 262 411 225 l 411 291 q 404 354 411 327 q 376 395 396 380 q 319 410 356 410 l 227 410 l 227 142 l 319 142 z "},"c":{"ha":597,"x_min":61,"x_max":541,"o":"m 301 -17 q 127 53 193 -17 q 61 245 61 122 l 61 754 q 127 947 61 878 q 301 1017 193 1017 q 475 947 409 1017 q 541 754 541 878 l 541 690 l 393 690 l 393 754 q 359 859 393 833 q 301 874 338 874 q 244 859 264 874 q 216 818 224 844 q 209 754 209 791 l 209 245 q 216 182 209 209 q 244 140 224 155 q 301 125 264 125 q 386 182 370 125 q 393 245 393 209 l 393 309 l 541 309 l 541 245 q 475 53 541 122 q 301 -17 409 -17 z "},"d":{"ha":638,"x_min":79,"x_max":558,"o":"m 319 0 l 79 0 l 79 1000 l 319 1000 q 492 930 427 1000 q 558 738 558 861 l 558 262 q 492 70 558 139 q 319 0 427 0 m 319 142 q 376 157 356 142 q 404 198 396 172 q 411 262 411 225 l 411 738 q 404 801 411 774 q 376 843 396 828 q 319 857 356 857 l 227 857 l 227 142 l 319 142 z "},"e":{"ha":547,"x_min":79,"x_max":485,"o":"m 485 0 l 79 0 l 79 1000 l 485 1000 l 485 857 l 227 857 l 227 552 l 466 552 l 466 410 l 227 410 l 227 142 l 485 142 l 485 0 z "},"f":{"ha":536,"x_min":79,"x_max":485,"o":"m 227 0 l 79 0 l 79 1000 l 485 1000 l 485 857 l 227 857 l 227 552 l 466 552 l 466 410 l 227 410 l 227 0 z "},"g":{"ha":609,"x_min":61,"x_max":541,"o":"m 301 -17 q 127 52 193 -17 q 61 245 61 122 l 61 754 q 127 947 61 878 q 301 1017 193 1017 q 476 947 410 1017 q 541 754 541 878 l 541 690 l 393 690 l 393 754 q 359 859 393 833 q 301 874 339 874 q 244 859 264 874 q 216 818 224 844 q 209 754 209 791 l 209 245 q 216 182 209 209 q 244 140 224 155 q 301 125 264 125 q 386 182 370 125 q 393 245 393 209 l 393 410 l 301 410 l 301 552 l 541 552 l 541 245 q 476 52 541 122 q 301 -17 410 -17 z "},"h":{"ha":663,"x_min":79,"x_max":558,"o":"m 558 0 l 410 0 l 410 410 l 226 410 l 226 0 l 79 0 l 79 1000 l 226 1000 l 226 552 l 410 552 l 410 1000 l 558 1000 l 558 0 z "},"i":{"ha":330,"x_min":79,"x_max":226,"o":"m 226 0 l 79 0 l 79 1000 l 226 1000 l 226 0 z "},"j":{"ha":378,"x_min":43,"x_max":283,"o":"m 43 857 l 43 1000 l 283 1000 l 283 245 q 217 53 283 122 q 43 -17 151 -17 l 43 125 q 101 140 81 125 q 128 182 121 155 q 136 245 136 209 l 136 857 l 43 857 z "},"k":{"ha":616,"x_min":79,"x_max":580,"o":"m 226 410 l 226 0 l 79 0 l 79 1000 l 226 1000 l 226 552 l 314 552 l 417 1000 l 571 1000 l 449 481 l 580 0 l 426 0 l 314 410 l 226 410 z "},"l":{"ha":518,"x_min":79,"x_max":484,"o":"m 79 1000 l 226 1000 l 226 142 l 484 142 l 484 0 l 79 0 l 79 1000 z "},"m":{"ha":859,"x_min":79,"x_max":754,"o":"m 416 357 l 612 1000 l 754 1000 l 754 0 l 612 0 l 612 574 l 450 0 l 383 0 l 220 574 l 220 0 l 79 0 l 79 1000 l 220 1000 l 416 357 z "},"n":{"ha":663,"x_min":79,"x_max":558,"o":"m 558 0 l 420 0 l 227 567 l 227 0 l 79 0 l 79 1000 l 217 1000 l 411 432 l 411 1000 l 558 1000 l 558 0 z "},"o":{"ha":622,"x_min":61,"x_max":541,"o":"m 301 -17 q 127 53 193 -17 q 61 245 61 122 l 61 754 q 127 947 61 878 q 301 1017 193 1017 q 475 947 409 1017 q 541 754 541 878 l 541 245 q 475 53 541 122 q 301 -17 409 -17 m 301 125 q 358 140 338 125 q 386 182 378 155 q 393 245 393 209 l 393 754 q 386 818 393 791 q 358 859 378 844 q 301 874 338 874 q 244 859 264 874 q 216 818 224 844 q 209 754 209 791 l 209 245 q 216 182 209 209 q 244 140 224 155 q 301 125 264 125 z "},"p":{"ha":603,"x_min":79,"x_max":558,"o":"m 227 0 l 79 0 l 79 1000 l 319 1000 q 492 930 427 1000 q 558 738 558 861 l 558 672 q 492 480 558 549 q 319 410 427 410 l 227 410 l 227 0 m 319 552 q 376 567 356 552 q 404 609 396 582 q 411 672 411 636 l 411 738 q 404 801 411 774 q 376 843 396 828 q 319 857 356 857 l 227 857 l 227 552 l 319 552 z "},"q":{"ha":622,"x_min":61,"x_max":541,"o":"m 301 125 q 358 140 338 125 q 386 182 378 155 q 393 245 393 209 l 393 754 q 386 818 393 791 q 358 859 378 844 q 301 874 338 874 q 244 859 264 874 q 216 818 224 844 q 209 754 209 791 l 209 245 q 216 182 209 209 q 244 140 224 155 q 301 125 264 125 m 301 -17 q 127 53 193 -17 q 61 245 61 122 l 61 754 q 127 947 61 878 q 301 1017 193 1017 q 475 947 409 1017 q 541 754 541 878 l 541 245 q 475 53 541 122 q 438 21 458 35 l 479 -136 l 332 -136 l 301 -17 z "},"r":{"ha":625,"x_min":79,"x_max":580,"o":"m 580 0 l 426 0 l 319 410 l 226 410 l 226 0 l 79 0 l 79 1000 l 319 1000 q 492 930 427 1000 q 558 738 558 861 l 558 672 q 461 452 558 521 l 580 0 m 319 552 q 376 567 356 552 q 403 609 396 582 q 410 672 410 636 l 410 738 q 403 801 410 774 q 376 843 396 828 q 319 857 356 857 l 226 857 l 226 552 l 319 552 z "},"s":{"ha":584,"x_min":43,"x_max":523,"o":"m 283 -17 q 109 53 175 -17 q 43 245 43 122 l 43 309 l 191 309 l 191 245 q 217 149 191 178 q 283 125 239 125 q 349 149 328 125 q 376 245 376 178 l 376 275 q 309 386 376 332 q 242 435 278 410 q 109 547 152 496 q 43 722 43 622 l 43 754 q 110 947 43 878 q 283 1017 176 1017 q 457 947 391 1017 q 523 754 523 878 l 523 690 l 376 690 l 376 754 q 350 850 376 822 q 283 874 328 874 q 217 850 239 874 q 191 754 191 821 l 191 724 q 262 601 191 659 q 332 550 294 575 q 462 443 420 490 q 523 277 523 372 l 523 245 q 457 53 523 122 q 283 -17 391 -17 z "},"t":{"ha":554,"x_min":30,"x_max":509,"o":"m 344 857 l 344 0 l 196 0 l 196 857 l 30 857 l 30 1000 l 509 1000 l 509 857 l 344 857 z "},"u":{"ha":640,"x_min":68,"x_max":547,"o":"m 308 -17 q 134 53 200 -17 q 68 245 68 122 l 68 1000 l 216 1000 l 216 245 q 250 140 216 166 q 308 125 271 125 q 365 140 345 125 q 393 182 385 155 q 400 245 400 209 l 400 1000 l 547 1000 l 547 245 q 481 53 547 122 q 308 -17 416 -17 z "},"v":{"ha":592,"x_min":22,"x_max":557,"o":"m 398 0 l 180 0 l 22 1000 l 167 1000 l 288 179 l 291 179 l 412 1000 l 557 1000 l 398 0 z "},"w":{"ha":994,"x_min":33,"x_max":951,"o":"m 838 0 l 612 0 l 493 857 l 490 857 l 372 0 l 145 0 l 33 1000 l 178 1000 l 262 179 l 265 179 l 383 1000 l 600 1000 l 718 179 l 722 179 l 805 1000 l 951 1000 l 838 0 z "},"x":{"ha":599,"x_min":27,"x_max":562,"o":"m 562 0 l 408 0 l 296 410 l 294 410 l 182 0 l 27 0 l 159 481 l 36 1000 l 190 1000 l 294 552 l 296 552 l 399 1000 l 553 1000 l 431 481 l 562 0 z "},"y":{"ha":558,"x_min":7,"x_max":542,"o":"m 348 0 l 201 0 l 201 343 l 7 1000 l 155 1000 l 273 571 l 276 571 l 394 1000 l 542 1000 l 348 343 l 348 0 z "},"z":{"ha":497,"x_min":41,"x_max":447,"o":"m 447 0 l 41 0 l 41 71 l 277 857 l 41 857 l 41 1000 l 447 1000 l 447 928 l 210 142 l 447 142 l 447 0 z "},"{":{"ha":400,"x_min":34,"x_max":366,"o":"m 366 -40 q 233 0 286 -40 q 153 104 180 39 q 126 245 126 169 q 119 342 126 307 q 34 444 102 425 l 34 555 q 126 729 126 582 l 126 754 q 153 895 126 830 q 233 1000 180 960 q 366 1039 286 1039 l 366 928 q 281 827 298 909 q 274 729 274 791 q 252 600 274 661 q 186 500 230 540 q 252 399 230 459 q 274 270 274 339 q 281 172 274 209 q 366 71 298 90 l 366 -40 z "},"|":{"ha":246,"x_min":68,"x_max":178,"o":"m 178 -23 l 68 -23 l 68 1023 l 178 1023 l 178 -23 z "},"}":{"ha":400,"x_min":34,"x_max":366,"o":"m 34 -40 l 34 71 q 119 172 102 90 q 126 270 126 209 q 148 399 126 339 q 214 500 170 459 q 148 600 170 540 q 126 729 126 661 q 119 827 126 791 q 34 928 102 909 l 34 1039 q 167 1000 113 1039 q 247 895 220 960 q 274 754 274 830 l 274 729 q 366 555 274 582 l 366 444 q 281 342 298 425 q 274 245 274 307 q 247 104 274 169 q 167 0 220 39 q 34 -40 113 -40 z "},"~":{"ha":595,"x_min":34,"x_max":561,"o":"m 391 385 q 324 400 352 385 q 273 433 296 414 q 235 457 254 447 q 195 468 216 468 q 159 447 173 468 q 144 387 144 427 l 34 387 q 77 518 34 460 q 203 579 120 576 q 270 564 242 578 q 321 531 298 549 q 359 506 340 517 q 399 495 378 495 q 436 516 422 495 q 450 577 450 537 l 561 577 q 518 445 561 503 q 391 385 475 387 z "},"¡":{"ha":307,"x_min":54,"x_max":239,"o":"m 111 762 l 182 762 l 239 -17 l 54 -17 l 111 762 m 146 1000 q 204 987 184 1000 q 231 952 224 975 q 239 898 239 929 q 232 847 239 869 q 205 810 225 824 q 146 797 186 797 q 89 809 109 797 q 62 845 69 822 q 54 898 54 867 q 61 949 54 926 q 87 986 68 972 q 146 1000 107 1000 z "},"¢":{"ha":604,"x_min":61,"x_max":541,"o":"m 245 1011 l 245 1145 l 355 1145 l 355 1012 q 475 947 427 998 q 541 754 541 878 l 541 690 l 393 690 l 393 754 q 359 859 393 833 q 301 874 338 874 q 244 859 264 874 q 216 818 224 844 q 209 754 209 791 l 209 245 q 216 182 209 209 q 244 140 224 155 q 301 125 264 125 q 386 182 370 125 q 393 245 393 209 l 393 309 l 541 309 l 541 245 q 475 53 541 122 q 355 -12 427 1 l 355 -146 l 245 -146 l 245 -12 q 127 53 175 2 q 61 245 61 122 l 61 754 q 127 947 61 878 q 245 1011 175 998 z "},"£":{"ha":603,"x_min":34,"x_max":541,"o":"m 541 0 l 34 0 l 34 142 q 91 183 71 153 q 119 254 111 214 q 126 331 126 294 q 125 370 126 349 l 34 370 l 34 463 l 117 463 q 109 538 114 497 q 89 770 89 688 q 151 950 89 884 q 315 1017 213 1017 q 478 950 416 1017 q 541 770 541 884 l 541 690 l 393 690 l 393 772 q 387 826 393 804 q 315 874 373 874 q 266 862 283 874 q 243 826 249 849 q 237 772 237 804 q 252 596 237 715 q 267 463 262 524 l 467 463 l 467 370 l 273 370 l 274 331 q 258 238 274 293 q 204 142 241 182 l 541 142 l 541 0 z "},"¤":{"ha":596,"x_min":34,"x_max":562,"o":"m 484 217 l 397 304 q 298 278 352 278 q 199 304 244 278 l 113 217 l 34 296 l 121 382 q 95 481 95 427 q 121 580 95 535 l 34 667 l 113 745 l 199 659 q 298 684 244 684 q 397 659 352 684 l 484 745 l 562 667 l 475 580 q 501 481 501 535 q 475 382 501 427 l 562 296 l 484 217 m 298 389 q 363 416 336 389 q 391 481 391 443 q 363 547 391 519 q 298 574 336 574 q 233 547 260 574 q 206 481 206 519 q 233 416 206 443 q 298 389 260 389 z "},"¥":{"ha":631,"x_min":34,"x_max":569,"o":"m 197 555 l 34 1000 l 182 1000 l 300 672 l 303 672 l 422 1000 l 569 1000 l 406 555 l 560 555 l 560 463 l 376 463 l 376 370 l 560 370 l 560 278 l 376 278 l 376 0 l 228 0 l 228 278 l 43 278 l 43 370 l 228 370 l 228 463 l 43 463 l 43 555 l 197 555 z "},"¦":{"ha":246,"x_min":68,"x_max":178,"o":"m 178 550 l 68 550 l 68 1000 l 178 1000 l 178 550 m 178 0 l 68 0 l 68 450 l 178 450 l 178 0 z "},"§":{"ha":463,"x_min":34,"x_max":429,"o":"m 231 -200 q 88 -143 142 -200 q 34 15 34 -86 l 34 71 l 163 71 l 163 15 q 182 -58 163 -37 q 231 -75 198 -75 q 280 -58 264 -75 q 299 15 299 -37 q 243 110 299 64 q 189 150 218 130 q 116 204 151 174 q 34 372 34 274 l 34 463 q 115 632 34 583 q 34 805 34 706 q 88 965 34 907 q 231 1022 142 1022 q 374 965 320 1022 q 429 807 429 907 l 429 750 l 299 750 l 299 807 q 280 880 299 859 q 231 897 264 897 q 182 880 198 897 q 163 807 163 859 q 219 712 163 757 q 273 672 243 692 q 346 617 311 647 q 429 450 429 547 l 429 359 q 347 189 429 239 q 429 17 429 115 q 374 -143 429 -86 q 231 -200 319 -200 m 241 269 q 299 352 299 272 l 299 448 q 267 514 299 484 q 220 553 245 535 q 163 469 163 549 l 163 374 q 195 307 163 338 q 241 269 216 286 z "},"¨":{"ha":410,"x_min":34,"x_max":376,"o":"m 108 1055 q 62 1065 78 1055 q 40 1093 46 1075 q 34 1136 34 1112 q 39 1177 34 1159 q 61 1206 45 1196 q 108 1217 77 1217 q 154 1207 138 1217 q 176 1179 170 1197 q 182 1136 182 1160 q 176 1095 182 1114 q 155 1066 171 1076 q 108 1055 140 1055 m 302 1055 q 256 1065 272 1055 q 234 1093 240 1075 q 228 1136 228 1112 q 233 1177 228 1159 q 255 1206 239 1196 q 302 1217 271 1217 q 348 1207 332 1217 q 370 1179 363 1197 q 376 1136 376 1160 q 370 1095 376 1114 q 349 1066 365 1076 q 302 1055 333 1055 z "},"©":{"ha":806,"x_min":43,"x_max":743,"o":"m 394 -17 q 112 107 192 -17 q 43 437 43 214 l 43 562 q 112 892 43 786 q 394 1017 192 1017 q 675 892 596 1017 q 743 562 743 786 l 743 437 q 675 107 743 213 q 394 -17 596 -17 m 393 162 q 279 208 323 162 q 236 333 236 253 l 236 666 q 279 792 236 747 q 393 838 323 838 q 507 792 464 838 q 550 666 550 747 l 550 625 l 453 625 l 453 666 q 441 723 453 702 q 393 745 430 745 q 345 723 357 745 q 333 666 333 702 l 333 333 q 345 276 333 298 q 393 255 357 255 q 441 276 430 255 q 453 333 453 298 l 453 375 l 550 375 l 550 333 q 507 208 550 253 q 393 162 464 162 m 394 70 q 532 99 481 70 q 608 178 583 127 q 640 296 633 229 q 646 437 646 362 l 646 562 q 640 704 646 637 q 608 821 633 770 q 532 901 583 871 q 394 930 481 930 q 255 901 306 930 q 179 821 203 871 q 147 704 154 770 q 140 562 140 637 l 140 437 q 147 296 140 362 q 179 178 154 229 q 255 99 203 127 q 394 70 306 70 z "},"«":{"ha":615,"x_min":34,"x_max":581,"o":"m 190 258 l 34 481 l 190 705 l 325 705 l 169 481 l 325 258 l 190 258 m 446 258 l 290 481 l 446 705 l 581 705 l 425 481 l 581 258 l 446 258 z "},"¬":{"ha":450,"x_min":-15,"x_max":432,"o":"m 432 258 l 321 258 l 321 426 l -15 426 l -15 536 l 432 536 l 432 258 z "},"®":{"ha":806,"x_min":43,"x_max":743,"o":"m 557 173 l 456 173 l 386 441 l 326 441 l 326 173 l 229 173 l 229 826 l 386 826 q 499 781 456 826 q 543 655 543 736 l 543 612 q 479 468 543 512 l 557 173 m 394 -17 q 112 107 192 -17 q 43 437 43 214 l 43 562 q 112 892 43 786 q 394 1017 192 1017 q 675 892 596 1017 q 743 562 743 786 l 743 437 q 675 107 743 213 q 394 -17 596 -17 m 394 70 q 532 99 481 70 q 608 178 583 127 q 640 296 633 229 q 646 437 646 362 l 646 562 q 640 704 646 637 q 608 821 633 770 q 532 901 583 871 q 394 930 481 930 q 255 901 306 930 q 179 821 203 871 q 147 704 154 770 q 140 562 140 637 l 140 437 q 147 296 140 362 q 179 178 154 229 q 255 99 203 127 q 394 70 306 70 m 386 534 q 435 555 423 534 q 446 612 446 577 l 446 655 q 435 712 446 691 q 386 734 423 734 l 326 734 l 326 534 l 386 534 z "},"¯":{"ha":410,"x_min":20,"x_max":389,"o":"m 389 1132 l 20 1132 l 20 1274 l 389 1274 l 389 1132 z "},"°":{"ha":384,"x_min":34,"x_max":350,"o":"m 192 632 q 78 679 121 632 q 34 804 34 725 l 34 844 q 78 970 34 924 q 192 1017 121 1017 q 307 970 263 1017 q 350 844 350 924 l 350 804 q 307 679 350 725 q 192 632 263 632 m 192 732 q 236 751 225 732 q 247 802 247 770 l 247 846 q 236 898 247 878 q 192 917 225 917 q 148 898 159 917 q 137 846 137 878 l 137 802 q 148 751 137 770 q 192 732 159 732 z "},"±":{"ha":450,"x_min":-15,"x_max":432,"o":"m 264 536 l 432 536 l 432 426 l 264 426 l 264 258 l 153 258 l 153 426 l -15 426 l -15 536 l 153 536 l 153 705 l 264 705 l 264 536 m 432 111 l 432 0 l -15 0 l -15 111 l 432 111 z "},"´":{"ha":277,"x_min":34,"x_max":243,"o":"m 34 1055 l 89 1240 l 243 1240 l 111 1055 l 34 1055 z "},"µ":{"ha":640,"x_min":68,"x_max":547,"o":"m 216 814 l 216 245 q 250 140 216 166 q 308 125 271 125 q 365 140 345 125 q 393 182 385 155 q 400 245 400 209 l 400 814 l 547 814 l 547 245 q 481 53 547 122 q 308 -17 416 -17 q 216 -1 257 -17 l 216 -203 l 68 -203 l 68 814 l 216 814 z "},"¶":{"ha":699,"x_min":34,"x_max":665,"o":"m 591 0 l 480 0 l 480 907 l 370 907 l 370 0 l 259 0 l 259 505 q 119 536 168 505 q 52 622 71 566 q 34 752 34 677 q 75 928 34 870 q 259 1000 125 1000 l 665 1000 l 665 907 l 591 907 l 591 0 z "},"·":{"ha":480,"x_min":12,"x_max":169,"o":"m 91 414 q 42 424 59 414 q 19 454 25 435 q 12 500 12 473 q 18 544 12 524 q 41 574 24 563 q 91 586 58 586 q 140 575 123 586 q 163 546 157 565 q 169 500 169 526 q 163 456 169 475 q 141 425 158 437 q 91 414 124 414 z "},"¸":{"ha":243,"x_min":34,"x_max":210,"o":"m 117 -240 l 34 -240 q 77 -193 59 -218 q 94 -149 94 -167 q 85 -123 94 -132 q 61 -108 75 -113 q 34 -100 47 -103 q 63 -46 48 -76 q 87 0 77 -16 l 161 0 l 130 -56 q 187 -71 164 -56 q 210 -116 210 -85 q 189 -173 210 -149 q 117 -240 172 -192 z "},"º":{"ha":574,"x_min":65,"x_max":517,"o":"m 517 0 l 65 0 l 65 142 l 517 142 l 517 0 m 291 237 q 127 303 190 237 q 65 484 65 370 l 65 770 q 127 950 65 884 q 291 1017 190 1017 q 454 950 392 1017 q 517 770 517 884 l 517 484 q 454 303 517 370 q 291 237 392 237 m 291 379 q 339 392 323 379 q 362 428 356 405 q 369 481 369 450 l 369 772 q 362 826 369 804 q 339 862 356 849 q 291 874 323 874 q 242 862 259 874 q 219 826 225 849 q 213 772 213 804 l 213 481 q 219 428 213 450 q 242 392 225 405 q 291 379 259 379 z "},"»":{"ha":615,"x_min":34,"x_max":581,"o":"m 169 258 l 34 258 l 190 481 l 34 705 l 169 705 l 325 481 l 169 258 m 425 258 l 290 258 l 446 481 l 290 705 l 425 705 l 581 481 l 425 258 z "},"¼":{"ha":964,"x_min":62,"x_max":937,"o":"m 361 372 l 62 372 l 62 485 l 146 485 l 146 879 l 62 879 l 62 975 l 210 1000 l 277 1000 l 277 485 l 361 485 l 361 372 m 350 -1 l 241 -1 l 686 1000 l 795 1000 l 350 -1 m 760 212 l 760 401 l 690 212 l 760 212 m 888 0 l 760 0 l 760 100 l 578 100 l 578 157 l 743 627 l 888 627 l 888 212 l 937 212 l 937 100 l 888 100 l 888 0 z "},"½":{"ha":964,"x_min":62,"x_max":924,"o":"m 361 372 l 62 372 l 62 485 l 146 485 l 146 879 l 62 879 l 62 975 l 210 1000 l 277 1000 l 277 485 l 361 485 l 361 372 m 322 0 l 214 0 l 659 1000 l 768 1000 l 322 0 m 924 0 l 596 0 l 596 136 q 678 302 596 222 q 719 340 698 321 q 759 378 739 359 q 793 443 793 413 l 793 477 q 790 505 793 494 q 760 524 785 524 q 741 521 746 524 q 727 477 727 511 l 727 414 l 596 414 l 596 476 q 641 593 596 549 q 760 637 686 637 q 880 593 835 637 q 924 476 924 549 l 924 441 q 865 311 924 373 q 813 260 840 284 q 770 220 790 240 q 727 134 727 176 l 727 112 l 793 112 l 793 212 l 924 212 l 924 0 z "},"¾":{"ha":911,"x_min":39,"x_max":884,"o":"m 203 369 q 84 413 129 369 q 39 530 39 458 l 39 592 l 170 592 l 170 529 q 182 487 170 494 q 203 481 189 481 q 223 486 217 481 q 233 501 230 490 q 236 529 236 512 l 236 589 q 233 617 236 606 q 223 632 230 628 q 203 637 217 637 l 138 637 l 138 749 l 203 749 q 221 753 216 749 q 230 768 227 758 q 233 796 233 779 l 233 857 q 230 885 233 873 q 221 900 227 896 q 203 904 216 904 q 176 885 181 904 q 173 857 173 873 l 173 793 l 41 793 l 41 856 q 90 976 41 931 q 203 1017 133 1017 q 317 976 273 1017 q 365 856 365 931 l 365 797 q 326 694 365 717 q 368 588 368 671 l 368 530 q 322 413 368 458 q 203 369 277 369 m 315 0 l 205 0 l 650 1000 l 760 1000 l 315 0 m 707 212 l 707 401 l 637 212 l 707 212 m 836 0 l 707 0 l 707 100 l 525 100 l 525 157 l 690 627 l 836 627 l 836 212 l 884 212 l 884 100 l 836 100 l 836 0 z "},"¿":{"ha":529,"x_min":33,"x_max":484,"o":"m 223 762 l 293 762 l 315 466 q 204 343 230 382 q 180 267 180 307 l 180 205 q 186 155 180 177 q 210 121 193 134 q 258 109 227 109 q 307 121 290 109 q 336 210 336 143 l 336 292 l 484 292 l 484 212 q 422 32 484 98 q 258 -34 359 -34 q 95 32 157 -34 q 33 212 33 98 l 33 270 q 119 475 33 377 q 209 568 148 507 l 223 762 m 258 1000 q 316 987 296 1000 q 343 952 336 975 q 351 898 351 929 q 344 847 351 869 q 317 810 337 824 q 258 797 297 797 q 200 809 220 797 q 173 845 180 822 q 166 898 166 867 q 173 949 166 926 q 199 986 179 972 q 258 1000 219 1000 z "},"À":{"ha":581,"x_min":16,"x_max":551,"o":"m 551 0 l 406 0 l 377 205 l 191 205 l 161 0 l 16 0 l 175 1000 l 393 1000 l 551 0 m 357 347 l 286 821 l 282 821 l 210 347 l 357 347 m 327 1055 l 250 1055 l 118 1239 l 271 1239 l 327 1055 z "},"Á":{"ha":581,"x_min":16,"x_max":551,"o":"m 551 0 l 406 0 l 377 205 l 191 205 l 161 0 l 16 0 l 175 1000 l 393 1000 l 551 0 m 357 347 l 286 821 l 282 821 l 210 347 l 357 347 m 234 1055 l 289 1240 l 443 1240 l 311 1055 l 234 1055 z "},"Â":{"ha":581,"x_min":16,"x_max":551,"o":"m 551 0 l 406 0 l 377 205 l 191 205 l 161 0 l 16 0 l 175 1000 l 393 1000 l 551 0 m 357 347 l 286 821 l 282 821 l 210 347 l 357 347 m 454 1055 l 377 1055 l 284 1130 l 191 1055 l 113 1055 l 245 1240 l 322 1240 l 454 1055 z "},"Ã":{"ha":581,"x_min":16,"x_max":551,"o":"m 551 0 l 406 0 l 377 205 l 191 205 l 161 0 l 16 0 l 175 1000 l 393 1000 l 551 0 m 357 347 l 286 821 l 282 821 l 210 347 l 357 347 m 345 1055 q 301 1067 319 1056 q 268 1093 283 1079 q 243 1113 256 1105 q 218 1122 231 1122 q 194 1105 203 1122 q 185 1057 185 1088 l 113 1057 q 141 1162 113 1116 q 223 1210 169 1208 q 267 1198 248 1209 q 299 1172 285 1186 q 324 1152 312 1160 q 350 1143 336 1143 q 373 1160 364 1143 q 382 1208 382 1177 l 454 1208 q 427 1103 454 1149 q 345 1055 399 1057 z "},"Ä":{"ha":581,"x_min":16,"x_max":551,"o":"m 551 0 l 406 0 l 377 205 l 191 205 l 161 0 l 16 0 l 175 1000 l 393 1000 l 551 0 m 357 347 l 286 821 l 282 821 l 210 347 l 357 347 m 187 1055 q 141 1065 157 1055 q 119 1093 125 1075 q 113 1136 113 1112 q 119 1177 113 1159 q 140 1206 124 1196 q 187 1217 156 1217 q 233 1207 217 1217 q 255 1179 249 1197 q 260 1136 260 1160 q 255 1095 260 1114 q 234 1066 250 1076 q 187 1055 218 1055 m 381 1055 q 335 1065 351 1055 q 313 1093 319 1075 q 307 1136 307 1112 q 313 1177 307 1159 q 334 1206 318 1196 q 381 1217 349 1217 q 427 1207 411 1217 q 449 1179 443 1197 q 454 1136 454 1160 q 449 1095 454 1114 q 428 1066 444 1076 q 381 1055 412 1055 z "},"Å":{"ha":581,"x_min":16,"x_max":551,"o":"m 551 0 l 406 0 l 377 205 l 191 205 l 161 0 l 16 0 l 175 1000 l 393 1000 l 551 0 m 357 347 l 286 821 l 282 821 l 210 347 l 357 347 m 284 1084 q 315 1097 302 1084 q 328 1128 328 1110 q 315 1160 328 1147 q 284 1173 302 1173 q 252 1160 265 1173 q 239 1128 239 1147 q 252 1097 239 1110 q 284 1084 265 1084 m 284 1017 q 205 1050 238 1017 q 173 1128 173 1082 q 205 1207 173 1175 q 284 1240 238 1240 q 362 1207 330 1240 q 395 1128 395 1175 q 362 1050 395 1082 q 284 1017 330 1017 z "},"Æ":{"ha":817,"x_min":16,"x_max":755,"o":"m 349 205 l 191 205 l 161 0 l 16 0 l 175 1000 l 755 1000 l 755 857 l 496 857 l 496 552 l 736 552 l 736 410 l 496 410 l 496 142 l 755 142 l 755 0 l 349 0 l 349 205 m 289 857 l 210 347 l 349 347 l 349 857 l 289 857 z "},"Ç":{"ha":597,"x_min":61,"x_max":541,"o":"m 258 -14 q 127 53 180 -3 q 61 245 61 122 l 61 754 q 127 947 61 878 q 301 1017 193 1017 q 475 947 409 1017 q 541 754 541 878 l 541 690 l 393 690 l 393 754 q 359 859 393 833 q 301 874 338 874 q 244 859 264 874 q 216 818 224 844 q 209 754 209 791 l 209 245 q 216 182 209 209 q 244 140 224 155 q 301 125 264 125 q 386 182 370 125 q 393 245 393 209 l 393 309 l 541 309 l 541 245 q 475 53 541 122 q 332 -16 418 -7 l 309 -56 q 366 -71 343 -56 q 389 -116 389 -85 q 368 -173 389 -149 q 296 -240 351 -192 l 213 -240 q 256 -193 238 -218 q 273 -149 273 -167 q 264 -123 273 -132 q 240 -108 254 -113 q 213 -100 227 -103 q 242 -46 227 -76 q 258 -14 251 -27 z "},"È":{"ha":547,"x_min":79,"x_max":485,"o":"m 485 0 l 79 0 l 79 1000 l 485 1000 l 485 857 l 227 857 l 227 552 l 466 552 l 466 410 l 227 410 l 227 142 l 485 142 l 485 0 m 351 1055 l 274 1055 l 142 1240 l 296 1240 l 351 1055 z "},"É":{"ha":547,"x_min":79,"x_max":485,"o":"m 485 0 l 79 0 l 79 1000 l 485 1000 l 485 857 l 227 857 l 227 552 l 466 552 l 466 410 l 227 410 l 227 142 l 485 142 l 485 0 m 212 1055 l 268 1240 l 421 1240 l 290 1055 l 212 1055 z "},"Ê":{"ha":547,"x_min":79,"x_max":485,"o":"m 485 0 l 79 0 l 79 1000 l 485 1000 l 485 857 l 227 857 l 227 552 l 466 552 l 466 410 l 227 410 l 227 142 l 485 142 l 485 0 m 452 1055 l 375 1055 l 281 1130 l 189 1055 l 111 1055 l 243 1240 l 320 1240 l 452 1055 z "},"Ë":{"ha":547,"x_min":79,"x_max":485,"o":"m 485 0 l 79 0 l 79 1000 l 485 1000 l 485 857 l 227 857 l 227 552 l 466 552 l 466 410 l 227 410 l 227 142 l 485 142 l 485 0 m 185 1055 q 139 1065 155 1055 q 117 1093 123 1075 q 111 1136 111 1112 q 117 1177 111 1159 q 138 1206 122 1196 q 185 1217 154 1217 q 231 1207 215 1217 q 253 1179 247 1197 q 258 1136 258 1160 q 253 1095 258 1114 q 232 1066 248 1076 q 185 1055 216 1055 m 379 1055 q 333 1065 349 1055 q 311 1093 317 1075 q 305 1136 305 1112 q 311 1177 305 1159 q 332 1206 316 1196 q 379 1217 347 1217 q 425 1207 409 1217 q 447 1179 441 1197 q 452 1136 452 1160 q 447 1095 452 1114 q 426 1066 441 1076 q 379 1055 410 1055 z "},"Ì":{"ha":330,"x_min":13,"x_max":226,"o":"m 226 0 l 79 0 l 79 1000 l 226 1000 l 226 0 m 222 1055 l 144 1055 l 13 1240 l 166 1240 l 222 1055 z "},"Í":{"ha":330,"x_min":79,"x_max":292,"o":"m 226 0 l 79 0 l 79 1000 l 226 1000 l 226 0 m 83 1055 l 138 1240 l 292 1240 l 160 1055 l 83 1055 z "},"Î":{"ha":330,"x_min":-18,"x_max":323,"o":"m 226 0 l 79 0 l 79 1000 l 226 1000 l 226 0 m 323 1055 l 245 1055 l 152 1130 l 59 1055 l -18 1055 l 114 1240 l 191 1240 l 323 1055 z "},"Ï":{"ha":330,"x_min":-18,"x_max":323,"o":"m 226 0 l 79 0 l 79 1000 l 226 1000 l 226 0 m 56 1055 q 10 1065 26 1055 q -12 1093 -6 1075 q -18 1136 -18 1112 q -13 1177 -18 1159 q 8 1206 -7 1196 q 56 1217 24 1217 q 101 1207 85 1217 q 123 1179 117 1197 q 129 1136 129 1160 q 124 1095 129 1114 q 103 1066 119 1076 q 56 1055 87 1055 m 250 1055 q 203 1065 219 1055 q 181 1093 187 1075 q 176 1136 176 1112 q 181 1177 176 1159 q 202 1206 186 1196 q 250 1217 218 1217 q 295 1207 279 1217 q 317 1179 311 1197 q 323 1136 323 1160 q 317 1095 323 1114 q 296 1066 312 1076 q 250 1055 281 1055 z "},"Ð":{"ha":638,"x_min":32,"x_max":558,"o":"m 227 444 l 227 142 l 319 142 q 376 157 356 142 q 404 198 396 172 q 411 262 411 225 l 411 738 q 404 801 411 774 q 376 843 396 828 q 319 857 356 857 l 227 857 l 227 555 l 300 555 l 300 444 l 227 444 m 79 555 l 79 1000 l 319 1000 q 492 930 427 1000 q 558 738 558 861 l 558 262 q 492 70 558 139 q 319 0 427 0 l 79 0 l 79 444 l 32 444 l 32 555 l 79 555 z "},"Ñ":{"ha":663,"x_min":79,"x_max":558,"o":"m 558 0 l 420 0 l 227 567 l 227 0 l 79 0 l 79 1000 l 217 1000 l 411 432 l 411 1000 l 558 1000 l 558 0 m 379 1055 q 336 1067 354 1056 q 302 1093 317 1079 q 278 1113 290 1105 q 252 1122 266 1122 q 229 1105 238 1122 q 220 1057 220 1088 l 148 1057 q 176 1162 148 1116 q 258 1210 204 1208 q 301 1198 283 1209 q 334 1172 319 1186 q 359 1152 347 1160 q 385 1143 371 1143 q 408 1160 399 1143 q 418 1208 418 1177 l 489 1208 q 461 1103 489 1149 q 379 1055 433 1057 z "},"Ò":{"ha":622,"x_min":61,"x_max":541,"o":"m 301 -17 q 127 53 193 -17 q 61 245 61 122 l 61 754 q 127 947 61 878 q 301 1017 193 1017 q 475 947 409 1017 q 541 754 541 878 l 541 245 q 475 53 541 122 q 301 -17 409 -17 m 301 125 q 358 140 338 125 q 386 182 378 155 q 393 245 393 209 l 393 754 q 386 818 393 791 q 358 859 378 844 q 301 874 338 874 q 244 859 264 874 q 216 818 224 844 q 209 754 209 791 l 209 245 q 216 182 209 209 q 244 140 224 155 q 301 125 264 125 m 332 1055 l 256 1055 l 123 1240 l 277 1240 l 332 1055 z "},"Ó":{"ha":622,"x_min":61,"x_max":541,"o":"m 301 -17 q 127 53 193 -17 q 61 245 61 122 l 61 754 q 127 947 61 878 q 301 1017 193 1017 q 475 947 409 1017 q 541 754 541 878 l 541 245 q 475 53 541 122 q 301 -17 409 -17 m 301 125 q 358 140 338 125 q 386 182 378 155 q 393 245 393 209 l 393 754 q 386 818 393 791 q 358 859 378 844 q 301 874 338 874 q 244 859 264 874 q 216 818 224 844 q 209 754 209 791 l 209 245 q 216 182 209 209 q 244 140 224 155 q 301 125 264 125 m 258 1055 l 313 1239 l 467 1239 l 335 1055 l 258 1055 z "},"Ô":{"ha":622,"x_min":61,"x_max":541,"o":"m 301 -17 q 127 53 193 -17 q 61 245 61 122 l 61 754 q 127 947 61 878 q 301 1017 193 1017 q 475 947 409 1017 q 541 754 541 878 l 541 245 q 475 53 541 122 q 301 -17 409 -17 m 301 125 q 358 140 338 125 q 386 182 378 155 q 393 245 393 209 l 393 754 q 386 818 393 791 q 358 859 378 844 q 301 874 338 874 q 244 859 264 874 q 216 818 224 844 q 209 754 209 791 l 209 245 q 216 182 209 209 q 244 140 224 155 q 301 125 264 125 m 471 1055 l 394 1055 l 301 1130 l 208 1055 l 130 1055 l 262 1240 l 340 1240 l 471 1055 z "},"Õ":{"ha":622,"x_min":61,"x_max":541,"o":"m 301 -17 q 127 53 193 -17 q 61 245 61 122 l 61 754 q 127 947 61 878 q 301 1017 193 1017 q 475 947 409 1017 q 541 754 541 878 l 541 245 q 475 53 541 122 q 301 -17 409 -17 m 301 125 q 358 140 338 125 q 386 182 378 155 q 393 245 393 209 l 393 754 q 386 818 393 791 q 358 859 378 844 q 301 874 338 874 q 244 859 264 874 q 216 818 224 844 q 209 754 209 791 l 209 245 q 216 182 209 209 q 244 140 224 155 q 301 125 264 125 m 361 1055 q 318 1067 336 1056 q 285 1093 300 1079 q 260 1113 273 1105 q 235 1122 248 1122 q 211 1105 220 1122 q 202 1057 202 1088 l 130 1057 q 158 1162 130 1116 q 240 1210 186 1208 q 283 1198 265 1209 q 317 1172 302 1186 q 341 1152 329 1160 q 367 1143 353 1143 q 391 1160 381 1143 q 400 1208 400 1177 l 471 1208 q 444 1103 471 1149 q 361 1055 416 1057 z "},"Ö":{"ha":622,"x_min":61,"x_max":541,"o":"m 301 -17 q 127 53 193 -17 q 61 245 61 122 l 61 754 q 127 947 61 878 q 301 1017 193 1017 q 475 947 409 1017 q 541 754 541 878 l 541 245 q 475 53 541 122 q 301 -17 409 -17 m 301 125 q 358 140 338 125 q 386 182 378 155 q 393 245 393 209 l 393 754 q 386 818 393 791 q 358 859 378 844 q 301 874 338 874 q 244 859 264 874 q 216 818 224 844 q 209 754 209 791 l 209 245 q 216 182 209 209 q 244 140 224 155 q 301 125 264 125 m 204 1055 q 158 1065 174 1055 q 136 1093 142 1075 q 130 1136 130 1112 q 136 1177 130 1159 q 157 1206 141 1196 q 204 1217 173 1217 q 250 1207 234 1217 q 272 1179 266 1197 q 278 1136 278 1160 q 273 1095 278 1114 q 251 1066 267 1076 q 204 1055 235 1055 m 398 1055 q 352 1065 368 1055 q 330 1093 336 1075 q 324 1136 324 1112 q 330 1177 324 1159 q 351 1206 335 1196 q 398 1217 367 1217 q 444 1207 428 1217 q 466 1179 460 1197 q 471 1136 471 1160 q 466 1095 471 1114 q 445 1066 461 1076 q 398 1055 429 1055 z "},"×":{"ha":515,"x_min":34,"x_max":481,"o":"m 481 258 l 347 258 l 258 385 l 169 258 l 34 258 l 191 481 l 34 705 l 169 705 l 258 578 l 347 705 l 481 705 l 326 481 l 481 258 z "},"Ø":{"ha":622,"x_min":61,"x_max":541,"o":"m 279 126 q 301 125 290 125 q 358 140 338 125 q 386 182 378 155 q 393 245 393 209 l 393 661 l 279 126 m 322 873 q 301 874 313 874 q 244 859 264 874 q 216 818 224 844 q 209 754 209 791 l 209 338 l 322 873 m 301 -17 q 127 53 193 -17 q 61 245 61 122 l 61 754 q 127 947 61 878 q 301 1017 193 1017 q 475 947 409 1017 q 541 754 541 878 l 541 245 q 475 53 541 122 q 301 -17 409 -17 z "},"Ù":{"ha":640,"x_min":68,"x_max":547,"o":"m 308 -17 q 134 53 200 -17 q 68 245 68 122 l 68 1000 l 216 1000 l 216 245 q 250 140 216 166 q 308 125 271 125 q 365 140 345 125 q 393 182 385 155 q 400 245 400 209 l 400 1000 l 547 1000 l 547 245 q 481 53 547 122 q 308 -17 416 -17 m 340 1055 l 264 1055 l 132 1240 l 286 1240 l 340 1055 z "},"Ú":{"ha":640,"x_min":68,"x_max":547,"o":"m 308 -17 q 134 53 200 -17 q 68 245 68 122 l 68 1000 l 216 1000 l 216 245 q 250 140 216 166 q 308 125 271 125 q 365 140 345 125 q 393 182 385 155 q 400 245 400 209 l 400 1000 l 547 1000 l 547 245 q 481 53 547 122 q 308 -17 416 -17 m 269 1055 l 323 1239 l 477 1239 l 345 1055 l 269 1055 z "},"Û":{"ha":640,"x_min":68,"x_max":547,"o":"m 308 -17 q 134 53 200 -17 q 68 245 68 122 l 68 1000 l 216 1000 l 216 245 q 250 140 216 166 q 308 125 271 125 q 365 140 345 125 q 393 182 385 155 q 400 245 400 209 l 400 1000 l 547 1000 l 547 245 q 481 53 547 122 q 308 -17 416 -17 m 478 1055 l 401 1055 l 308 1130 l 214 1055 l 137 1055 l 269 1240 l 347 1240 l 478 1055 z "},"Ü":{"ha":640,"x_min":68,"x_max":547,"o":"m 308 -17 q 134 53 200 -17 q 68 245 68 122 l 68 1000 l 216 1000 l 216 245 q 250 140 216 166 q 308 125 271 125 q 365 140 345 125 q 393 182 385 155 q 400 245 400 209 l 400 1000 l 547 1000 l 547 245 q 481 53 547 122 q 308 -17 416 -17 m 211 1055 q 165 1065 181 1055 q 143 1093 149 1075 q 137 1136 137 1112 q 142 1177 137 1159 q 164 1206 148 1196 q 211 1217 180 1217 q 257 1207 241 1217 q 279 1179 273 1197 q 285 1136 285 1160 q 279 1095 285 1114 q 258 1066 274 1076 q 211 1055 242 1055 m 405 1055 q 359 1065 375 1055 q 337 1093 342 1075 q 331 1136 331 1112 q 336 1177 331 1159 q 358 1206 342 1196 q 405 1217 374 1217 q 451 1207 435 1217 q 472 1179 467 1197 q 478 1136 478 1160 q 473 1095 478 1114 q 452 1066 468 1076 q 405 1055 436 1055 z "},"Ý":{"ha":558,"x_min":7,"x_max":542,"o":"m 348 0 l 201 0 l 201 343 l 7 1000 l 155 1000 l 273 571 l 276 571 l 394 1000 l 542 1000 l 348 343 l 348 0 m 238 1055 l 294 1240 l 447 1240 l 315 1055 l 238 1055 z "},"Þ":{"ha":603,"x_min":79,"x_max":558,"o":"m 226 275 l 226 0 l 79 0 l 79 1000 l 226 1000 l 226 864 l 319 864 q 492 794 427 864 q 558 602 558 725 l 558 536 q 492 344 558 414 q 319 275 427 275 l 226 275 m 226 416 l 319 416 q 376 431 356 416 q 404 473 396 446 q 411 536 411 500 l 411 602 q 404 665 411 638 q 376 707 396 692 q 319 722 356 722 l 226 722 l 226 416 z "},"ß":{"ha":605,"x_min":35,"x_max":551,"o":"m 311 0 l 292 0 l 292 142 l 311 142 q 368 157 349 142 q 395 198 388 172 q 403 262 403 225 l 403 291 q 395 354 403 327 q 368 395 388 380 q 311 410 349 410 l 292 410 q 271 424 279 410 q 260 454 263 437 q 257 481 257 471 q 267 531 257 511 q 292 552 277 552 q 350 567 330 552 q 377 609 370 582 q 385 672 385 636 l 385 772 q 367 846 385 819 q 302 874 349 874 q 236 846 254 874 q 218 772 218 819 l 218 0 l 71 0 l 71 410 l 35 410 l 35 552 l 71 552 l 71 770 q 97 897 71 841 q 176 984 124 952 q 302 1017 227 1017 q 427 984 376 1017 q 506 897 479 952 q 532 770 532 841 l 532 672 q 462 488 532 549 q 551 291 551 430 l 551 262 q 486 68 551 139 q 311 0 419 0 z "},"à":{"ha":581,"x_min":16,"x_max":551,"o":"m 551 0 l 406 0 l 377 205 l 191 205 l 161 0 l 16 0 l 175 1000 l 393 1000 l 551 0 m 357 347 l 286 821 l 282 821 l 210 347 l 357 347 m 327 1055 l 250 1055 l 118 1239 l 271 1239 l 327 1055 z "},"á":{"ha":581,"x_min":16,"x_max":551,"o":"m 551 0 l 406 0 l 377 205 l 191 205 l 161 0 l 16 0 l 175 1000 l 393 1000 l 551 0 m 357 347 l 286 821 l 282 821 l 210 347 l 357 347 m 234 1055 l 289 1240 l 443 1240 l 311 1055 l 234 1055 z "},"â":{"ha":581,"x_min":16,"x_max":551,"o":"m 551 0 l 406 0 l 377 205 l 191 205 l 161 0 l 16 0 l 175 1000 l 393 1000 l 551 0 m 357 347 l 286 821 l 282 821 l 210 347 l 357 347 m 454 1055 l 377 1055 l 284 1130 l 191 1055 l 113 1055 l 245 1240 l 322 1240 l 454 1055 z "},"ã":{"ha":581,"x_min":16,"x_max":551,"o":"m 551 0 l 406 0 l 377 205 l 191 205 l 161 0 l 16 0 l 175 1000 l 393 1000 l 551 0 m 357 347 l 286 821 l 282 821 l 210 347 l 357 347 m 345 1055 q 301 1067 319 1056 q 268 1093 283 1079 q 243 1113 256 1105 q 218 1122 231 1122 q 194 1105 203 1122 q 185 1057 185 1088 l 113 1057 q 141 1162 113 1116 q 223 1210 169 1208 q 267 1198 248 1209 q 299 1172 285 1186 q 324 1152 312 1160 q 350 1143 336 1143 q 373 1160 364 1143 q 382 1208 382 1177 l 454 1208 q 427 1103 454 1149 q 345 1055 399 1057 z "},"ä":{"ha":581,"x_min":16,"x_max":551,"o":"m 551 0 l 406 0 l 377 205 l 191 205 l 161 0 l 16 0 l 175 1000 l 393 1000 l 551 0 m 357 347 l 286 821 l 282 821 l 210 347 l 357 347 m 187 1055 q 141 1065 157 1055 q 119 1093 125 1075 q 113 1136 113 1112 q 119 1177 113 1159 q 140 1206 124 1196 q 187 1217 156 1217 q 233 1207 217 1217 q 255 1179 249 1197 q 260 1136 260 1160 q 255 1095 260 1114 q 234 1066 250 1076 q 187 1055 218 1055 m 381 1055 q 335 1065 351 1055 q 313 1093 319 1075 q 307 1136 307 1112 q 313 1177 307 1159 q 334 1206 318 1196 q 381 1217 349 1217 q 427 1207 411 1217 q 449 1179 443 1197 q 454 1136 454 1160 q 449 1095 454 1114 q 428 1066 444 1076 q 381 1055 412 1055 z "},"å":{"ha":581,"x_min":16,"x_max":551,"o":"m 551 0 l 406 0 l 377 205 l 191 205 l 161 0 l 16 0 l 175 1000 l 393 1000 l 551 0 m 357 347 l 286 821 l 282 821 l 210 347 l 357 347 m 284 1084 q 315 1097 302 1084 q 328 1128 328 1110 q 315 1160 328 1147 q 284 1173 302 1173 q 252 1160 265 1173 q 239 1128 239 1147 q 252 1097 239 1110 q 284 1084 265 1084 m 284 1017 q 205 1050 238 1017 q 173 1128 173 1082 q 205 1207 173 1175 q 284 1240 238 1240 q 362 1207 330 1240 q 395 1128 395 1175 q 362 1050 395 1082 q 284 1017 330 1017 z "},"æ":{"ha":817,"x_min":16,"x_max":755,"o":"m 349 205 l 191 205 l 161 0 l 16 0 l 175 1000 l 755 1000 l 755 857 l 496 857 l 496 552 l 736 552 l 736 410 l 496 410 l 496 142 l 755 142 l 755 0 l 349 0 l 349 205 m 289 857 l 210 347 l 349 347 l 349 857 l 289 857 z "},"ç":{"ha":597,"x_min":61,"x_max":541,"o":"m 258 -14 q 127 53 180 -3 q 61 245 61 122 l 61 754 q 127 947 61 878 q 301 1017 193 1017 q 475 947 409 1017 q 541 754 541 878 l 541 690 l 393 690 l 393 754 q 359 859 393 833 q 301 874 338 874 q 244 859 264 874 q 216 818 224 844 q 209 754 209 791 l 209 245 q 216 182 209 209 q 244 140 224 155 q 301 125 264 125 q 386 182 370 125 q 393 245 393 209 l 393 309 l 541 309 l 541 245 q 475 53 541 122 q 332 -16 418 -7 l 309 -56 q 366 -71 343 -56 q 389 -116 389 -85 q 368 -173 389 -149 q 296 -240 351 -192 l 213 -240 q 256 -193 238 -218 q 273 -149 273 -167 q 264 -123 273 -132 q 240 -108 254 -113 q 213 -100 227 -103 q 242 -46 227 -76 q 258 -14 251 -27 z "},"è":{"ha":547,"x_min":79,"x_max":485,"o":"m 485 0 l 79 0 l 79 1000 l 485 1000 l 485 857 l 227 857 l 227 552 l 466 552 l 466 410 l 227 410 l 227 142 l 485 142 l 485 0 m 351 1055 l 274 1055 l 142 1240 l 296 1240 l 351 1055 z "},"é":{"ha":547,"x_min":79,"x_max":485,"o":"m 485 0 l 79 0 l 79 1000 l 485 1000 l 485 857 l 227 857 l 227 552 l 466 552 l 466 410 l 227 410 l 227 142 l 485 142 l 485 0 m 212 1055 l 268 1240 l 421 1240 l 290 1055 l 212 1055 z "},"ê":{"ha":547,"x_min":79,"x_max":485,"o":"m 485 0 l 79 0 l 79 1000 l 485 1000 l 485 857 l 227 857 l 227 552 l 466 552 l 466 410 l 227 410 l 227 142 l 485 142 l 485 0 m 452 1055 l 375 1055 l 281 1130 l 189 1055 l 111 1055 l 243 1240 l 320 1240 l 452 1055 z "},"ë":{"ha":547,"x_min":79,"x_max":485,"o":"m 485 0 l 79 0 l 79 1000 l 485 1000 l 485 857 l 227 857 l 227 552 l 466 552 l 466 410 l 227 410 l 227 142 l 485 142 l 485 0 m 185 1055 q 139 1065 155 1055 q 117 1093 123 1075 q 111 1136 111 1112 q 117 1177 111 1159 q 138 1206 122 1196 q 185 1217 154 1217 q 231 1207 215 1217 q 253 1179 247 1197 q 258 1136 258 1160 q 253 1095 258 1114 q 232 1066 248 1076 q 185 1055 216 1055 m 379 1055 q 333 1065 349 1055 q 311 1093 317 1075 q 305 1136 305 1112 q 311 1177 305 1159 q 332 1206 316 1196 q 379 1217 347 1217 q 425 1207 409 1217 q 447 1179 441 1197 q 452 1136 452 1160 q 447 1095 452 1114 q 426 1066 441 1076 q 379 1055 410 1055 z "},"ì":{"ha":330,"x_min":13,"x_max":226,"o":"m 226 0 l 79 0 l 79 1000 l 226 1000 l 226 0 m 222 1055 l 144 1055 l 13 1240 l 166 1240 l 222 1055 z "},"í":{"ha":330,"x_min":79,"x_max":292,"o":"m 226 0 l 79 0 l 79 1000 l 226 1000 l 226 0 m 83 1055 l 138 1240 l 292 1240 l 160 1055 l 83 1055 z "},"î":{"ha":330,"x_min":-18,"x_max":323,"o":"m 226 0 l 79 0 l 79 1000 l 226 1000 l 226 0 m 323 1055 l 245 1055 l 152 1130 l 59 1055 l -18 1055 l 114 1240 l 191 1240 l 323 1055 z "},"ï":{"ha":330,"x_min":-18,"x_max":323,"o":"m 226 0 l 79 0 l 79 1000 l 226 1000 l 226 0 m 56 1055 q 10 1065 26 1055 q -12 1093 -6 1075 q -18 1136 -18 1112 q -13 1177 -18 1159 q 8 1206 -7 1196 q 56 1217 24 1217 q 101 1207 85 1217 q 123 1179 117 1197 q 129 1136 129 1160 q 124 1095 129 1114 q 103 1066 119 1076 q 56 1055 87 1055 m 250 1055 q 203 1065 219 1055 q 181 1093 187 1075 q 176 1136 176 1112 q 181 1177 176 1159 q 202 1206 186 1196 q 250 1217 218 1217 q 295 1207 279 1217 q 317 1179 311 1197 q 323 1136 323 1160 q 317 1095 323 1114 q 296 1066 312 1076 q 250 1055 281 1055 z "},"ð":{"ha":638,"x_min":32,"x_max":558,"o":"m 227 444 l 227 142 l 319 142 q 376 157 356 142 q 404 198 396 172 q 411 262 411 225 l 411 738 q 404 801 411 774 q 376 843 396 828 q 319 857 356 857 l 227 857 l 227 555 l 300 555 l 300 444 l 227 444 m 79 555 l 79 1000 l 319 1000 q 492 930 427 1000 q 558 738 558 861 l 558 262 q 492 70 558 139 q 319 0 427 0 l 79 0 l 79 444 l 32 444 l 32 555 l 79 555 z "},"ñ":{"ha":663,"x_min":79,"x_max":558,"o":"m 558 0 l 420 0 l 227 567 l 227 0 l 79 0 l 79 1000 l 217 1000 l 411 432 l 411 1000 l 558 1000 l 558 0 m 379 1055 q 336 1067 354 1056 q 302 1093 317 1079 q 278 1113 290 1105 q 252 1122 266 1122 q 229 1105 238 1122 q 220 1057 220 1088 l 148 1057 q 176 1162 148 1116 q 258 1210 204 1208 q 301 1198 283 1209 q 334 1172 319 1186 q 359 1152 347 1160 q 385 1143 371 1143 q 408 1160 399 1143 q 418 1208 418 1177 l 489 1208 q 461 1103 489 1149 q 379 1055 433 1057 z "},"ò":{"ha":622,"x_min":61,"x_max":541,"o":"m 301 -17 q 127 53 193 -17 q 61 245 61 122 l 61 754 q 127 947 61 878 q 301 1017 193 1017 q 475 947 409 1017 q 541 754 541 878 l 541 245 q 475 53 541 122 q 301 -17 409 -17 m 301 125 q 358 140 338 125 q 386 182 378 155 q 393 245 393 209 l 393 754 q 386 818 393 791 q 358 859 378 844 q 301 874 338 874 q 244 859 264 874 q 216 818 224 844 q 209 754 209 791 l 209 245 q 216 182 209 209 q 244 140 224 155 q 301 125 264 125 m 332 1055 l 256 1055 l 123 1240 l 277 1240 l 332 1055 z "},"ó":{"ha":622,"x_min":61,"x_max":541,"o":"m 301 -17 q 127 53 193 -17 q 61 245 61 122 l 61 754 q 127 947 61 878 q 301 1017 193 1017 q 475 947 409 1017 q 541 754 541 878 l 541 245 q 475 53 541 122 q 301 -17 409 -17 m 301 125 q 358 140 338 125 q 386 182 378 155 q 393 245 393 209 l 393 754 q 386 818 393 791 q 358 859 378 844 q 301 874 338 874 q 244 859 264 874 q 216 818 224 844 q 209 754 209 791 l 209 245 q 216 182 209 209 q 244 140 224 155 q 301 125 264 125 m 258 1055 l 313 1239 l 467 1239 l 335 1055 l 258 1055 z "},"ô":{"ha":622,"x_min":61,"x_max":541,"o":"m 301 -17 q 127 53 193 -17 q 61 245 61 122 l 61 754 q 127 947 61 878 q 301 1017 193 1017 q 475 947 409 1017 q 541 754 541 878 l 541 245 q 475 53 541 122 q 301 -17 409 -17 m 301 125 q 358 140 338 125 q 386 182 378 155 q 393 245 393 209 l 393 754 q 386 818 393 791 q 358 859 378 844 q 301 874 338 874 q 244 859 264 874 q 216 818 224 844 q 209 754 209 791 l 209 245 q 216 182 209 209 q 244 140 224 155 q 301 125 264 125 m 471 1055 l 394 1055 l 301 1130 l 208 1055 l 130 1055 l 262 1240 l 340 1240 l 471 1055 z "},"õ":{"ha":622,"x_min":61,"x_max":541,"o":"m 301 -17 q 127 53 193 -17 q 61 245 61 122 l 61 754 q 127 947 61 878 q 301 1017 193 1017 q 475 947 409 1017 q 541 754 541 878 l 541 245 q 475 53 541 122 q 301 -17 409 -17 m 301 125 q 358 140 338 125 q 386 182 378 155 q 393 245 393 209 l 393 754 q 386 818 393 791 q 358 859 378 844 q 301 874 338 874 q 244 859 264 874 q 216 818 224 844 q 209 754 209 791 l 209 245 q 216 182 209 209 q 244 140 224 155 q 301 125 264 125 m 361 1055 q 318 1067 336 1056 q 285 1093 300 1079 q 260 1113 273 1105 q 235 1122 248 1122 q 211 1105 220 1122 q 202 1057 202 1088 l 130 1057 q 158 1162 130 1116 q 240 1210 186 1208 q 283 1198 265 1209 q 317 1172 302 1186 q 341 1152 329 1160 q 367 1143 353 1143 q 391 1160 381 1143 q 400 1208 400 1177 l 471 1208 q 444 1103 471 1149 q 361 1055 416 1057 z "},"ö":{"ha":622,"x_min":61,"x_max":541,"o":"m 301 -17 q 127 53 193 -17 q 61 245 61 122 l 61 754 q 127 947 61 878 q 301 1017 193 1017 q 475 947 409 1017 q 541 754 541 878 l 541 245 q 475 53 541 122 q 301 -17 409 -17 m 301 125 q 358 140 338 125 q 386 182 378 155 q 393 245 393 209 l 393 754 q 386 818 393 791 q 358 859 378 844 q 301 874 338 874 q 244 859 264 874 q 216 818 224 844 q 209 754 209 791 l 209 245 q 216 182 209 209 q 244 140 224 155 q 301 125 264 125 m 204 1055 q 158 1065 174 1055 q 136 1093 142 1075 q 130 1136 130 1112 q 136 1177 130 1159 q 157 1206 141 1196 q 204 1217 173 1217 q 250 1207 234 1217 q 272 1179 266 1197 q 278 1136 278 1160 q 273 1095 278 1114 q 251 1066 267 1076 q 204 1055 235 1055 m 398 1055 q 352 1065 368 1055 q 330 1093 336 1075 q 324 1136 324 1112 q 330 1177 324 1159 q 351 1206 335 1196 q 398 1217 367 1217 q 444 1207 428 1217 q 466 1179 460 1197 q 471 1136 471 1160 q 466 1095 471 1114 q 445 1066 461 1076 q 398 1055 429 1055 z "},"÷":{"ha":450,"x_min":-15,"x_max":432,"o":"m 432 536 l 432 426 l -15 426 l -15 536 l 432 536 m 209 157 q 151 169 171 157 q 124 205 132 182 q 116 258 116 228 q 123 310 116 287 q 150 347 130 333 q 209 360 170 360 q 266 348 246 360 q 294 312 286 335 q 301 258 301 289 q 294 207 301 230 q 268 170 288 184 q 209 157 248 157 m 209 602 q 151 615 171 602 q 124 650 132 627 q 116 704 116 673 q 123 755 116 732 q 150 792 130 779 q 209 806 170 806 q 266 793 246 806 q 294 758 286 781 q 301 704 301 734 q 294 652 301 675 q 268 616 288 629 q 209 602 248 602 z "},"ø":{"ha":622,"x_min":61,"x_max":541,"o":"m 279 126 q 301 125 290 125 q 358 140 338 125 q 386 182 378 155 q 393 245 393 209 l 393 661 l 279 126 m 322 873 q 301 874 313 874 q 244 859 264 874 q 216 818 224 844 q 209 754 209 791 l 209 338 l 322 873 m 301 -17 q 127 53 193 -17 q 61 245 61 122 l 61 754 q 127 947 61 878 q 301 1017 193 1017 q 475 947 409 1017 q 541 754 541 878 l 541 245 q 475 53 541 122 q 301 -17 409 -17 z "},"ù":{"ha":640,"x_min":68,"x_max":547,"o":"m 308 -17 q 134 53 200 -17 q 68 245 68 122 l 68 1000 l 216 1000 l 216 245 q 250 140 216 166 q 308 125 271 125 q 365 140 345 125 q 393 182 385 155 q 400 245 400 209 l 400 1000 l 547 1000 l 547 245 q 481 53 547 122 q 308 -17 416 -17 m 340 1055 l 264 1055 l 132 1240 l 286 1240 l 340 1055 z "},"ú":{"ha":640,"x_min":68,"x_max":547,"o":"m 308 -17 q 134 53 200 -17 q 68 245 68 122 l 68 1000 l 216 1000 l 216 245 q 250 140 216 166 q 308 125 271 125 q 365 140 345 125 q 393 182 385 155 q 400 245 400 209 l 400 1000 l 547 1000 l 547 245 q 481 53 547 122 q 308 -17 416 -17 m 269 1055 l 323 1239 l 477 1239 l 345 1055 l 269 1055 z "},"û":{"ha":640,"x_min":68,"x_max":547,"o":"m 308 -17 q 134 53 200 -17 q 68 245 68 122 l 68 1000 l 216 1000 l 216 245 q 250 140 216 166 q 308 125 271 125 q 365 140 345 125 q 393 182 385 155 q 400 245 400 209 l 400 1000 l 547 1000 l 547 245 q 481 53 547 122 q 308 -17 416 -17 m 478 1055 l 401 1055 l 308 1130 l 214 1055 l 137 1055 l 269 1240 l 347 1240 l 478 1055 z "},"ü":{"ha":640,"x_min":68,"x_max":547,"o":"m 308 -17 q 134 53 200 -17 q 68 245 68 122 l 68 1000 l 216 1000 l 216 245 q 250 140 216 166 q 308 125 271 125 q 365 140 345 125 q 393 182 385 155 q 400 245 400 209 l 400 1000 l 547 1000 l 547 245 q 481 53 547 122 q 308 -17 416 -17 m 211 1055 q 165 1065 181 1055 q 143 1093 149 1075 q 137 1136 137 1112 q 142 1177 137 1159 q 164 1206 148 1196 q 211 1217 180 1217 q 257 1207 241 1217 q 279 1179 273 1197 q 285 1136 285 1160 q 279 1095 285 1114 q 258 1066 274 1076 q 211 1055 242 1055 m 405 1055 q 359 1065 375 1055 q 337 1093 342 1075 q 331 1136 331 1112 q 336 1177 331 1159 q 358 1206 342 1196 q 405 1217 374 1217 q 451 1207 435 1217 q 472 1179 467 1197 q 478 1136 478 1160 q 473 1095 478 1114 q 452 1066 468 1076 q 405 1055 436 1055 z "},"ý":{"ha":558,"x_min":7,"x_max":542,"o":"m 348 0 l 201 0 l 201 343 l 7 1000 l 155 1000 l 273 571 l 276 571 l 394 1000 l 542 1000 l 348 343 l 348 0 m 238 1055 l 294 1240 l 447 1240 l 315 1055 l 238 1055 z "},"þ":{"ha":603,"x_min":79,"x_max":558,"o":"m 226 275 l 226 0 l 79 0 l 79 1000 l 226 1000 l 226 864 l 319 864 q 492 794 427 864 q 558 602 558 725 l 558 536 q 492 344 558 414 q 319 275 427 275 l 226 275 m 226 416 l 319 416 q 376 431 356 416 q 404 473 396 446 q 411 536 411 500 l 411 602 q 404 665 411 638 q 376 707 396 692 q 319 722 356 722 l 226 722 l 226 416 z "},"ÿ":{"ha":558,"x_min":7,"x_max":542,"o":"m 348 0 l 201 0 l 201 343 l 7 1000 l 155 1000 l 273 571 l 276 571 l 394 1000 l 542 1000 l 348 343 l 348 0 m 178 1055 q 132 1065 148 1055 q 110 1093 116 1075 q 104 1136 104 1112 q 109 1177 104 1159 q 131 1206 115 1196 q 178 1217 146 1217 q 223 1207 208 1217 q 245 1179 239 1197 q 251 1136 251 1160 q 246 1095 251 1114 q 225 1066 241 1076 q 178 1055 209 1055 m 372 1055 q 325 1065 341 1055 q 303 1093 309 1075 q 298 1136 298 1112 q 303 1177 298 1159 q 324 1206 309 1196 q 372 1217 340 1217 q 417 1207 401 1217 q 439 1179 433 1197 q 445 1136 445 1160 q 439 1095 445 1114 q 418 1066 434 1076 q 372 1055 403 1055 z "},"ı":{"ha":330,"x_min":79,"x_max":226,"o":"m 226 0 l 79 0 l 79 1000 l 226 1000 l 226 0 z "},"ˆ":{"ha":408,"x_min":34,"x_max":374,"o":"m 374 1055 l 298 1055 l 204 1130 l 111 1055 l 34 1055 l 165 1240 l 243 1240 l 374 1055 z "},"ˇ":{"ha":408,"x_min":34,"x_max":374,"o":"m 374 1240 l 243 1055 l 165 1055 l 34 1240 l 111 1240 l 204 1164 l 298 1240 l 374 1240 z "},"ˉ":{"ha":332,"x_min":34,"x_max":298,"o":"m 298 1092 l 34 1092 l 34 1202 l 298 1202 l 298 1092 z "},"˘":{"ha":409,"x_min":34,"x_max":375,"o":"m 205 1047 q 85 1102 132 1047 q 34 1202 48 1146 l 111 1202 q 148 1159 123 1179 q 205 1139 172 1139 q 261 1159 237 1139 q 298 1202 286 1179 l 375 1202 q 324 1102 361 1146 q 205 1047 277 1047 z "},"˙":{"ha":216,"x_min":34,"x_max":182,"o":"m 108 1055 q 62 1065 78 1055 q 40 1093 46 1075 q 34 1136 34 1112 q 39 1177 34 1159 q 61 1206 45 1196 q 108 1217 77 1217 q 154 1207 138 1217 q 176 1179 170 1197 q 182 1136 182 1160 q 176 1095 182 1114 q 155 1066 171 1076 q 108 1055 140 1055 z "},"˚":{"ha":290,"x_min":34,"x_max":256,"o":"m 145 1084 q 176 1097 163 1084 q 189 1128 189 1110 q 176 1160 189 1147 q 145 1173 163 1173 q 114 1160 127 1173 q 100 1128 100 1147 q 114 1097 100 1110 q 145 1084 127 1084 m 145 1017 q 66 1050 99 1017 q 34 1128 34 1082 q 66 1207 34 1175 q 145 1240 99 1240 q 224 1207 191 1240 q 256 1128 256 1175 q 224 1050 256 1082 q 145 1017 191 1017 z "},"˛":{"ha":243,"x_min":34,"x_max":210,"o":"m 210 -240 q 100 -223 146 -240 q 34 -143 34 -199 q 48 -95 34 -119 q 85 -48 62 -72 q 136 0 108 -24 l 210 0 q 168 -57 185 -22 q 150 -129 150 -92 q 180 -181 150 -168 q 210 -191 189 -185 l 210 -240 z "},"˜":{"ha":409,"x_min":34,"x_max":375,"o":"m 265 1055 q 222 1067 240 1056 q 189 1093 203 1079 q 164 1113 176 1105 q 138 1122 152 1122 q 115 1105 124 1122 q 106 1057 106 1088 l 34 1057 q 62 1162 34 1116 q 144 1210 90 1208 q 187 1198 169 1209 q 220 1172 205 1186 q 244 1152 233 1160 q 271 1143 256 1143 q 294 1160 285 1143 q 303 1208 303 1177 l 375 1208 q 347 1103 375 1149 q 265 1055 319 1057 z "},"˝":{"ha":694,"x_min":-71,"x_max":347,"o":"m -71 1055 l -16 1240 l 138 1240 l 6 1055 l -71 1055 m 138 1055 l 193 1240 l 347 1240 l 215 1055 l 138 1055 z "},"–":{"ha":779,"x_min":20,"x_max":758,"o":"m 20 410 l 20 552 l 758 552 l 758 410 l 20 410 z "},"—":{"ha":1516,"x_min":20,"x_max":1496,"o":"m 20 410 l 20 552 l 1496 552 l 1496 410 l 20 410 z "},"‘":{"ha":224,"x_min":7,"x_max":191,"o":"m 99 1017 l 182 1017 q 122 838 122 886 q 177 804 163 831 q 191 737 191 778 q 184 686 191 709 q 158 649 178 663 q 99 636 138 636 q 41 649 61 636 q 14 684 22 661 q 7 737 7 707 q 99 1017 7 860 z "},"’":{"ha":224,"x_min":7,"x_max":191,"o":"m 99 636 l 16 636 q 76 815 76 766 q 21 848 35 821 q 7 915 7 874 q 14 966 7 943 q 40 1003 20 989 q 99 1017 60 1017 q 157 1004 137 1017 q 184 969 176 991 q 191 915 191 946 q 99 636 191 792 z "},"‚":{"ha":224,"x_min":7,"x_max":191,"o":"m 99 -195 l 16 -195 q 76 -16 76 -64 q 21 17 35 -9 q 7 85 7 43 q 14 136 7 113 q 40 172 20 159 q 99 186 60 186 q 157 173 137 186 q 184 138 176 161 q 191 85 191 115 q 99 -195 191 -39 z "},"“":{"ha":482,"x_min":7,"x_max":450,"o":"m 99 1017 l 182 1017 q 122 838 122 886 q 177 804 163 831 q 191 737 191 778 q 184 686 191 709 q 158 649 178 663 q 99 636 138 636 q 41 649 61 636 q 14 684 22 661 q 7 737 7 707 q 99 1017 7 860 m 357 1017 l 440 1017 q 380 838 380 886 q 435 804 421 831 q 450 737 450 778 q 443 686 450 709 q 416 649 436 663 q 357 636 396 636 q 300 649 319 636 q 273 684 280 661 q 265 737 265 707 q 357 1017 265 860 z "},"”":{"ha":482,"x_min":7,"x_max":450,"o":"m 99 636 l 16 636 q 76 815 76 766 q 21 848 35 821 q 7 915 7 874 q 14 966 7 943 q 40 1003 20 989 q 99 1017 60 1017 q 157 1004 137 1017 q 184 969 176 991 q 191 915 191 946 q 99 636 191 792 m 357 636 l 275 636 q 334 815 334 766 q 279 848 294 821 q 265 915 265 874 q 272 966 265 943 q 298 1003 279 989 q 357 1017 318 1017 q 415 1004 395 1017 q 442 969 435 991 q 450 915 450 946 q 357 636 450 792 z "},"„":{"ha":482,"x_min":7,"x_max":450,"o":"m 99 -191 l 16 -191 q 76 -11 76 -60 q 21 22 35 -5 q 7 89 7 48 q 14 140 7 117 q 40 177 20 163 q 99 191 60 191 q 157 178 137 191 q 184 142 176 165 q 191 89 191 119 q 99 -191 191 -34 m 357 -191 l 275 -191 q 334 -11 334 -60 q 279 22 294 -5 q 265 89 265 48 q 272 140 265 117 q 298 177 279 163 q 357 191 318 191 q 415 178 395 191 q 442 142 435 165 q 450 89 450 119 q 357 -191 450 -34 z "},"†":{"ha":511,"x_min":34,"x_max":477,"o":"m 329 710 l 329 0 l 182 0 l 182 710 l 34 710 l 34 852 l 182 852 l 182 1000 l 329 1000 l 329 852 l 477 852 l 477 710 l 329 710 z "},"‡":{"ha":511,"x_min":34,"x_max":477,"o":"m 329 852 l 477 852 l 477 710 l 329 710 l 329 290 l 477 290 l 477 147 l 329 147 l 329 0 l 182 0 l 182 147 l 34 147 l 34 290 l 182 290 l 182 710 l 34 710 l 34 852 l 182 852 l 182 1000 l 329 1000 l 329 852 z "},"•":{"ha":473,"x_min":34,"x_max":439,"o":"m 237 278 q 93 338 153 278 q 34 481 34 397 q 93 625 34 566 q 237 684 153 684 q 380 625 321 684 q 439 481 439 566 q 380 338 439 397 q 237 278 321 278 z "},"…":{"ha":1389,"x_min":12,"x_max":1123,"o":"m 104 -17 q 47 -4 67 -17 q 20 31 27 8 q 12 85 12 54 q 19 136 12 113 q 46 172 26 159 q 104 186 66 186 q 162 173 142 186 q 189 138 182 161 q 197 85 197 115 q 190 33 197 56 q 163 -3 183 10 q 104 -17 144 -17 m 568 -17 q 510 -4 530 -17 q 483 31 490 8 q 475 85 475 54 q 482 136 475 113 q 509 172 489 159 q 568 186 529 186 q 625 173 606 186 q 652 138 645 161 q 660 85 660 115 q 653 33 660 56 q 627 -3 646 10 q 568 -17 607 -17 m 1031 -17 q 974 -4 994 -17 q 946 31 954 8 q 939 85 939 54 q 945 136 939 113 q 972 172 952 159 q 1031 186 992 186 q 1088 173 1069 186 q 1116 138 1108 161 q 1123 85 1123 115 q 1116 33 1123 56 q 1090 -3 1109 10 q 1031 -17 1070 -17 z "},"‹":{"ha":359,"x_min":34,"x_max":325,"o":"m 190 258 l 34 481 l 190 705 l 325 705 l 169 481 l 325 258 l 190 258 z "},"›":{"ha":359,"x_min":34,"x_max":325,"o":"m 169 258 l 34 258 l 190 481 l 34 705 l 169 705 l 325 481 l 169 258 z "},"⁄":{"ha":147,"x_min":-203,"x_max":351,"o":"m -94 0 l -203 0 l 241 1000 l 351 1000 l -94 0 z "},"₤":{"ha":603,"x_min":34,"x_max":541,"o":"m 106 555 q 90 770 90 692 q 150 950 90 884 q 315 1017 214 1017 q 479 951 416 1017 q 541 770 541 884 l 541 690 l 393 690 l 393 772 q 387 826 393 804 q 315 874 374 874 q 266 862 283 874 q 243 826 250 849 q 237 772 237 804 q 253 596 237 715 q 258 555 256 575 l 467 555 l 467 463 l 268 463 q 273 370 272 413 l 467 370 l 467 278 l 268 278 q 258 238 264 259 q 204 142 241 182 l 541 142 l 541 0 l 34 0 l 34 142 q 91 183 71 153 q 119 254 111 214 q 123 278 121 267 l 34 278 l 34 370 l 125 370 q 117 463 123 410 l 34 463 l 34 555 l 106 555 z "},"€":{"ha":596,"x_min":0,"x_max":534,"o":"m 88 638 l 88 770 q 149 951 88 884 q 314 1017 213 1017 q 479 950 415 1017 q 524 866 513 912 q 534 770 534 820 l 534 690 l 392 690 l 392 772 q 386 826 392 804 q 314 874 372 874 q 265 862 282 874 q 242 826 248 849 q 236 772 236 804 l 236 638 l 392 638 l 392 546 l 236 546 l 236 454 l 392 454 l 392 361 l 236 361 l 236 227 q 242 173 236 196 q 265 138 248 151 q 314 125 282 125 q 362 138 346 125 q 386 173 379 151 q 392 227 392 196 l 392 309 l 534 309 l 534 229 q 510 103 534 159 q 437 15 486 47 q 314 -17 389 -17 q 149 49 213 -17 q 88 229 88 115 l 88 361 l 0 361 l 0 454 l 88 454 l 88 546 l 0 546 l 0 638 l 88 638 z "},"№":{"ha":1187,"x_min":79,"x_max":1130,"o":"m 558 0 l 420 0 l 227 567 l 227 0 l 79 0 l 79 1000 l 217 1000 l 411 432 l 411 1000 l 558 1000 l 558 0 m 1121 0 l 687 0 l 687 142 l 1121 142 l 1121 0 m 904 237 q 741 303 803 237 q 678 484 678 370 l 678 770 q 741 950 678 884 q 904 1017 803 1017 q 1067 950 1005 1017 q 1130 770 1130 884 l 1130 484 q 1067 303 1130 370 q 904 237 1005 237 m 904 379 q 952 392 936 379 q 976 428 969 405 q 982 481 982 450 l 982 772 q 976 826 982 804 q 952 862 969 849 q 904 874 936 874 q 855 862 872 874 q 832 826 838 849 q 826 772 826 804 l 826 481 q 832 428 826 450 q 855 392 838 405 q 904 379 872 379 z "},"™":{"ha":654,"x_min":30,"x_max":576,"o":"m 171 943 l 171 600 l 104 600 l 104 943 l 30 943 l 30 1000 l 245 1000 l 245 943 l 171 943 m 425 743 l 513 1000 l 576 1000 l 576 600 l 513 600 l 513 829 l 439 600 l 410 600 l 336 829 l 336 600 l 273 600 l 273 1000 l 336 1000 l 425 743 z "},"−":{"ha":450,"x_min":-15,"x_max":432,"o":"m 432 536 l 432 426 l -15 426 l -15 536 l 432 536 z "},"≈":{"ha":595,"x_min":34,"x_max":561,"o":"m 391 500 q 324 515 352 500 q 273 548 296 530 q 235 573 254 562 q 195 583 216 583 q 159 563 173 583 q 144 502 144 542 l 34 502 q 77 633 34 576 q 203 694 120 691 q 270 679 242 693 q 321 646 298 664 q 359 621 340 632 q 399 610 378 610 q 436 631 422 610 q 450 692 450 652 l 561 692 q 518 561 561 618 q 391 500 475 503 m 391 306 q 324 321 352 307 q 273 353 296 336 q 235 379 254 368 q 195 389 216 389 q 159 369 173 389 q 144 307 144 348 l 34 307 q 77 439 34 381 q 203 500 120 497 q 270 485 242 499 q 321 452 298 470 q 359 427 340 437 q 399 416 378 416 q 436 437 422 416 q 450 498 450 458 l 561 498 q 518 366 561 424 q 391 306 475 309 z "},"≤":{"ha":490,"x_min":0,"x_max":447,"o":"m 447 166 l 0 334 l 0 445 l 447 613 l 447 494 l 168 389 l 447 284 l 447 166 m 447 111 l 447 0 l 0 0 l 0 111 l 447 111 z "},"≥":{"ha":490,"x_min":0,"x_max":447,"o":"m 0 166 l 0 284 l 280 389 l 0 494 l 0 613 l 447 445 l 447 334 l 0 166 m 447 111 l 447 0 l 0 0 l 0 111 l 447 111 z "},"¹":{"ha":408,"x_min":62,"x_max":361,"o":"m 361 372 l 62 372 l 62 485 l 146 485 l 146 879 l 62 879 l 62 975 l 210 1000 l 277 1000 l 277 485 l 361 485 l 361 372 z "},"²":{"ha":409,"x_min":41,"x_max":370,"o":"m 370 380 l 41 380 l 41 515 q 123 682 41 602 q 164 719 143 701 q 204 758 184 738 q 239 823 239 792 l 239 857 q 235 885 239 873 q 205 904 230 904 q 186 900 191 904 q 172 857 172 891 l 172 793 l 41 793 l 41 855 q 86 972 41 928 q 205 1017 132 1017 q 325 972 280 1017 q 370 855 370 928 l 370 821 q 311 690 370 752 q 258 640 286 664 q 216 599 235 620 q 172 514 172 555 l 172 492 l 239 492 l 239 592 l 370 592 l 370 380 z "},"³":{"ha":409,"x_min":39,"x_max":368,"o":"m 203 369 q 84 413 129 369 q 39 530 39 458 l 39 592 l 170 592 l 170 529 q 182 487 170 494 q 203 481 189 481 q 223 486 217 481 q 233 501 230 490 q 236 529 236 512 l 236 589 q 233 617 236 606 q 223 632 230 628 q 203 637 217 637 l 138 637 l 138 749 l 203 749 q 221 753 216 749 q 230 768 227 758 q 233 796 233 779 l 233 857 q 230 885 233 873 q 221 900 227 896 q 203 904 216 904 q 176 885 181 904 q 173 857 173 873 l 173 793 l 41 793 l 41 856 q 90 976 41 931 q 203 1017 133 1017 q 317 976 273 1017 q 365 856 365 931 l 365 797 q 326 694 365 717 q 368 588 368 671 l 368 530 q 322 413 368 458 q 203 369 277 369 z "},"‰":{"ha":1080,"x_min":34,"x_max":1039,"o":"m 192 632 q 78 679 121 632 q 34 804 34 725 l 34 844 q 78 970 34 924 q 192 1017 121 1017 q 307 970 263 1017 q 350 844 350 924 l 350 804 q 307 679 350 725 q 192 632 263 632 m 516 -17 q 402 30 446 -17 q 358 155 358 76 l 358 195 q 402 321 358 275 q 516 368 446 368 q 631 321 587 368 q 674 195 674 275 l 674 155 q 631 30 674 76 q 516 -17 587 -17 m 516 83 q 560 102 549 83 q 571 153 571 121 l 571 197 q 560 249 571 229 q 516 268 549 268 q 472 249 483 268 q 461 197 461 229 l 461 153 q 472 102 461 121 q 516 83 483 83 m 186 0 l 77 0 l 522 1000 l 631 1000 l 186 0 m 192 732 q 236 751 225 732 q 247 802 247 770 l 247 846 q 236 898 247 878 q 192 917 225 917 q 148 898 159 917 q 137 846 137 878 l 137 802 q 148 751 137 770 q 192 732 159 732 m 881 -17 q 767 30 810 -17 q 723 155 723 76 l 723 195 q 767 321 723 275 q 881 368 810 368 q 996 321 952 368 q 1039 195 1039 275 l 1039 155 q 996 30 1039 76 q 881 -17 952 -17 m 881 83 q 925 102 914 83 q 936 153 936 121 l 936 197 q 925 249 936 229 q 881 268 914 268 q 837 249 848 268 q 826 197 826 229 l 826 153 q 837 102 826 121 q 881 83 848 83 z "},"ȷ":{"ha":378,"x_min":43,"x_max":283,"o":"m 43 857 l 43 1000 l 283 1000 l 283 245 q 217 53 283 122 q 43 -17 151 -17 l 43 125 q 101 140 81 125 q 128 182 121 155 q 136 245 136 209 l 136 857 l 43 857 z "},"ʻ":{"ha":168,"x_min":7,"x_max":136,"o":"m 71 1314 l 130 1314 q 87 1188 87 1222 q 126 1165 116 1183 q 136 1118 136 1147 q 131 1082 136 1098 q 112 1057 126 1066 q 71 1047 98 1047 q 31 1056 45 1047 q 12 1081 17 1065 q 7 1118 7 1097 q 71 1314 7 1204 z "},"ʼ":{"ha":168,"x_min":7,"x_max":136,"o":"m 71 1047 l 14 1047 q 55 1173 55 1139 q 17 1196 26 1177 q 7 1242 7 1214 q 12 1279 7 1263 q 30 1304 16 1295 q 71 1314 44 1314 q 112 1305 98 1314 q 131 1280 125 1296 q 136 1242 136 1264 q 71 1047 136 1156 z "},"ˊ":{"ha":277,"x_min":34,"x_max":243,"o":"m 34 1055 l 89 1240 l 243 1240 l 111 1055 l 34 1055 z "},"ˋ":{"ha":277,"x_min":34,"x_max":243,"o":"m 243 1055 l 165 1055 l 34 1240 l 187 1240 l 243 1055 z "},"ˍ":{"ha":410,"x_min":20,"x_max":389,"o":"m 389 -210 l 20 -210 l 20 -68 l 389 -68 l 389 -210 z "},"˷":{"ha":409,"x_min":34,"x_max":375,"o":"m 265 -223 q 222 -211 240 -222 q 189 -184 203 -199 q 164 -164 176 -173 q 138 -156 152 -156 q 115 -173 124 -156 q 106 -221 106 -189 l 34 -221 q 62 -116 34 -162 q 144 -68 90 -70 q 187 -80 169 -68 q 220 -106 205 -92 q 244 -126 232 -117 q 271 -134 256 -134 q 294 -118 285 -134 q 303 -69 303 -101 l 375 -69 q 347 -174 375 -128 q 265 -223 319 -220 z "},"̀":{"ha":0,"x_min":-475,"x_max":-266,"o":"m -266 1055 l -342 1055 l -475 1240 l -321 1240 l -266 1055 z "},"́":{"ha":0,"x_min":-454,"x_max":-245,"o":"m -454 1055 l -399 1240 l -245 1240 l -377 1055 l -454 1055 z "},"̂":{"ha":0,"x_min":-536,"x_max":-195,"o":"m -195 1055 l -272 1055 l -366 1130 l -458 1055 l -536 1055 l -404 1240 l -327 1240 l -195 1055 z "},"̃":{"ha":0,"x_min":-515,"x_max":-174,"o":"m -284 1055 q -328 1067 -309 1056 q -361 1093 -346 1079 q -385 1113 -373 1105 q -411 1122 -397 1122 q -434 1105 -425 1122 q -444 1057 -444 1088 l -515 1057 q -488 1162 -515 1116 q -406 1210 -460 1208 q -362 1198 -380 1209 q -330 1172 -345 1186 q -305 1152 -317 1160 q -279 1143 -293 1143 q -255 1160 -264 1143 q -246 1208 -246 1177 l -174 1208 q -202 1103 -174 1149 q -284 1055 -230 1057 z "},"̄":{"ha":0,"x_min":-502,"x_max":-238,"o":"m -238 1092 l -502 1092 l -502 1202 l -238 1202 l -238 1092 z "},"̅":{"ha":0,"x_min":480,"x_max":960,"o":"m 960 1110 l 480 1110 l 480 1221 l 960 1221 l 960 1110 z "},"̆":{"ha":0,"x_min":-515,"x_max":-174,"o":"m -345 1047 q -464 1102 -417 1047 q -515 1202 -502 1146 l -438 1202 q -401 1159 -426 1179 q -345 1139 -377 1139 q -288 1159 -313 1139 q -252 1202 -264 1179 l -174 1202 q -226 1102 -189 1146 q -345 1047 -273 1047 z "},"̇":{"ha":0,"x_min":-414,"x_max":-266,"o":"m -340 1055 q -386 1065 -370 1055 q -408 1093 -401 1075 q -414 1136 -414 1112 q -408 1177 -414 1159 q -387 1206 -403 1196 q -340 1217 -371 1217 q -294 1207 -310 1217 q -272 1179 -278 1197 q -266 1136 -266 1160 q -271 1095 -266 1114 q -293 1066 -277 1076 q -340 1055 -309 1055 z "},"̈":{"ha":0,"x_min":-522,"x_max":-181,"o":"m -448 1055 q -494 1065 -478 1055 q -516 1093 -510 1075 q -522 1136 -522 1112 q -517 1177 -522 1159 q -495 1206 -511 1196 q -448 1217 -479 1217 q -402 1207 -418 1217 q -380 1179 -387 1197 q -374 1136 -374 1160 q -380 1095 -374 1114 q -401 1066 -385 1076 q -448 1055 -417 1055 m -254 1055 q -300 1065 -284 1055 q -322 1093 -317 1075 q -328 1136 -328 1112 q -323 1177 -328 1159 q -302 1206 -317 1196 q -254 1217 -286 1217 q -209 1207 -224 1217 q -187 1179 -193 1197 q -181 1136 -181 1160 q -186 1095 -181 1114 q -207 1066 -191 1076 q -254 1055 -223 1055 z "},"̐":{"ha":0,"x_min":-724,"x_max":-382,"o":"m -553 1047 q -672 1102 -625 1047 q -724 1202 -710 1146 l -646 1202 q -610 1159 -634 1179 q -553 1139 -585 1139 q -496 1159 -521 1139 q -460 1202 -472 1179 l -382 1202 q -434 1102 -397 1146 q -553 1047 -481 1047 m -553 1202 q -599 1213 -583 1202 q -621 1241 -615 1223 q -627 1284 -627 1259 q -621 1325 -627 1306 q -600 1354 -616 1343 q -553 1365 -585 1365 q -507 1355 -523 1365 q -485 1326 -491 1345 q -479 1284 -479 1308 q -485 1242 -479 1261 q -506 1213 -490 1224 q -553 1202 -522 1202 z "},"̕":{"ha":224,"x_min":34,"x_max":218,"o":"m 126 619 l 43 619 q 103 798 103 749 q 48 831 62 804 q 34 898 34 857 q 41 949 34 926 q 67 986 47 972 q 126 1000 87 1000 q 184 987 164 1000 q 211 952 203 975 q 218 898 218 929 q 126 619 218 775 z "},"̣":{"ha":0,"x_min":-380,"x_max":-223,"o":"m -301 -240 q -350 -230 -333 -240 q -373 -200 -367 -219 q -380 -154 -380 -180 q -374 -111 -380 -130 q -351 -79 -368 -91 q -301 -68 -334 -68 q -252 -78 -269 -68 q -229 -109 -235 -89 q -223 -154 -223 -128 q -229 -198 -223 -178 q -251 -229 -234 -218 q -301 -240 -268 -240 z "},"̤":{"ha":0,"x_min":-475,"x_max":-134,"o":"m -401 -230 q -447 -220 -431 -230 q -469 -192 -463 -210 q -475 -149 -475 -174 q -469 -108 -475 -126 q -448 -79 -464 -90 q -401 -68 -432 -68 q -355 -78 -371 -68 q -333 -106 -339 -88 q -327 -149 -327 -124 q -332 -190 -327 -172 q -354 -219 -338 -209 q -401 -230 -370 -230 m -207 -230 q -253 -220 -237 -230 q -275 -192 -269 -210 q -281 -149 -281 -174 q -275 -108 -281 -126 q -254 -79 -270 -90 q -207 -68 -239 -68 q -161 -78 -177 -68 q -139 -106 -145 -88 q -134 -149 -134 -124 q -139 -190 -134 -172 q -160 -219 -144 -209 q -207 -230 -176 -230 z "},"̥":{"ha":0,"x_min":-407,"x_max":-184,"o":"m -296 -173 q -264 -160 -277 -173 q -252 -129 -252 -147 q -264 -98 -252 -111 q -296 -85 -277 -85 q -327 -98 -314 -85 q -340 -129 -340 -111 q -327 -160 -340 -147 q -296 -173 -314 -173 m -296 -240 q -374 -208 -342 -240 q -407 -129 -407 -175 q -374 -50 -407 -83 q -296 -18 -342 -18 q -217 -50 -250 -18 q -184 -129 -184 -83 q -217 -208 -184 -175 q -296 -240 -250 -240 z "},"̦":{"ha":0,"x_min":-359,"x_max":-231,"o":"m -295 -334 l -353 -334 q -311 -209 -311 -243 q -350 -186 -340 -204 q -359 -139 -359 -168 q -355 -103 -359 -119 q -336 -77 -350 -87 q -295 -68 -322 -68 q -255 -77 -269 -68 q -236 -101 -241 -85 q -231 -139 -231 -117 q -295 -334 -231 -225 z "},"Ā":{"ha":581,"x_min":16,"x_max":551,"o":"m 551 0 l 406 0 l 377 205 l 191 205 l 161 0 l 16 0 l 175 1000 l 393 1000 l 551 0 m 357 347 l 286 821 l 282 821 l 210 347 l 357 347 m 416 1092 l 152 1092 l 152 1202 l 416 1202 l 416 1092 z "},"ā":{"ha":581,"x_min":16,"x_max":551,"o":"m 551 0 l 406 0 l 377 205 l 191 205 l 161 0 l 16 0 l 175 1000 l 393 1000 l 551 0 m 357 347 l 286 821 l 282 821 l 210 347 l 357 347 m 416 1092 l 152 1092 l 152 1202 l 416 1202 l 416 1092 z "},"Ă":{"ha":581,"x_min":16,"x_max":551,"o":"m 551 0 l 406 0 l 377 205 l 191 205 l 161 0 l 16 0 l 175 1000 l 393 1000 l 551 0 m 357 347 l 286 821 l 282 821 l 210 347 l 357 347 m 284 1047 q 165 1102 212 1047 q 113 1202 127 1146 l 191 1202 q 227 1159 203 1179 q 284 1139 252 1139 q 341 1159 317 1139 q 377 1202 365 1179 l 454 1202 q 404 1102 441 1146 q 284 1047 356 1047 z "},"ă":{"ha":581,"x_min":16,"x_max":551,"o":"m 551 0 l 406 0 l 377 205 l 191 205 l 161 0 l 16 0 l 175 1000 l 393 1000 l 551 0 m 357 347 l 286 821 l 282 821 l 210 347 l 357 347 m 284 1047 q 165 1102 212 1047 q 113 1202 127 1146 l 191 1202 q 227 1159 203 1179 q 284 1139 252 1139 q 341 1159 317 1139 q 377 1202 365 1179 l 454 1202 q 404 1102 441 1146 q 284 1047 356 1047 z "},"Ą":{"ha":581,"x_min":16,"x_max":551,"o":"m 357 347 l 286 821 l 282 821 l 210 347 l 357 347 m 551 -240 q 441 -223 489 -240 q 376 -143 376 -199 q 390 -95 376 -119 q 427 -48 404 -72 q 477 0 450 -24 l 406 0 l 377 205 l 191 205 l 161 0 l 16 0 l 175 1000 l 393 1000 l 551 0 q 509 -57 527 -22 q 492 -129 492 -92 q 522 -181 492 -168 q 551 -191 532 -185 l 551 -240 z "},"ą":{"ha":581,"x_min":16,"x_max":551,"o":"m 357 347 l 286 821 l 282 821 l 210 347 l 357 347 m 551 -240 q 441 -223 489 -240 q 376 -143 376 -199 q 390 -95 376 -119 q 427 -48 404 -72 q 477 0 450 -24 l 406 0 l 377 205 l 191 205 l 161 0 l 16 0 l 175 1000 l 393 1000 l 551 0 q 509 -57 527 -22 q 492 -129 492 -92 q 522 -181 492 -168 q 551 -191 532 -185 l 551 -240 z "},"Ć":{"ha":597,"x_min":61,"x_max":541,"o":"m 301 -17 q 127 53 193 -17 q 61 245 61 122 l 61 754 q 127 947 61 878 q 301 1017 193 1017 q 475 947 409 1017 q 541 754 541 878 l 541 690 l 393 690 l 393 754 q 359 859 393 833 q 301 874 338 874 q 244 859 264 874 q 216 818 224 844 q 209 754 209 791 l 209 245 q 216 182 209 209 q 244 140 224 155 q 301 125 264 125 q 386 182 370 125 q 393 245 393 209 l 393 309 l 541 309 l 541 245 q 475 53 541 122 q 301 -17 409 -17 m 231 1055 l 286 1240 l 440 1240 l 308 1055 l 231 1055 z "},"ć":{"ha":597,"x_min":61,"x_max":541,"o":"m 301 -17 q 127 53 193 -17 q 61 245 61 122 l 61 754 q 127 947 61 878 q 301 1017 193 1017 q 475 947 409 1017 q 541 754 541 878 l 541 690 l 393 690 l 393 754 q 359 859 393 833 q 301 874 338 874 q 244 859 264 874 q 216 818 224 844 q 209 754 209 791 l 209 245 q 216 182 209 209 q 244 140 224 155 q 301 125 264 125 q 386 182 370 125 q 393 245 393 209 l 393 309 l 541 309 l 541 245 q 475 53 541 122 q 301 -17 409 -17 m 231 1055 l 286 1240 l 440 1240 l 308 1055 l 231 1055 z "},"Ĉ":{"ha":597,"x_min":61,"x_max":541,"o":"m 301 -17 q 127 53 193 -17 q 61 245 61 122 l 61 754 q 127 947 61 878 q 301 1017 193 1017 q 475 947 409 1017 q 541 754 541 878 l 541 690 l 393 690 l 393 754 q 359 859 393 833 q 301 874 338 874 q 244 859 264 874 q 216 818 224 844 q 209 754 209 791 l 209 245 q 216 182 209 209 q 244 140 224 155 q 301 125 264 125 q 386 182 370 125 q 393 245 393 209 l 393 309 l 541 309 l 541 245 q 475 53 541 122 q 301 -17 409 -17 m 471 1055 l 395 1055 l 301 1130 l 208 1055 l 131 1055 l 262 1240 l 340 1240 l 471 1055 z "},"ĉ":{"ha":597,"x_min":61,"x_max":541,"o":"m 301 -17 q 127 53 193 -17 q 61 245 61 122 l 61 754 q 127 947 61 878 q 301 1017 193 1017 q 475 947 409 1017 q 541 754 541 878 l 541 690 l 393 690 l 393 754 q 359 859 393 833 q 301 874 338 874 q 244 859 264 874 q 216 818 224 844 q 209 754 209 791 l 209 245 q 216 182 209 209 q 244 140 224 155 q 301 125 264 125 q 386 182 370 125 q 393 245 393 209 l 393 309 l 541 309 l 541 245 q 475 53 541 122 q 301 -17 409 -17 m 471 1055 l 395 1055 l 301 1130 l 208 1055 l 131 1055 l 262 1240 l 340 1240 l 471 1055 z "},"Ċ":{"ha":597,"x_min":61,"x_max":541,"o":"m 301 -17 q 127 53 193 -17 q 61 245 61 122 l 61 754 q 127 947 61 878 q 301 1017 193 1017 q 475 947 409 1017 q 541 754 541 878 l 541 690 l 393 690 l 393 754 q 359 859 393 833 q 301 874 338 874 q 244 859 264 874 q 216 818 224 844 q 209 754 209 791 l 209 245 q 216 182 209 209 q 244 140 224 155 q 301 125 264 125 q 386 182 370 125 q 393 245 393 209 l 393 309 l 541 309 l 541 245 q 475 53 541 122 q 301 -17 409 -17 m 301 1055 q 255 1065 271 1055 q 233 1093 239 1075 q 227 1136 227 1112 q 233 1177 227 1159 q 254 1206 238 1196 q 301 1217 270 1217 q 348 1207 332 1217 q 369 1179 363 1197 q 375 1136 375 1160 q 370 1095 375 1114 q 349 1066 364 1076 q 301 1055 333 1055 z "},"ċ":{"ha":597,"x_min":61,"x_max":541,"o":"m 301 -17 q 127 53 193 -17 q 61 245 61 122 l 61 754 q 127 947 61 878 q 301 1017 193 1017 q 475 947 409 1017 q 541 754 541 878 l 541 690 l 393 690 l 393 754 q 359 859 393 833 q 301 874 338 874 q 244 859 264 874 q 216 818 224 844 q 209 754 209 791 l 209 245 q 216 182 209 209 q 244 140 224 155 q 301 125 264 125 q 386 182 370 125 q 393 245 393 209 l 393 309 l 541 309 l 541 245 q 475 53 541 122 q 301 -17 409 -17 m 301 1055 q 255 1065 271 1055 q 233 1093 239 1075 q 227 1136 227 1112 q 233 1177 227 1159 q 254 1206 238 1196 q 301 1217 270 1217 q 348 1207 332 1217 q 369 1179 363 1197 q 375 1136 375 1160 q 370 1095 375 1114 q 349 1066 364 1076 q 301 1055 333 1055 z "},"Č":{"ha":597,"x_min":61,"x_max":541,"o":"m 301 -17 q 127 53 193 -17 q 61 245 61 122 l 61 754 q 127 947 61 878 q 301 1017 193 1017 q 475 947 409 1017 q 541 754 541 878 l 541 690 l 393 690 l 393 754 q 359 859 393 833 q 301 874 338 874 q 244 859 264 874 q 216 818 224 844 q 209 754 209 791 l 209 245 q 216 182 209 209 q 244 140 224 155 q 301 125 264 125 q 386 182 370 125 q 393 245 393 209 l 393 309 l 541 309 l 541 245 q 475 53 541 122 q 301 -17 409 -17 m 471 1240 l 340 1055 l 262 1055 l 131 1240 l 208 1240 l 301 1164 l 395 1240 l 471 1240 z "},"č":{"ha":597,"x_min":61,"x_max":541,"o":"m 301 -17 q 127 53 193 -17 q 61 245 61 122 l 61 754 q 127 947 61 878 q 301 1017 193 1017 q 475 947 409 1017 q 541 754 541 878 l 541 690 l 393 690 l 393 754 q 359 859 393 833 q 301 874 338 874 q 244 859 264 874 q 216 818 224 844 q 209 754 209 791 l 209 245 q 216 182 209 209 q 244 140 224 155 q 301 125 264 125 q 386 182 370 125 q 393 245 393 209 l 393 309 l 541 309 l 541 245 q 475 53 541 122 q 301 -17 409 -17 m 471 1240 l 340 1055 l 262 1055 l 131 1240 l 208 1240 l 301 1164 l 395 1240 l 471 1240 z "},"Ď":{"ha":638,"x_min":79,"x_max":558,"o":"m 319 0 l 79 0 l 79 1000 l 319 1000 q 492 930 427 1000 q 558 738 558 861 l 558 262 q 492 70 558 139 q 319 0 427 0 m 319 142 q 376 157 356 142 q 404 198 396 172 q 411 262 411 225 l 411 738 q 404 801 411 774 q 376 843 396 828 q 319 857 356 857 l 227 857 l 227 142 l 319 142 m 488 1240 l 357 1055 l 279 1055 l 148 1240 l 224 1240 l 318 1164 l 412 1240 l 488 1240 z "},"ď":{"ha":862,"x_min":79,"x_max":857,"o":"m 319 0 l 79 0 l 79 1000 l 319 1000 q 492 930 427 1000 q 558 738 558 861 l 558 262 q 492 70 558 139 q 319 0 427 0 m 319 142 q 376 157 356 142 q 404 198 396 172 q 411 262 411 225 l 411 738 q 404 801 411 774 q 376 843 396 828 q 319 857 356 857 l 227 857 l 227 142 l 319 142 m 764 619 l 682 619 q 741 798 741 749 q 686 831 701 804 q 672 898 672 857 q 679 949 672 926 q 706 986 686 972 q 764 1000 726 1000 q 822 987 802 1000 q 849 952 842 975 q 857 898 857 929 q 764 619 857 775 z "},"Đ":{"ha":638,"x_min":32,"x_max":558,"o":"m 227 444 l 227 142 l 319 142 q 376 157 356 142 q 404 198 396 172 q 411 262 411 225 l 411 738 q 404 801 411 774 q 376 843 396 828 q 319 857 356 857 l 227 857 l 227 555 l 300 555 l 300 444 l 227 444 m 79 555 l 79 1000 l 319 1000 q 492 930 427 1000 q 558 738 558 861 l 558 262 q 492 70 558 139 q 319 0 427 0 l 79 0 l 79 444 l 32 444 l 32 555 l 79 555 z "},"đ":{"ha":638,"x_min":32,"x_max":558,"o":"m 227 444 l 227 142 l 319 142 q 376 157 356 142 q 404 198 396 172 q 411 262 411 225 l 411 738 q 404 801 411 774 q 376 843 396 828 q 319 857 356 857 l 227 857 l 227 555 l 300 555 l 300 444 l 227 444 m 79 555 l 79 1000 l 319 1000 q 492 930 427 1000 q 558 738 558 861 l 558 262 q 492 70 558 139 q 319 0 427 0 l 79 0 l 79 444 l 32 444 l 32 555 l 79 555 z "},"Ē":{"ha":547,"x_min":79,"x_max":485,"o":"m 485 0 l 79 0 l 79 1000 l 485 1000 l 485 857 l 227 857 l 227 552 l 466 552 l 466 410 l 227 410 l 227 142 l 485 142 l 485 0 m 414 1092 l 150 1092 l 150 1202 l 414 1202 l 414 1092 z "},"ē":{"ha":547,"x_min":79,"x_max":485,"o":"m 485 0 l 79 0 l 79 1000 l 485 1000 l 485 857 l 227 857 l 227 552 l 466 552 l 466 410 l 227 410 l 227 142 l 485 142 l 485 0 m 414 1092 l 150 1092 l 150 1202 l 414 1202 l 414 1092 z "},"Ĕ":{"ha":547,"x_min":79,"x_max":485,"o":"m 485 0 l 79 0 l 79 1000 l 485 1000 l 485 857 l 227 857 l 227 552 l 466 552 l 466 410 l 227 410 l 227 142 l 485 142 l 485 0 m 282 1047 q 163 1102 210 1047 q 111 1202 125 1146 l 189 1202 q 225 1159 201 1179 q 282 1139 250 1139 q 339 1159 315 1139 q 375 1202 363 1179 l 452 1202 q 401 1102 439 1146 q 282 1047 354 1047 z "},"ĕ":{"ha":547,"x_min":79,"x_max":485,"o":"m 485 0 l 79 0 l 79 1000 l 485 1000 l 485 857 l 227 857 l 227 552 l 466 552 l 466 410 l 227 410 l 227 142 l 485 142 l 485 0 m 282 1047 q 163 1102 210 1047 q 111 1202 125 1146 l 189 1202 q 225 1159 201 1179 q 282 1139 250 1139 q 339 1159 315 1139 q 375 1202 363 1179 l 452 1202 q 401 1102 439 1146 q 282 1047 354 1047 z "},"Ė":{"ha":547,"x_min":79,"x_max":485,"o":"m 485 0 l 79 0 l 79 1000 l 485 1000 l 485 857 l 227 857 l 227 552 l 466 552 l 466 410 l 227 410 l 227 142 l 485 142 l 485 0 m 281 1055 q 236 1065 252 1055 q 214 1093 220 1075 q 208 1136 208 1112 q 213 1177 208 1159 q 234 1206 218 1196 q 281 1217 250 1217 q 328 1207 312 1217 q 350 1179 344 1197 q 355 1136 355 1160 q 350 1095 355 1114 q 329 1066 345 1076 q 281 1055 313 1055 z "},"ė":{"ha":547,"x_min":79,"x_max":485,"o":"m 485 0 l 79 0 l 79 1000 l 485 1000 l 485 857 l 227 857 l 227 552 l 466 552 l 466 410 l 227 410 l 227 142 l 485 142 l 485 0 m 281 1055 q 236 1065 252 1055 q 214 1093 220 1075 q 208 1136 208 1112 q 213 1177 208 1159 q 234 1206 218 1196 q 281 1217 250 1217 q 328 1207 312 1217 q 350 1179 344 1197 q 355 1136 355 1160 q 350 1095 355 1114 q 329 1066 345 1076 q 281 1055 313 1055 z "},"Ę":{"ha":547,"x_min":79,"x_max":485,"o":"m 411 0 l 79 0 l 79 1000 l 485 1000 l 485 857 l 227 857 l 227 552 l 466 552 l 466 410 l 227 410 l 227 142 l 485 142 l 485 0 q 443 -57 460 -22 q 425 -129 425 -92 q 455 -181 425 -168 q 485 -191 465 -185 l 485 -240 q 375 -223 422 -240 q 310 -143 310 -199 q 324 -95 310 -119 q 360 -48 338 -72 q 411 0 383 -24 z "},"ę":{"ha":547,"x_min":79,"x_max":485,"o":"m 411 0 l 79 0 l 79 1000 l 485 1000 l 485 857 l 227 857 l 227 552 l 466 552 l 466 410 l 227 410 l 227 142 l 485 142 l 485 0 q 443 -57 460 -22 q 425 -129 425 -92 q 455 -181 425 -168 q 485 -191 465 -185 l 485 -240 q 375 -223 422 -240 q 310 -143 310 -199 q 324 -95 310 -119 q 360 -48 338 -72 q 411 0 383 -24 z "},"Ě":{"ha":547,"x_min":79,"x_max":485,"o":"m 485 0 l 79 0 l 79 1000 l 485 1000 l 485 857 l 227 857 l 227 552 l 466 552 l 466 410 l 227 410 l 227 142 l 485 142 l 485 0 m 452 1240 l 320 1055 l 243 1055 l 111 1240 l 188 1240 l 281 1164 l 375 1240 l 452 1240 z "},"ě":{"ha":547,"x_min":79,"x_max":485,"o":"m 485 0 l 79 0 l 79 1000 l 485 1000 l 485 857 l 227 857 l 227 552 l 466 552 l 466 410 l 227 410 l 227 142 l 485 142 l 485 0 m 452 1240 l 320 1055 l 243 1055 l 111 1240 l 188 1240 l 281 1164 l 375 1240 l 452 1240 z "},"Ĝ":{"ha":609,"x_min":61,"x_max":541,"o":"m 301 -17 q 127 52 193 -17 q 61 245 61 122 l 61 754 q 127 947 61 878 q 301 1017 193 1017 q 476 947 410 1017 q 541 754 541 878 l 541 690 l 393 690 l 393 754 q 359 859 393 833 q 301 874 339 874 q 244 859 264 874 q 216 818 224 844 q 209 754 209 791 l 209 245 q 216 182 209 209 q 244 140 224 155 q 301 125 264 125 q 386 182 370 125 q 393 245 393 209 l 393 410 l 301 410 l 301 552 l 541 552 l 541 245 q 476 52 541 122 q 301 -17 410 -17 m 471 1055 l 395 1055 l 301 1130 l 208 1055 l 131 1055 l 262 1240 l 340 1240 l 471 1055 z "},"ĝ":{"ha":609,"x_min":61,"x_max":541,"o":"m 301 -17 q 127 52 193 -17 q 61 245 61 122 l 61 754 q 127 947 61 878 q 301 1017 193 1017 q 476 947 410 1017 q 541 754 541 878 l 541 690 l 393 690 l 393 754 q 359 859 393 833 q 301 874 339 874 q 244 859 264 874 q 216 818 224 844 q 209 754 209 791 l 209 245 q 216 182 209 209 q 244 140 224 155 q 301 125 264 125 q 386 182 370 125 q 393 245 393 209 l 393 410 l 301 410 l 301 552 l 541 552 l 541 245 q 476 52 541 122 q 301 -17 410 -17 m 471 1055 l 395 1055 l 301 1130 l 208 1055 l 131 1055 l 262 1240 l 340 1240 l 471 1055 z "},"Ğ":{"ha":609,"x_min":61,"x_max":541,"o":"m 301 -17 q 127 52 193 -17 q 61 245 61 122 l 61 754 q 127 947 61 878 q 301 1017 193 1017 q 476 947 410 1017 q 541 754 541 878 l 541 690 l 393 690 l 393 754 q 359 859 393 833 q 301 874 339 874 q 244 859 264 874 q 216 818 224 844 q 209 754 209 791 l 209 245 q 216 182 209 209 q 244 140 224 155 q 301 125 264 125 q 386 182 370 125 q 393 245 393 209 l 393 410 l 301 410 l 301 552 l 541 552 l 541 245 q 476 52 541 122 q 301 -17 410 -17 m 301 1047 q 182 1102 229 1047 q 130 1202 144 1146 l 208 1202 q 244 1159 220 1179 q 301 1139 269 1139 q 358 1159 334 1139 q 394 1202 382 1179 l 471 1202 q 420 1102 458 1146 q 301 1047 373 1047 z "},"ğ":{"ha":609,"x_min":61,"x_max":541,"o":"m 301 -17 q 127 52 193 -17 q 61 245 61 122 l 61 754 q 127 947 61 878 q 301 1017 193 1017 q 476 947 410 1017 q 541 754 541 878 l 541 690 l 393 690 l 393 754 q 359 859 393 833 q 301 874 339 874 q 244 859 264 874 q 216 818 224 844 q 209 754 209 791 l 209 245 q 216 182 209 209 q 244 140 224 155 q 301 125 264 125 q 386 182 370 125 q 393 245 393 209 l 393 410 l 301 410 l 301 552 l 541 552 l 541 245 q 476 52 541 122 q 301 -17 410 -17 m 301 1047 q 182 1102 229 1047 q 130 1202 144 1146 l 208 1202 q 244 1159 220 1179 q 301 1139 269 1139 q 358 1159 334 1139 q 394 1202 382 1179 l 471 1202 q 420 1102 458 1146 q 301 1047 373 1047 z "},"Ġ":{"ha":609,"x_min":61,"x_max":541,"o":"m 301 -17 q 127 52 193 -17 q 61 245 61 122 l 61 754 q 127 947 61 878 q 301 1017 193 1017 q 476 947 410 1017 q 541 754 541 878 l 541 690 l 393 690 l 393 754 q 359 859 393 833 q 301 874 339 874 q 244 859 264 874 q 216 818 224 844 q 209 754 209 791 l 209 245 q 216 182 209 209 q 244 140 224 155 q 301 125 264 125 q 386 182 370 125 q 393 245 393 209 l 393 410 l 301 410 l 301 552 l 541 552 l 541 245 q 476 52 541 122 q 301 -17 410 -17 m 301 1055 q 255 1065 271 1055 q 233 1093 239 1075 q 227 1136 227 1112 q 233 1177 227 1159 q 254 1206 238 1196 q 301 1217 270 1217 q 348 1207 332 1217 q 369 1179 363 1197 q 375 1136 375 1160 q 370 1095 375 1114 q 349 1066 364 1076 q 301 1055 333 1055 z "},"ġ":{"ha":609,"x_min":61,"x_max":541,"o":"m 301 -17 q 127 52 193 -17 q 61 245 61 122 l 61 754 q 127 947 61 878 q 301 1017 193 1017 q 476 947 410 1017 q 541 754 541 878 l 541 690 l 393 690 l 393 754 q 359 859 393 833 q 301 874 339 874 q 244 859 264 874 q 216 818 224 844 q 209 754 209 791 l 209 245 q 216 182 209 209 q 244 140 224 155 q 301 125 264 125 q 386 182 370 125 q 393 245 393 209 l 393 410 l 301 410 l 301 552 l 541 552 l 541 245 q 476 52 541 122 q 301 -17 410 -17 m 301 1055 q 255 1065 271 1055 q 233 1093 239 1075 q 227 1136 227 1112 q 233 1177 227 1159 q 254 1206 238 1196 q 301 1217 270 1217 q 348 1207 332 1217 q 369 1179 363 1197 q 375 1136 375 1160 q 370 1095 375 1114 q 349 1066 364 1076 q 301 1055 333 1055 z "},"Ģ":{"ha":609,"x_min":61,"x_max":541,"o":"m 301 -17 q 127 52 193 -17 q 61 245 61 122 l 61 754 q 127 947 61 878 q 301 1017 193 1017 q 476 947 410 1017 q 541 754 541 878 l 541 690 l 393 690 l 393 754 q 359 859 393 833 q 301 874 339 874 q 244 859 264 874 q 216 818 224 844 q 209 754 209 791 l 209 245 q 216 182 209 209 q 244 140 224 155 q 301 125 264 125 q 386 182 370 125 q 393 245 393 209 l 393 410 l 301 410 l 301 552 l 541 552 l 541 245 q 476 52 541 122 q 301 -17 410 -17 m 301 -334 l 243 -334 q 285 -209 285 -243 q 247 -186 256 -204 q 237 -139 237 -168 q 241 -103 237 -119 q 260 -77 246 -87 q 301 -68 274 -68 q 341 -77 328 -68 q 360 -101 355 -85 q 366 -139 366 -117 q 301 -334 366 -225 z "},"ģ":{"ha":609,"x_min":61,"x_max":541,"o":"m 301 -17 q 127 52 193 -17 q 61 245 61 122 l 61 754 q 127 947 61 878 q 301 1017 193 1017 q 476 947 410 1017 q 541 754 541 878 l 541 690 l 393 690 l 393 754 q 359 859 393 833 q 301 874 339 874 q 244 859 264 874 q 216 818 224 844 q 209 754 209 791 l 209 245 q 216 182 209 209 q 244 140 224 155 q 301 125 264 125 q 386 182 370 125 q 393 245 393 209 l 393 410 l 301 410 l 301 552 l 541 552 l 541 245 q 476 52 541 122 q 301 -17 410 -17 m 301 1314 l 359 1314 q 317 1188 317 1222 q 356 1165 346 1183 q 366 1118 366 1147 q 361 1082 366 1098 q 342 1057 356 1066 q 301 1047 328 1047 q 261 1056 275 1047 q 242 1081 247 1065 q 237 1118 237 1097 q 301 1314 237 1204 z "},"Ĥ":{"ha":663,"x_min":79,"x_max":558,"o":"m 558 0 l 410 0 l 410 410 l 226 410 l 226 0 l 79 0 l 79 1000 l 226 1000 l 226 552 l 410 552 l 410 1000 l 558 1000 l 558 0 m 488 1055 l 412 1055 l 318 1130 l 224 1055 l 148 1055 l 279 1240 l 357 1240 l 488 1055 z "},"ĥ":{"ha":663,"x_min":79,"x_max":558,"o":"m 558 0 l 410 0 l 410 410 l 226 410 l 226 0 l 79 0 l 79 1000 l 226 1000 l 226 552 l 410 552 l 410 1000 l 558 1000 l 558 0 m 489 1055 l 412 1055 l 318 1130 l 225 1055 l 148 1055 l 280 1240 l 357 1240 l 489 1055 z "},"Ħ":{"ha":663,"x_min":31,"x_max":600,"o":"m 558 753 l 558 0 l 410 0 l 410 410 l 226 410 l 226 0 l 79 0 l 79 753 l 31 753 l 31 864 l 79 864 l 79 1000 l 226 1000 l 226 864 l 410 864 l 410 1000 l 558 1000 l 558 864 l 600 864 l 600 753 l 558 753 m 226 753 l 226 552 l 410 552 l 410 753 l 226 753 z "},"ħ":{"ha":663,"x_min":31,"x_max":600,"o":"m 558 753 l 558 0 l 410 0 l 410 410 l 226 410 l 226 0 l 79 0 l 79 753 l 31 753 l 31 864 l 79 864 l 79 1000 l 226 1000 l 226 864 l 410 864 l 410 1000 l 558 1000 l 558 864 l 600 864 l 600 753 l 558 753 m 226 753 l 226 552 l 410 552 l 410 753 l 226 753 z "},"Ĩ":{"ha":330,"x_min":-18,"x_max":323,"o":"m 226 0 l 79 0 l 79 1000 l 226 1000 l 226 0 m 213 1055 q 170 1067 188 1056 q 136 1093 151 1079 q 112 1113 124 1105 q 86 1122 100 1122 q 63 1105 72 1122 q 54 1057 54 1088 l -18 1057 q 9 1162 -18 1116 q 92 1210 37 1208 q 135 1198 117 1209 q 168 1172 153 1186 q 192 1152 180 1160 q 218 1143 204 1143 q 242 1160 233 1143 q 251 1208 251 1177 l 323 1208 q 295 1103 323 1149 q 213 1055 267 1057 z "},"ĩ":{"ha":330,"x_min":-18,"x_max":323,"o":"m 226 0 l 79 0 l 79 1000 l 226 1000 l 226 0 m 213 1055 q 170 1067 188 1056 q 136 1093 151 1079 q 112 1113 124 1105 q 86 1122 100 1122 q 63 1105 72 1122 q 54 1057 54 1088 l -18 1057 q 9 1162 -18 1116 q 92 1210 37 1208 q 135 1198 117 1209 q 168 1172 153 1186 q 192 1152 180 1160 q 218 1143 204 1143 q 242 1160 233 1143 q 251 1208 251 1177 l 323 1208 q 295 1103 323 1149 q 213 1055 267 1057 z "},"Ī":{"ha":330,"x_min":20,"x_max":284,"o":"m 226 0 l 79 0 l 79 1000 l 226 1000 l 226 0 m 284 1092 l 20 1092 l 20 1202 l 284 1202 l 284 1092 z "},"ī":{"ha":330,"x_min":20,"x_max":284,"o":"m 226 0 l 79 0 l 79 1000 l 226 1000 l 226 0 m 284 1092 l 20 1092 l 20 1202 l 284 1202 l 284 1092 z "},"Ĭ":{"ha":330,"x_min":-18,"x_max":323,"o":"m 226 0 l 79 0 l 79 1000 l 226 1000 l 226 0 m 153 1047 q 33 1102 80 1047 q -18 1202 -4 1146 l 59 1202 q 96 1159 71 1179 q 153 1139 120 1139 q 209 1159 185 1139 q 245 1202 233 1179 l 323 1202 q 272 1102 309 1146 q 153 1047 224 1047 z "},"ĭ":{"ha":330,"x_min":-18,"x_max":323,"o":"m 226 0 l 79 0 l 79 1000 l 226 1000 l 226 0 m 153 1047 q 33 1102 80 1047 q -18 1202 -4 1146 l 59 1202 q 96 1159 71 1179 q 153 1139 120 1139 q 209 1159 185 1139 q 245 1202 233 1179 l 323 1202 q 272 1102 309 1146 q 153 1047 224 1047 z "},"Į":{"ha":330,"x_min":51,"x_max":226,"o":"m 152 0 l 79 0 l 79 1000 l 226 1000 l 226 0 q 184 -57 201 -22 q 166 -129 166 -92 q 196 -181 166 -168 q 226 -191 206 -185 l 226 -240 q 116 -223 163 -240 q 51 -143 51 -199 q 65 -95 51 -119 q 101 -48 79 -72 q 152 0 124 -24 z "},"į":{"ha":330,"x_min":51,"x_max":226,"o":"m 152 0 l 79 0 l 79 1000 l 226 1000 l 226 0 q 184 -57 201 -22 q 166 -129 166 -92 q 196 -181 166 -168 q 226 -191 206 -185 l 226 -240 q 116 -223 163 -240 q 51 -143 51 -199 q 65 -95 51 -119 q 101 -48 79 -72 q 152 0 124 -24 z "},"İ":{"ha":330,"x_min":79,"x_max":226,"o":"m 226 0 l 79 0 l 79 1000 l 226 1000 l 226 0 m 152 1055 q 106 1065 122 1055 q 84 1093 90 1075 q 78 1136 78 1112 q 83 1177 78 1159 q 105 1206 89 1196 q 152 1217 121 1217 q 198 1207 182 1217 q 220 1179 214 1197 q 226 1136 226 1160 q 220 1095 226 1114 q 199 1066 215 1076 q 152 1055 184 1055 z "},"Ĳ":{"ha":709,"x_min":79,"x_max":614,"o":"m 226 0 l 79 0 l 79 1000 l 226 1000 l 226 0 m 374 857 l 374 1000 l 614 1000 l 614 245 q 548 53 614 122 q 374 -17 481 -17 l 374 125 q 431 140 411 125 q 458 182 451 155 q 466 245 466 209 l 466 857 l 374 857 z "},"ĳ":{"ha":709,"x_min":79,"x_max":614,"o":"m 226 0 l 79 0 l 79 1000 l 226 1000 l 226 0 m 374 857 l 374 1000 l 614 1000 l 614 245 q 548 53 614 122 q 374 -17 481 -17 l 374 125 q 431 140 411 125 q 458 182 451 155 q 466 245 466 209 l 466 857 l 374 857 z "},"Ĵ":{"ha":378,"x_min":9,"x_max":350,"o":"m 43 857 l 43 1000 l 283 1000 l 283 245 q 217 53 283 122 q 43 -17 151 -17 l 43 125 q 101 140 81 125 q 128 182 121 155 q 136 245 136 209 l 136 857 l 43 857 m 349 1055 l 273 1055 l 179 1130 l 85 1055 l 9 1055 l 140 1240 l 218 1240 l 349 1055 z "},"ĵ":{"ha":378,"x_min":9,"x_max":350,"o":"m 43 857 l 43 1000 l 283 1000 l 283 245 q 217 53 283 122 q 43 -17 151 -17 l 43 125 q 101 140 81 125 q 128 182 121 155 q 136 245 136 209 l 136 857 l 43 857 m 350 1055 l 273 1055 l 179 1131 l 86 1055 l 9 1055 l 140 1240 l 218 1240 l 350 1055 z "},"Ķ":{"ha":616,"x_min":79,"x_max":580,"o":"m 226 410 l 226 0 l 79 0 l 79 1000 l 226 1000 l 226 552 l 314 552 l 417 1000 l 571 1000 l 449 481 l 580 0 l 426 0 l 314 410 l 226 410 m 329 -334 l 271 -334 q 313 -209 313 -243 q 274 -186 284 -204 q 264 -139 264 -168 q 269 -103 264 -119 q 288 -77 274 -87 q 329 -68 302 -68 q 369 -77 355 -68 q 388 -101 383 -85 q 393 -139 393 -117 q 329 -334 393 -225 z "},"ķ":{"ha":616,"x_min":79,"x_max":580,"o":"m 226 410 l 226 0 l 79 0 l 79 1000 l 226 1000 l 226 552 l 314 552 l 417 1000 l 571 1000 l 449 481 l 580 0 l 426 0 l 314 410 l 226 410 m 329 -334 l 271 -334 q 313 -209 313 -243 q 274 -186 284 -204 q 264 -139 264 -168 q 269 -103 264 -119 q 288 -77 274 -87 q 329 -68 302 -68 q 369 -77 355 -68 q 388 -101 383 -85 q 393 -139 393 -117 q 329 -334 393 -225 z "},"ĸ":{"ha":616,"x_min":79,"x_max":580,"o":"m 226 410 l 226 0 l 79 0 l 79 1000 l 226 1000 l 226 552 l 314 552 l 417 1000 l 571 1000 l 449 481 l 580 0 l 426 0 l 314 410 l 226 410 z "},"Ĺ":{"ha":518,"x_min":79,"x_max":484,"o":"m 79 1000 l 226 1000 l 226 142 l 484 142 l 484 0 l 79 0 l 79 1000 m 119 1055 l 174 1240 l 328 1240 l 195 1055 l 119 1055 z "},"ĺ":{"ha":518,"x_min":79,"x_max":484,"o":"m 79 1000 l 226 1000 l 226 142 l 484 142 l 484 0 l 79 0 l 79 1000 m 119 1055 l 174 1240 l 328 1240 l 196 1055 l 119 1055 z "},"Ļ":{"ha":518,"x_min":79,"x_max":484,"o":"m 79 1000 l 226 1000 l 226 142 l 484 142 l 484 0 l 79 0 l 79 1000 m 281 -334 l 224 -334 q 265 -209 265 -243 q 227 -186 237 -204 q 217 -139 217 -168 q 222 -103 217 -119 q 240 -77 227 -87 q 281 -68 254 -68 q 322 -77 308 -68 q 341 -101 336 -85 q 346 -139 346 -117 q 281 -334 346 -225 z "},"ļ":{"ha":518,"x_min":79,"x_max":484,"o":"m 79 1000 l 226 1000 l 226 142 l 484 142 l 484 0 l 79 0 l 79 1000 m 281 -334 l 224 -334 q 265 -209 265 -243 q 227 -186 237 -204 q 217 -139 217 -168 q 222 -103 217 -119 q 240 -77 227 -87 q 281 -68 254 -68 q 322 -77 308 -68 q 341 -101 336 -85 q 346 -139 346 -117 q 281 -334 346 -225 z "},"Ľ":{"ha":518,"x_min":79,"x_max":484,"o":"m 79 1000 l 226 1000 l 226 142 l 484 142 l 484 0 l 79 0 l 79 1000 m 392 619 l 309 619 q 369 798 369 749 q 314 831 328 804 q 300 898 300 857 q 307 949 300 926 q 333 986 313 972 q 392 1000 353 1000 q 450 987 430 1000 q 477 952 469 975 q 484 898 484 929 q 392 619 484 775 z "},"ľ":{"ha":518,"x_min":79,"x_max":484,"o":"m 79 1000 l 226 1000 l 226 142 l 484 142 l 484 0 l 79 0 l 79 1000 m 392 619 l 309 619 q 369 798 369 749 q 314 831 328 804 q 300 898 300 857 q 307 949 300 926 q 333 986 313 972 q 392 1000 353 1000 q 450 987 430 1000 q 477 952 469 975 q 484 898 484 929 q 392 619 484 775 z "},"Ŀ":{"ha":518,"x_min":79,"x_max":484,"o":"m 79 1000 l 226 1000 l 226 142 l 484 142 l 484 0 l 79 0 l 79 1000 m 359 414 q 310 424 327 414 q 287 454 293 435 q 280 500 280 473 q 286 544 280 524 q 309 574 292 563 q 359 586 326 586 q 408 575 391 586 q 431 546 425 565 q 437 500 437 526 q 431 456 437 475 q 409 425 426 437 q 359 414 392 414 z "},"ŀ":{"ha":518,"x_min":79,"x_max":484,"o":"m 79 1000 l 226 1000 l 226 142 l 484 142 l 484 0 l 79 0 l 79 1000 m 359 414 q 310 424 327 414 q 287 454 293 435 q 280 500 280 473 q 286 544 280 524 q 309 574 292 563 q 359 586 326 586 q 408 575 391 586 q 431 546 425 565 q 437 500 437 526 q 432 456 437 475 q 409 425 426 437 q 359 414 392 414 z "},"Ł":{"ha":518,"x_min":-16,"x_max":484,"o":"m 79 483 l 79 1000 l 226 1000 l 226 735 l 320 680 l 226 517 l 226 142 l 484 142 l 484 0 l 79 0 l 79 265 l -16 319 l 79 483 z "},"ł":{"ha":518,"x_min":-16,"x_max":484,"o":"m 79 483 l 79 1000 l 226 1000 l 226 735 l 320 680 l 226 517 l 226 142 l 484 142 l 484 0 l 79 0 l 79 265 l -16 319 l 79 483 z "},"Ń":{"ha":663,"x_min":79,"x_max":558,"o":"m 558 0 l 420 0 l 227 567 l 227 0 l 79 0 l 79 1000 l 217 1000 l 411 432 l 411 1000 l 558 1000 l 558 0 m 249 1055 l 304 1240 l 458 1240 l 326 1055 l 249 1055 z "},"ń":{"ha":663,"x_min":79,"x_max":558,"o":"m 558 0 l 420 0 l 227 567 l 227 0 l 79 0 l 79 1000 l 217 1000 l 411 432 l 411 1000 l 558 1000 l 558 0 m 249 1055 l 304 1240 l 458 1240 l 326 1055 l 249 1055 z "},"Ņ":{"ha":663,"x_min":79,"x_max":558,"o":"m 558 0 l 420 0 l 227 567 l 227 0 l 79 0 l 79 1000 l 217 1000 l 411 432 l 411 1000 l 558 1000 l 558 0 m 319 -334 l 261 -334 q 302 -209 302 -243 q 264 -186 274 -204 q 254 -139 254 -168 q 259 -103 254 -119 q 278 -77 264 -87 q 319 -68 292 -68 q 359 -77 345 -68 q 378 -101 373 -85 q 383 -139 383 -117 q 319 -334 383 -225 z "},"ņ":{"ha":663,"x_min":79,"x_max":558,"o":"m 558 0 l 420 0 l 227 567 l 227 0 l 79 0 l 79 1000 l 217 1000 l 411 432 l 411 1000 l 558 1000 l 558 0 m 319 -334 l 261 -334 q 302 -209 302 -243 q 264 -186 274 -204 q 254 -139 254 -168 q 259 -103 254 -119 q 278 -77 264 -87 q 319 -68 292 -68 q 359 -77 345 -68 q 378 -101 373 -85 q 383 -139 383 -117 q 319 -334 383 -225 z "},"Ň":{"ha":663,"x_min":79,"x_max":558,"o":"m 558 0 l 420 0 l 227 567 l 227 0 l 79 0 l 79 1000 l 217 1000 l 411 432 l 411 1000 l 558 1000 l 558 0 m 489 1240 l 357 1055 l 280 1055 l 149 1240 l 225 1240 l 319 1164 l 412 1240 l 489 1240 z "},"ň":{"ha":663,"x_min":79,"x_max":558,"o":"m 558 0 l 420 0 l 227 567 l 227 0 l 79 0 l 79 1000 l 217 1000 l 411 432 l 411 1000 l 558 1000 l 558 0 m 489 1240 l 357 1055 l 280 1055 l 149 1240 l 225 1240 l 319 1164 l 412 1240 l 489 1240 z "},"ŉ":{"ha":656,"x_min":7,"x_max":551,"o":"m 71 1047 l 14 1047 q 55 1173 55 1139 q 17 1196 26 1177 q 7 1242 7 1214 q 12 1279 7 1263 q 30 1304 16 1295 q 71 1314 44 1314 q 112 1305 98 1314 q 131 1280 125 1296 q 136 1242 136 1264 q 71 1047 136 1156 m 551 0 l 412 0 l 219 567 l 219 0 l 71 0 l 71 1000 l 210 1000 l 404 432 l 404 1000 l 551 1000 l 551 0 z "},"Ŋ":{"ha":663,"x_min":79,"x_max":558,"o":"m 383 -195 q 411 56 411 -94 l 411 567 l 217 0 l 79 0 l 79 1000 l 227 1000 l 227 432 l 420 1000 l 558 1000 l 558 85 q 466 -195 558 -39 l 383 -195 z "},"ŋ":{"ha":663,"x_min":79,"x_max":558,"o":"m 383 -195 q 411 56 411 -94 l 411 567 l 217 0 l 79 0 l 79 1000 l 227 1000 l 227 432 l 420 1000 l 558 1000 l 558 85 q 466 -195 558 -39 l 383 -195 z "},"Ō":{"ha":622,"x_min":61,"x_max":541,"o":"m 301 -17 q 127 53 193 -17 q 61 245 61 122 l 61 754 q 127 947 61 878 q 301 1017 193 1017 q 475 947 409 1017 q 541 754 541 878 l 541 245 q 475 53 541 122 q 301 -17 409 -17 m 301 125 q 358 140 338 125 q 386 182 378 155 q 393 245 393 209 l 393 754 q 386 818 393 791 q 358 859 378 844 q 301 874 338 874 q 244 859 264 874 q 216 818 224 844 q 209 754 209 791 l 209 245 q 216 182 209 209 q 244 140 224 155 q 301 125 264 125 m 433 1092 l 170 1092 l 170 1202 l 433 1202 l 433 1092 z "},"ō":{"ha":622,"x_min":61,"x_max":541,"o":"m 301 -17 q 127 53 193 -17 q 61 245 61 122 l 61 754 q 127 947 61 878 q 301 1017 193 1017 q 475 947 409 1017 q 541 754 541 878 l 541 245 q 475 53 541 122 q 301 -17 409 -17 m 301 125 q 358 140 338 125 q 386 182 378 155 q 393 245 393 209 l 393 754 q 386 818 393 791 q 358 859 378 844 q 301 874 338 874 q 244 859 264 874 q 216 818 224 844 q 209 754 209 791 l 209 245 q 216 182 209 209 q 244 140 224 155 q 301 125 264 125 m 433 1092 l 169 1092 l 169 1202 l 433 1202 l 433 1092 z "},"Ŏ":{"ha":622,"x_min":61,"x_max":541,"o":"m 301 -17 q 127 53 193 -17 q 61 245 61 122 l 61 754 q 127 947 61 878 q 301 1017 193 1017 q 475 947 409 1017 q 541 754 541 878 l 541 245 q 475 53 541 122 q 301 -17 409 -17 m 301 125 q 358 140 338 125 q 386 182 378 155 q 393 245 393 209 l 393 754 q 386 818 393 791 q 358 859 378 844 q 301 874 338 874 q 244 859 264 874 q 216 818 224 844 q 209 754 209 791 l 209 245 q 216 182 209 209 q 244 140 224 155 q 301 125 264 125 m 301 1047 q 182 1102 229 1047 q 130 1202 144 1146 l 208 1202 q 244 1159 220 1179 q 301 1139 269 1139 q 358 1159 334 1139 q 394 1202 382 1179 l 471 1202 q 420 1102 458 1146 q 301 1047 373 1047 z "},"ŏ":{"ha":622,"x_min":61,"x_max":541,"o":"m 301 -17 q 127 53 193 -17 q 61 245 61 122 l 61 754 q 127 947 61 878 q 301 1017 193 1017 q 475 947 409 1017 q 541 754 541 878 l 541 245 q 475 53 541 122 q 301 -17 409 -17 m 301 125 q 358 140 338 125 q 386 182 378 155 q 393 245 393 209 l 393 754 q 386 818 393 791 q 358 859 378 844 q 301 874 338 874 q 244 859 264 874 q 216 818 224 844 q 209 754 209 791 l 209 245 q 216 182 209 209 q 244 140 224 155 q 301 125 264 125 m 301 1047 q 182 1102 229 1047 q 130 1202 144 1146 l 208 1202 q 244 1159 220 1179 q 301 1139 269 1139 q 358 1159 334 1139 q 394 1202 382 1179 l 471 1202 q 420 1102 458 1146 q 301 1047 373 1047 z "},"Ő":{"ha":622,"x_min":61,"x_max":574,"o":"m 301 -17 q 127 53 193 -17 q 61 245 61 122 l 61 754 q 127 947 61 878 q 301 1017 193 1017 q 475 947 409 1017 q 541 754 541 878 l 541 245 q 475 53 541 122 q 301 -17 409 -17 m 301 125 q 358 140 338 125 q 386 182 378 155 q 393 245 393 209 l 393 754 q 386 818 393 791 q 358 859 378 844 q 301 874 338 874 q 244 859 264 874 q 216 818 224 844 q 209 754 209 791 l 209 245 q 216 182 209 209 q 244 140 224 155 q 301 125 264 125 m 157 1056 l 212 1240 l 366 1240 l 234 1056 l 157 1056 m 366 1056 l 421 1240 l 575 1240 l 443 1056 l 366 1056 z "},"ő":{"ha":622,"x_min":61,"x_max":574,"o":"m 301 -17 q 127 53 193 -17 q 61 245 61 122 l 61 754 q 127 947 61 878 q 301 1017 193 1017 q 475 947 409 1017 q 541 754 541 878 l 541 245 q 475 53 541 122 q 301 -17 409 -17 m 301 125 q 358 140 338 125 q 386 182 378 155 q 393 245 393 209 l 393 754 q 386 818 393 791 q 358 859 378 844 q 301 874 338 874 q 244 859 264 874 q 216 818 224 844 q 209 754 209 791 l 209 245 q 216 182 209 209 q 244 140 224 155 q 301 125 264 125 m 157 1055 l 212 1240 l 366 1240 l 234 1055 l 157 1055 m 366 1055 l 421 1240 l 574 1240 l 443 1055 l 366 1055 z "},"Œ":{"ha":862,"x_min":61,"x_max":800,"o":"m 301 125 q 358 140 338 125 q 386 182 378 155 q 393 245 393 209 l 393 754 q 386 818 393 791 q 358 859 378 844 q 301 874 338 874 q 244 859 264 874 q 216 818 224 844 q 209 754 209 791 l 209 245 q 216 182 209 209 q 244 140 224 155 q 301 125 264 125 m 301 -17 q 127 53 193 -17 q 61 245 61 122 l 61 754 q 127 947 61 878 q 301 1017 193 1017 q 397 1000 355 1017 l 800 1000 l 800 857 l 541 857 l 541 552 l 781 552 l 781 410 l 541 410 l 541 142 l 800 142 l 800 0 l 397 0 q 301 -17 355 -17 z "},"œ":{"ha":862,"x_min":61,"x_max":800,"o":"m 301 125 q 358 140 338 125 q 386 182 378 155 q 393 245 393 209 l 393 754 q 386 818 393 791 q 358 859 378 844 q 301 874 338 874 q 244 859 264 874 q 216 818 224 844 q 209 754 209 791 l 209 245 q 216 182 209 209 q 244 140 224 155 q 301 125 264 125 m 301 -17 q 127 53 193 -17 q 61 245 61 122 l 61 754 q 127 947 61 878 q 301 1017 193 1017 q 397 1000 355 1017 l 800 1000 l 800 857 l 541 857 l 541 552 l 781 552 l 781 410 l 541 410 l 541 142 l 800 142 l 800 0 l 397 0 q 301 -17 355 -17 z "},"Ŕ":{"ha":625,"x_min":79,"x_max":580,"o":"m 580 0 l 426 0 l 319 410 l 226 410 l 226 0 l 79 0 l 79 1000 l 319 1000 q 492 930 427 1000 q 558 738 558 861 l 558 672 q 461 452 558 521 l 580 0 m 319 552 q 376 567 356 552 q 403 609 396 582 q 410 672 410 636 l 410 738 q 403 801 410 774 q 376 843 396 828 q 319 857 356 857 l 226 857 l 226 552 l 319 552 m 260 1055 l 315 1240 l 469 1240 l 336 1055 l 260 1055 z "},"ŕ":{"ha":625,"x_min":79,"x_max":580,"o":"m 580 0 l 426 0 l 319 410 l 226 410 l 226 0 l 79 0 l 79 1000 l 319 1000 q 492 930 427 1000 q 558 738 558 861 l 558 672 q 461 452 558 521 l 580 0 m 319 552 q 376 567 356 552 q 403 609 396 582 q 410 672 410 636 l 410 738 q 403 801 410 774 q 376 843 396 828 q 319 857 356 857 l 226 857 l 226 552 l 319 552 m 260 1055 l 315 1240 l 469 1240 l 336 1055 l 260 1055 z "},"Ŗ":{"ha":625,"x_min":79,"x_max":580,"o":"m 580 0 l 426 0 l 319 410 l 226 410 l 226 0 l 79 0 l 79 1000 l 319 1000 q 492 930 427 1000 q 558 738 558 861 l 558 672 q 461 452 558 521 l 580 0 m 319 552 q 376 567 356 552 q 403 609 396 582 q 410 672 410 636 l 410 738 q 403 801 410 774 q 376 843 396 828 q 319 857 356 857 l 226 857 l 226 552 l 319 552 m 329 -334 l 271 -334 q 313 -209 313 -243 q 274 -186 284 -204 q 264 -139 264 -168 q 269 -103 264 -119 q 288 -77 274 -87 q 329 -68 302 -68 q 369 -77 355 -68 q 388 -101 383 -85 q 393 -139 393 -117 q 329 -334 393 -225 z "},"ŗ":{"ha":625,"x_min":79,"x_max":580,"o":"m 580 0 l 426 0 l 319 410 l 226 410 l 226 0 l 79 0 l 79 1000 l 319 1000 q 492 930 427 1000 q 558 738 558 861 l 558 672 q 461 452 558 521 l 580 0 m 319 552 q 376 567 356 552 q 403 609 396 582 q 410 672 410 636 l 410 738 q 403 801 410 774 q 376 843 396 828 q 319 857 356 857 l 226 857 l 226 552 l 319 552 m 329 -334 l 271 -334 q 313 -209 313 -243 q 274 -186 284 -204 q 264 -139 264 -168 q 269 -103 264 -119 q 288 -77 274 -87 q 329 -68 302 -68 q 369 -77 355 -68 q 388 -101 383 -85 q 393 -139 393 -117 q 329 -334 393 -225 z "},"Ř":{"ha":625,"x_min":79,"x_max":580,"o":"m 580 0 l 426 0 l 319 410 l 226 410 l 226 0 l 79 0 l 79 1000 l 319 1000 q 492 930 427 1000 q 558 738 558 861 l 558 672 q 461 452 558 521 l 580 0 m 319 552 q 376 567 356 552 q 403 609 396 582 q 410 672 410 636 l 410 738 q 403 801 410 774 q 376 843 396 828 q 319 857 356 857 l 226 857 l 226 552 l 319 552 m 466 1240 l 334 1055 l 257 1055 l 125 1240 l 202 1240 l 296 1164 l 389 1240 l 466 1240 z "},"ř":{"ha":625,"x_min":79,"x_max":580,"o":"m 580 0 l 426 0 l 319 410 l 226 410 l 226 0 l 79 0 l 79 1000 l 319 1000 q 492 930 427 1000 q 558 738 558 861 l 558 672 q 461 452 558 521 l 580 0 m 319 552 q 376 567 356 552 q 403 609 396 582 q 410 672 410 636 l 410 738 q 403 801 410 774 q 376 843 396 828 q 319 857 356 857 l 226 857 l 226 552 l 319 552 m 467 1240 l 334 1055 l 257 1055 l 125 1240 l 203 1240 l 296 1164 l 389 1240 l 467 1240 z "},"Ś":{"ha":584,"x_min":43,"x_max":523,"o":"m 283 -17 q 109 53 175 -17 q 43 245 43 122 l 43 309 l 191 309 l 191 245 q 217 149 191 178 q 283 125 239 125 q 349 149 328 125 q 376 245 376 178 l 376 275 q 309 386 376 332 q 242 435 278 410 q 109 547 152 496 q 43 722 43 622 l 43 754 q 110 947 43 878 q 283 1017 176 1017 q 457 947 391 1017 q 523 754 523 878 l 523 690 l 376 690 l 376 754 q 350 850 376 822 q 283 874 328 874 q 217 850 239 874 q 191 754 191 821 l 191 724 q 262 601 191 659 q 332 550 294 575 q 462 443 420 490 q 523 277 523 372 l 523 245 q 457 53 523 122 q 283 -17 391 -17 m 214 1055 l 269 1240 l 422 1240 l 290 1055 l 214 1055 z "},"ś":{"ha":584,"x_min":43,"x_max":523,"o":"m 283 -17 q 109 53 175 -17 q 43 245 43 122 l 43 309 l 191 309 l 191 245 q 217 149 191 178 q 283 125 239 125 q 349 149 328 125 q 376 245 376 178 l 376 275 q 309 386 376 332 q 242 435 278 410 q 109 547 152 496 q 43 722 43 622 l 43 754 q 110 947 43 878 q 283 1017 176 1017 q 457 947 391 1017 q 523 754 523 878 l 523 690 l 376 690 l 376 754 q 350 850 376 822 q 283 874 328 874 q 217 850 239 874 q 191 754 191 821 l 191 724 q 262 601 191 659 q 332 550 294 575 q 462 443 420 490 q 523 277 523 372 l 523 245 q 457 53 523 122 q 283 -17 391 -17 m 214 1055 l 269 1240 l 422 1240 l 290 1055 l 214 1055 z "},"Ŝ":{"ha":584,"x_min":43,"x_max":523,"o":"m 283 -17 q 109 53 175 -17 q 43 245 43 122 l 43 309 l 191 309 l 191 245 q 217 149 191 178 q 283 125 239 125 q 349 149 328 125 q 376 245 376 178 l 376 275 q 309 386 376 332 q 242 435 278 410 q 109 547 152 496 q 43 722 43 622 l 43 754 q 110 947 43 878 q 283 1017 176 1017 q 457 947 391 1017 q 523 754 523 878 l 523 690 l 376 690 l 376 754 q 350 850 376 822 q 283 874 328 874 q 217 850 239 874 q 191 754 191 821 l 191 724 q 262 601 191 659 q 332 550 294 575 q 462 443 420 490 q 523 277 523 372 l 523 245 q 457 53 523 122 q 283 -17 391 -17 m 454 1055 l 377 1055 l 283 1130 l 190 1055 l 113 1055 l 245 1240 l 322 1240 l 454 1055 z "},"ŝ":{"ha":584,"x_min":43,"x_max":523,"o":"m 283 -17 q 109 53 175 -17 q 43 245 43 122 l 43 309 l 191 309 l 191 245 q 217 149 191 178 q 283 125 239 125 q 349 149 328 125 q 376 245 376 178 l 376 275 q 309 386 376 332 q 242 435 278 410 q 109 547 152 496 q 43 722 43 622 l 43 754 q 110 947 43 878 q 283 1017 176 1017 q 457 947 391 1017 q 523 754 523 878 l 523 690 l 376 690 l 376 754 q 350 850 376 822 q 283 874 328 874 q 217 850 239 874 q 191 754 191 821 l 191 724 q 262 601 191 659 q 332 550 294 575 q 462 443 420 490 q 523 277 523 372 l 523 245 q 457 53 523 122 q 283 -17 391 -17 m 454 1055 l 377 1055 l 283 1130 l 190 1055 l 113 1055 l 245 1240 l 322 1240 l 454 1055 z "},"Ş":{"ha":584,"x_min":43,"x_max":523,"o":"m 241 -14 q 109 53 161 -3 q 43 245 43 122 l 43 309 l 191 309 l 191 245 q 217 149 191 178 q 283 125 239 125 q 349 149 328 125 q 376 245 376 178 l 376 275 q 309 386 376 332 q 242 435 278 410 q 109 547 152 496 q 43 722 43 622 l 43 754 q 110 947 43 878 q 283 1017 176 1017 q 457 947 391 1017 q 523 754 523 878 l 523 690 l 376 690 l 376 754 q 350 850 376 822 q 283 874 328 874 q 217 850 239 874 q 191 754 191 821 l 191 724 q 262 601 191 659 q 332 550 294 575 q 462 443 420 490 q 523 277 523 372 l 523 245 q 457 53 523 122 q 314 -16 401 -7 l 291 -56 q 348 -71 326 -56 q 371 -116 371 -85 q 350 -173 371 -149 q 279 -240 334 -192 l 195 -240 q 238 -193 220 -218 q 256 -149 256 -167 q 246 -123 256 -132 q 223 -108 237 -113 q 195 -100 209 -103 q 224 -46 210 -76 q 241 -14 233 -27 z "},"ş":{"ha":584,"x_min":43,"x_max":523,"o":"m 241 -14 q 109 53 161 -3 q 43 245 43 122 l 43 309 l 191 309 l 191 245 q 217 149 191 178 q 283 125 239 125 q 349 149 328 125 q 376 245 376 178 l 376 275 q 309 386 376 332 q 242 435 278 410 q 109 547 152 496 q 43 722 43 622 l 43 754 q 110 947 43 878 q 283 1017 176 1017 q 457 947 391 1017 q 523 754 523 878 l 523 690 l 376 690 l 376 754 q 350 850 376 822 q 283 874 328 874 q 217 850 239 874 q 191 754 191 821 l 191 724 q 262 601 191 659 q 332 550 294 575 q 462 443 420 490 q 523 277 523 372 l 523 245 q 457 53 523 122 q 314 -16 401 -7 l 291 -56 q 348 -71 326 -56 q 371 -116 371 -85 q 350 -173 371 -149 q 279 -240 334 -192 l 195 -240 q 238 -193 220 -218 q 256 -149 256 -167 q 246 -123 256 -132 q 223 -108 237 -113 q 195 -100 209 -103 q 224 -46 210 -76 q 241 -14 233 -27 z "},"Š":{"ha":584,"x_min":43,"x_max":523,"o":"m 283 -17 q 109 53 175 -17 q 43 245 43 122 l 43 309 l 191 309 l 191 245 q 217 149 191 178 q 283 125 239 125 q 349 149 328 125 q 376 245 376 178 l 376 275 q 309 386 376 332 q 242 435 278 410 q 109 547 152 496 q 43 722 43 622 l 43 754 q 110 947 43 878 q 283 1017 176 1017 q 457 947 391 1017 q 523 754 523 878 l 523 690 l 376 690 l 376 754 q 350 850 376 822 q 283 874 328 874 q 217 850 239 874 q 191 754 191 821 l 191 724 q 262 601 191 659 q 332 550 294 575 q 462 443 420 490 q 523 277 523 372 l 523 245 q 457 53 523 122 q 283 -17 391 -17 m 454 1240 l 322 1055 l 245 1055 l 113 1240 l 190 1240 l 283 1164 l 377 1240 l 454 1240 z "},"š":{"ha":584,"x_min":43,"x_max":523,"o":"m 283 -17 q 109 53 175 -17 q 43 245 43 122 l 43 309 l 191 309 l 191 245 q 217 149 191 178 q 283 125 239 125 q 349 149 328 125 q 376 245 376 178 l 376 275 q 309 386 376 332 q 242 435 278 410 q 109 547 152 496 q 43 722 43 622 l 43 754 q 110 947 43 878 q 283 1017 176 1017 q 457 947 391 1017 q 523 754 523 878 l 523 690 l 376 690 l 376 754 q 350 850 376 822 q 283 874 328 874 q 217 850 239 874 q 191 754 191 821 l 191 724 q 262 601 191 659 q 332 550 294 575 q 462 443 420 490 q 523 277 523 372 l 523 245 q 457 53 523 122 q 283 -17 391 -17 m 454 1240 l 322 1055 l 245 1055 l 113 1240 l 190 1240 l 283 1164 l 377 1240 l 454 1240 z "},"Ţ":{"ha":554,"x_min":30,"x_max":509,"o":"m 235 0 l 196 0 l 196 857 l 30 857 l 30 1000 l 509 1000 l 509 857 l 344 857 l 344 0 l 309 0 l 277 -56 q 335 -71 312 -56 q 357 -116 357 -85 q 336 -173 357 -149 q 265 -240 320 -192 l 182 -240 q 224 -193 206 -218 q 242 -149 242 -167 q 232 -123 242 -132 q 209 -108 222 -113 q 182 -100 195 -103 q 211 -46 196 -76 q 235 0 225 -16 z "},"ţ":{"ha":554,"x_min":30,"x_max":509,"o":"m 235 0 l 196 0 l 196 857 l 30 857 l 30 1000 l 509 1000 l 509 857 l 344 857 l 344 0 l 309 0 l 277 -56 q 335 -71 312 -56 q 357 -116 357 -85 q 336 -173 357 -149 q 265 -240 320 -192 l 182 -240 q 224 -193 206 -218 q 242 -149 242 -167 q 232 -123 242 -132 q 209 -108 222 -113 q 182 -100 195 -103 q 211 -46 196 -76 q 235 0 225 -16 z "},"Ť":{"ha":554,"x_min":30,"x_max":509,"o":"m 344 857 l 344 0 l 196 0 l 196 857 l 30 857 l 30 1000 l 509 1000 l 509 857 l 344 857 m 439 1240 l 308 1055 l 231 1055 l 99 1240 l 176 1240 l 269 1164 l 363 1240 l 439 1240 z "},"ť":{"ha":778,"x_min":30,"x_max":772,"o":"m 344 857 l 344 0 l 196 0 l 196 857 l 30 857 l 30 1000 l 509 1000 l 509 857 l 344 857 m 680 619 l 597 619 q 657 798 657 749 q 602 831 616 804 q 588 898 588 857 q 595 949 588 926 q 622 986 602 972 q 680 1000 642 1000 q 738 987 718 1000 q 765 952 758 975 q 772 898 772 929 q 680 619 772 775 z "},"Ŧ":{"ha":554,"x_min":30,"x_max":510,"o":"m 196 555 l 196 857 l 30 857 l 30 1000 l 509 1000 l 509 857 l 344 857 l 344 555 l 510 555 l 510 445 l 344 445 l 344 0 l 196 0 l 196 445 l 30 445 l 30 555 l 196 555 z "},"ŧ":{"ha":554,"x_min":30,"x_max":510,"o":"m 196 555 l 196 857 l 30 857 l 30 1000 l 509 1000 l 509 857 l 344 857 l 344 555 l 510 555 l 510 445 l 344 445 l 344 0 l 196 0 l 196 445 l 30 445 l 30 555 l 196 555 z "},"Ũ":{"ha":640,"x_min":68,"x_max":547,"o":"m 308 -17 q 134 53 200 -17 q 68 245 68 122 l 68 1000 l 216 1000 l 216 245 q 250 140 216 166 q 308 125 271 125 q 365 140 345 125 q 393 182 385 155 q 400 245 400 209 l 400 1000 l 547 1000 l 547 245 q 481 53 547 122 q 308 -17 416 -17 m 368 1055 q 325 1067 343 1056 q 292 1093 307 1079 q 267 1113 279 1105 q 241 1122 255 1122 q 218 1105 227 1122 q 209 1057 209 1088 l 137 1057 q 165 1162 137 1116 q 247 1210 193 1208 q 290 1198 272 1209 q 323 1172 309 1186 q 348 1152 336 1160 q 374 1143 359 1143 q 397 1160 388 1143 q 406 1208 406 1177 l 478 1208 q 450 1103 478 1149 q 368 1055 422 1057 z "},"ũ":{"ha":640,"x_min":68,"x_max":547,"o":"m 308 -17 q 134 53 200 -17 q 68 245 68 122 l 68 1000 l 216 1000 l 216 245 q 250 140 216 166 q 308 125 271 125 q 365 140 345 125 q 393 182 385 155 q 400 245 400 209 l 400 1000 l 547 1000 l 547 245 q 481 53 547 122 q 308 -17 416 -17 m 368 1055 q 325 1067 343 1056 q 292 1093 307 1079 q 267 1113 279 1105 q 241 1122 255 1122 q 218 1105 227 1122 q 209 1057 209 1088 l 137 1057 q 165 1162 137 1116 q 247 1210 193 1208 q 290 1198 272 1209 q 323 1172 309 1186 q 348 1152 336 1160 q 374 1143 359 1143 q 397 1160 388 1143 q 406 1208 406 1177 l 478 1208 q 450 1103 478 1149 q 368 1055 422 1057 z "},"Ū":{"ha":640,"x_min":68,"x_max":547,"o":"m 308 -17 q 134 53 200 -17 q 68 245 68 122 l 68 1000 l 216 1000 l 216 245 q 250 140 216 166 q 308 125 271 125 q 365 140 345 125 q 393 182 385 155 q 400 245 400 209 l 400 1000 l 547 1000 l 547 245 q 481 53 547 122 q 308 -17 416 -17 m 440 1092 l 176 1092 l 176 1202 l 440 1202 l 440 1092 z "},"ū":{"ha":640,"x_min":68,"x_max":547,"o":"m 308 -17 q 134 53 200 -17 q 68 245 68 122 l 68 1000 l 216 1000 l 216 245 q 250 140 216 166 q 308 125 271 125 q 365 140 345 125 q 393 182 385 155 q 400 245 400 209 l 400 1000 l 547 1000 l 547 245 q 481 53 547 122 q 308 -17 416 -17 m 440 1092 l 176 1092 l 176 1202 l 440 1202 l 440 1092 z "},"Ŭ":{"ha":640,"x_min":68,"x_max":547,"o":"m 308 -17 q 134 53 200 -17 q 68 245 68 122 l 68 1000 l 216 1000 l 216 245 q 250 140 216 166 q 308 125 271 125 q 365 140 345 125 q 393 182 385 155 q 400 245 400 209 l 400 1000 l 547 1000 l 547 245 q 481 53 547 122 q 308 -17 416 -17 m 308 1047 q 189 1102 235 1047 q 137 1202 151 1146 l 214 1202 q 251 1159 227 1179 q 308 1139 275 1139 q 365 1159 340 1139 q 401 1202 389 1179 l 478 1202 q 427 1102 465 1146 q 308 1047 380 1047 z "},"ŭ":{"ha":640,"x_min":68,"x_max":547,"o":"m 308 -17 q 134 53 200 -17 q 68 245 68 122 l 68 1000 l 216 1000 l 216 245 q 250 140 216 166 q 308 125 271 125 q 365 140 345 125 q 393 182 385 155 q 400 245 400 209 l 400 1000 l 547 1000 l 547 245 q 481 53 547 122 q 308 -17 416 -17 m 308 1047 q 189 1102 235 1047 q 137 1202 151 1146 l 214 1202 q 251 1159 227 1179 q 308 1139 275 1139 q 365 1159 340 1139 q 401 1202 389 1179 l 478 1202 q 427 1102 465 1146 q 308 1047 380 1047 z "},"Ů":{"ha":640,"x_min":68,"x_max":547,"o":"m 308 -17 q 134 53 200 -17 q 68 245 68 122 l 68 1000 l 216 1000 l 216 245 q 250 140 216 166 q 308 125 271 125 q 365 140 345 125 q 393 182 385 155 q 400 245 400 209 l 400 1000 l 547 1000 l 547 245 q 481 53 547 122 q 308 -17 416 -17 m 308 1084 q 339 1097 326 1084 q 352 1128 352 1110 q 339 1160 352 1147 q 308 1173 326 1173 q 276 1160 290 1173 q 263 1128 263 1147 q 276 1097 263 1110 q 308 1084 290 1084 m 308 1017 q 229 1050 262 1017 q 197 1128 197 1082 q 229 1207 197 1175 q 308 1240 262 1240 q 387 1207 354 1240 q 419 1128 419 1175 q 387 1050 419 1082 q 308 1017 354 1017 z "},"ů":{"ha":640,"x_min":68,"x_max":547,"o":"m 308 -17 q 134 53 200 -17 q 68 245 68 122 l 68 1000 l 216 1000 l 216 245 q 250 140 216 166 q 308 125 271 125 q 365 140 345 125 q 393 182 385 155 q 400 245 400 209 l 400 1000 l 547 1000 l 547 245 q 481 53 547 122 q 308 -17 416 -17 m 308 1084 q 339 1097 326 1084 q 352 1128 352 1110 q 339 1160 352 1147 q 308 1173 326 1173 q 276 1160 290 1173 q 263 1128 263 1147 q 276 1097 263 1110 q 308 1084 290 1084 m 308 1017 q 229 1050 262 1017 q 197 1128 197 1082 q 229 1207 197 1175 q 308 1240 262 1240 q 387 1207 354 1240 q 419 1128 419 1175 q 387 1050 419 1082 q 308 1017 354 1017 z "},"Ű":{"ha":640,"x_min":68,"x_max":581,"o":"m 308 -17 q 134 53 200 -17 q 68 245 68 122 l 68 1000 l 216 1000 l 216 245 q 250 140 216 166 q 308 125 271 125 q 365 140 345 125 q 393 182 385 155 q 400 245 400 209 l 400 1000 l 547 1000 l 547 245 q 481 53 547 122 q 308 -17 416 -17 m 163 1055 l 218 1240 l 372 1240 l 240 1055 l 163 1055 m 372 1055 l 427 1240 l 581 1240 l 449 1055 l 372 1055 z "},"ű":{"ha":640,"x_min":68,"x_max":581,"o":"m 308 -17 q 134 53 200 -17 q 68 245 68 122 l 68 1000 l 216 1000 l 216 245 q 250 140 216 166 q 308 125 271 125 q 365 140 345 125 q 393 182 385 155 q 400 245 400 209 l 400 1000 l 547 1000 l 547 245 q 481 53 547 122 q 308 -17 416 -17 m 163 1055 l 218 1240 l 372 1240 l 239 1055 l 163 1055 m 372 1055 l 427 1240 l 581 1240 l 449 1055 l 372 1055 z "},"Ų":{"ha":640,"x_min":68,"x_max":547,"o":"m 310 -17 l 308 -17 q 134 53 200 -17 q 68 245 68 122 l 68 1000 l 216 1000 l 216 245 q 250 140 216 166 q 308 125 271 125 q 365 140 345 125 q 393 182 385 155 q 400 245 400 209 l 400 1000 l 547 1000 l 547 245 q 481 53 547 122 q 402 -1 448 16 q 360 -57 378 -22 q 342 -129 342 -92 q 372 -181 342 -168 q 402 -191 382 -185 l 402 -240 q 292 -223 340 -240 q 227 -143 227 -199 q 241 -95 227 -119 q 278 -48 255 -72 q 310 -17 293 -33 z "},"ų":{"ha":640,"x_min":68,"x_max":547,"o":"m 310 -17 l 308 -17 q 134 53 200 -17 q 68 245 68 122 l 68 1000 l 216 1000 l 216 245 q 250 140 216 166 q 308 125 271 125 q 365 140 345 125 q 393 182 385 155 q 400 245 400 209 l 400 1000 l 547 1000 l 547 245 q 481 53 547 122 q 402 -1 448 16 q 360 -57 378 -22 q 342 -129 342 -92 q 372 -181 342 -168 q 402 -191 382 -185 l 402 -240 q 292 -223 340 -240 q 227 -143 227 -199 q 241 -95 227 -119 q 278 -48 255 -72 q 310 -17 293 -33 z "},"Ŵ":{"ha":994,"x_min":33,"x_max":951,"o":"m 838 0 l 612 0 l 493 857 l 490 857 l 372 0 l 145 0 l 33 1000 l 178 1000 l 262 179 l 265 179 l 383 1000 l 600 1000 l 718 179 l 722 179 l 805 1000 l 951 1000 l 838 0 m 662 1055 l 585 1055 l 492 1130 l 398 1055 l 321 1055 l 453 1240 l 530 1240 l 662 1055 z "},"ŵ":{"ha":994,"x_min":33,"x_max":951,"o":"m 838 0 l 612 0 l 493 857 l 490 857 l 372 0 l 145 0 l 33 1000 l 178 1000 l 262 179 l 265 179 l 383 1000 l 600 1000 l 718 179 l 722 179 l 805 1000 l 951 1000 l 838 0 m 662 1055 l 585 1055 l 492 1130 l 398 1055 l 321 1055 l 453 1240 l 530 1240 l 662 1055 z "},"Ŷ":{"ha":558,"x_min":7,"x_max":542,"o":"m 348 0 l 201 0 l 201 343 l 7 1000 l 155 1000 l 273 571 l 276 571 l 394 1000 l 542 1000 l 348 343 l 348 0 m 444 1055 l 368 1055 l 274 1130 l 180 1055 l 104 1055 l 235 1240 l 313 1240 l 444 1055 z "},"ŷ":{"ha":558,"x_min":7,"x_max":542,"o":"m 348 0 l 201 0 l 201 343 l 7 1000 l 155 1000 l 273 571 l 276 571 l 394 1000 l 542 1000 l 348 343 l 348 0 m 444 1055 l 368 1055 l 274 1130 l 180 1055 l 104 1055 l 235 1240 l 313 1240 l 444 1055 z "},"Ÿ":{"ha":558,"x_min":7,"x_max":542,"o":"m 348 0 l 201 0 l 201 343 l 7 1000 l 155 1000 l 273 571 l 276 571 l 394 1000 l 542 1000 l 348 343 l 348 0 m 178 1055 q 132 1065 148 1055 q 110 1093 116 1075 q 104 1136 104 1112 q 109 1177 104 1159 q 131 1206 115 1196 q 178 1217 146 1217 q 224 1207 208 1217 q 246 1179 240 1197 q 252 1136 252 1160 q 246 1095 252 1114 q 225 1066 241 1076 q 178 1055 210 1055 m 372 1055 q 326 1065 342 1055 q 304 1093 310 1075 q 298 1136 298 1112 q 303 1177 298 1159 q 325 1206 309 1196 q 372 1217 340 1217 q 417 1207 401 1217 q 439 1179 433 1197 q 446 1136 446 1160 q 440 1095 446 1114 q 419 1066 435 1076 q 372 1055 403 1055 z "},"Ź":{"ha":497,"x_min":41,"x_max":447,"o":"m 447 0 l 41 0 l 41 71 l 277 857 l 41 857 l 41 1000 l 447 1000 l 447 928 l 210 142 l 447 142 l 447 0 m 174 1055 l 229 1240 l 383 1240 l 251 1055 l 174 1055 z "},"ź":{"ha":497,"x_min":41,"x_max":447,"o":"m 447 0 l 41 0 l 41 71 l 277 857 l 41 857 l 41 1000 l 447 1000 l 447 928 l 210 142 l 447 142 l 447 0 m 174 1055 l 229 1240 l 383 1240 l 251 1055 l 174 1055 z "},"Ż":{"ha":497,"x_min":41,"x_max":447,"o":"m 447 0 l 41 0 l 41 71 l 277 857 l 41 857 l 41 1000 l 447 1000 l 447 928 l 210 142 l 447 142 l 447 0 m 243 1055 q 198 1065 214 1055 q 176 1093 182 1075 q 170 1136 170 1112 q 175 1177 170 1159 q 196 1206 180 1196 q 243 1217 212 1217 q 290 1207 274 1217 q 312 1179 306 1197 q 317 1136 317 1160 q 312 1095 317 1114 q 291 1066 307 1076 q 243 1055 275 1055 z "},"ż":{"ha":497,"x_min":41,"x_max":447,"o":"m 447 0 l 41 0 l 41 71 l 277 857 l 41 857 l 41 1000 l 447 1000 l 447 928 l 210 142 l 447 142 l 447 0 m 243 1055 q 198 1065 214 1055 q 176 1093 182 1075 q 170 1136 170 1112 q 175 1177 170 1159 q 196 1206 180 1196 q 243 1217 212 1217 q 290 1207 274 1217 q 312 1179 306 1197 q 317 1136 317 1160 q 312 1095 317 1114 q 291 1066 307 1076 q 243 1055 275 1055 z "},"Ž":{"ha":497,"x_min":41,"x_max":447,"o":"m 447 0 l 41 0 l 41 71 l 277 857 l 41 857 l 41 1000 l 447 1000 l 447 928 l 210 142 l 447 142 l 447 0 m 414 1240 l 282 1055 l 205 1055 l 73 1240 l 150 1240 l 243 1164 l 337 1240 l 414 1240 z "},"ž":{"ha":497,"x_min":41,"x_max":447,"o":"m 447 0 l 41 0 l 41 71 l 277 857 l 41 857 l 41 1000 l 447 1000 l 447 928 l 210 142 l 447 142 l 447 0 m 414 1240 l 282 1055 l 205 1055 l 73 1240 l 150 1240 l 243 1164 l 337 1240 l 414 1240 z "},"ſ":{"ha":501,"x_min":34,"x_max":467,"o":"m 467 1000 l 467 857 l 270 857 l 270 0 l 34 0 l 34 142 l 122 142 l 122 1000 l 467 1000 z "},"Ș":{"ha":584,"x_min":43,"x_max":523,"o":"m 283 -17 q 109 53 175 -17 q 43 245 43 122 l 43 309 l 191 309 l 191 245 q 217 149 191 178 q 283 125 239 125 q 349 149 328 125 q 376 245 376 178 l 376 275 q 309 386 376 332 q 242 435 278 410 q 109 547 152 496 q 43 722 43 622 l 43 754 q 110 947 43 878 q 283 1017 176 1017 q 457 947 391 1017 q 523 754 523 878 l 523 690 l 376 690 l 376 754 q 350 850 376 822 q 283 874 328 874 q 217 850 239 874 q 191 754 191 821 l 191 724 q 262 601 191 659 q 332 550 294 575 q 462 443 420 490 q 523 277 523 372 l 523 245 q 457 53 523 122 q 283 -17 391 -17 m 283 -334 l 225 -334 q 267 -209 267 -243 q 228 -186 238 -204 q 218 -139 218 -168 q 223 -103 218 -119 q 242 -77 228 -87 q 283 -68 256 -68 q 323 -77 309 -68 q 342 -101 337 -85 q 347 -139 347 -117 q 283 -334 347 -225 z "},"ș":{"ha":584,"x_min":43,"x_max":523,"o":"m 283 -17 q 109 53 175 -17 q 43 245 43 122 l 43 309 l 191 309 l 191 245 q 217 149 191 178 q 283 125 239 125 q 349 149 328 125 q 376 245 376 178 l 376 275 q 309 386 376 332 q 242 435 278 410 q 109 547 152 496 q 43 722 43 622 l 43 754 q 110 947 43 878 q 283 1017 176 1017 q 457 947 391 1017 q 523 754 523 878 l 523 690 l 376 690 l 376 754 q 350 850 376 822 q 283 874 328 874 q 217 850 239 874 q 191 754 191 821 l 191 724 q 262 601 191 659 q 332 550 294 575 q 462 443 420 490 q 523 277 523 372 l 523 245 q 457 53 523 122 q 283 -17 391 -17 m 283 -334 l 225 -334 q 267 -209 267 -243 q 228 -186 238 -204 q 218 -139 218 -168 q 223 -103 218 -119 q 242 -77 228 -87 q 283 -68 256 -68 q 323 -77 309 -68 q 342 -101 337 -85 q 347 -139 347 -117 q 283 -334 347 -225 z "},"Ț":{"ha":554,"x_min":30,"x_max":509,"o":"m 344 857 l 344 0 l 196 0 l 196 857 l 30 857 l 30 1000 l 509 1000 l 509 857 l 344 857 m 269 -334 l 212 -334 q 253 -209 253 -243 q 215 -186 224 -204 q 205 -139 205 -168 q 210 -103 205 -119 q 228 -77 214 -87 q 269 -68 242 -68 q 310 -77 296 -68 q 329 -101 323 -85 q 334 -139 334 -117 q 269 -334 334 -225 z "},"ț":{"ha":554,"x_min":30,"x_max":509,"o":"m 344 857 l 344 0 l 196 0 l 196 857 l 30 857 l 30 1000 l 509 1000 l 509 857 l 344 857 m 269 -334 l 212 -334 q 253 -209 253 -243 q 215 -186 224 -204 q 205 -139 205 -168 q 210 -103 205 -119 q 228 -77 214 -87 q 269 -68 242 -68 q 310 -77 296 -68 q 329 -101 323 -85 q 334 -139 334 -117 q 269 -334 334 -225 z "},"Ȳ":{"ha":558,"x_min":7,"x_max":542,"o":"m 348 0 l 201 0 l 201 343 l 7 1000 l 155 1000 l 273 571 l 276 571 l 394 1000 l 542 1000 l 348 343 l 348 0 m 406 1092 l 142 1092 l 142 1202 l 406 1202 l 406 1092 z "},"ȳ":{"ha":558,"x_min":7,"x_max":542,"o":"m 348 0 l 201 0 l 201 343 l 7 1000 l 155 1000 l 273 571 l 276 571 l 394 1000 l 542 1000 l 348 343 l 348 0 m 406 1092 l 142 1092 l 142 1202 l 406 1202 l 406 1092 z "},"Ḍ":{"ha":638,"x_min":79,"x_max":558,"o":"m 319 0 l 79 0 l 79 1000 l 319 1000 q 492 930 427 1000 q 558 738 558 861 l 558 262 q 492 70 558 139 q 319 0 427 0 m 319 142 q 376 157 356 142 q 404 198 396 172 q 411 262 411 225 l 411 738 q 404 801 411 774 q 376 843 396 828 q 319 857 356 857 l 227 857 l 227 142 l 319 142 m 319 -240 q 270 -230 287 -240 q 247 -200 253 -219 q 240 -154 240 -180 q 246 -111 240 -130 q 269 -79 252 -91 q 319 -68 286 -68 q 368 -78 351 -68 q 391 -109 385 -89 q 397 -154 397 -128 q 391 -198 397 -178 q 369 -229 386 -218 q 319 -240 352 -240 z "},"ḍ":{"ha":638,"x_min":79,"x_max":558,"o":"m 319 0 l 79 0 l 79 1000 l 319 1000 q 492 930 427 1000 q 558 738 558 861 l 558 262 q 492 70 558 139 q 319 0 427 0 m 319 142 q 376 157 356 142 q 404 198 396 172 q 411 262 411 225 l 411 738 q 404 801 411 774 q 376 843 396 828 q 319 857 356 857 l 227 857 l 227 142 l 319 142 m 319 -240 q 270 -230 287 -240 q 247 -200 253 -219 q 240 -154 240 -180 q 246 -111 240 -130 q 269 -79 252 -91 q 319 -68 286 -68 q 368 -78 351 -68 q 391 -109 385 -89 q 397 -154 397 -128 q 391 -198 397 -178 q 369 -229 385 -218 q 319 -240 352 -240 z "},"Ḥ":{"ha":663,"x_min":79,"x_max":558,"o":"m 558 0 l 410 0 l 410 410 l 226 410 l 226 0 l 79 0 l 79 1000 l 226 1000 l 226 552 l 410 552 l 410 1000 l 558 1000 l 558 0 m 319 -240 q 270 -230 287 -240 q 247 -200 253 -219 q 240 -154 240 -180 q 246 -111 240 -130 q 269 -79 252 -91 q 319 -68 286 -68 q 368 -78 351 -68 q 391 -109 385 -89 q 397 -154 397 -128 q 391 -198 397 -178 q 369 -229 386 -218 q 319 -240 352 -240 z "},"ḥ":{"ha":663,"x_min":79,"x_max":558,"o":"m 558 0 l 410 0 l 410 410 l 226 410 l 226 0 l 79 0 l 79 1000 l 226 1000 l 226 552 l 410 552 l 410 1000 l 558 1000 l 558 0 m 319 -240 q 270 -230 287 -240 q 247 -200 253 -219 q 240 -154 240 -180 q 246 -111 240 -130 q 269 -79 252 -91 q 319 -68 286 -68 q 368 -78 351 -68 q 391 -109 385 -89 q 397 -154 397 -128 q 391 -198 397 -178 q 369 -229 386 -218 q 319 -240 352 -240 z "},"Ḳ":{"ha":616,"x_min":79,"x_max":580,"o":"m 226 410 l 226 0 l 79 0 l 79 1000 l 226 1000 l 226 552 l 314 552 l 417 1000 l 571 1000 l 449 481 l 580 0 l 426 0 l 314 410 l 226 410 m 330 -240 q 281 -230 298 -240 q 257 -200 264 -219 q 251 -154 251 -180 q 257 -111 251 -130 q 279 -79 262 -91 q 330 -68 296 -68 q 378 -78 361 -68 q 401 -109 395 -89 q 408 -154 408 -128 q 402 -198 408 -178 q 380 -229 397 -218 q 330 -240 363 -240 z "},"ḳ":{"ha":616,"x_min":79,"x_max":580,"o":"m 226 410 l 226 0 l 79 0 l 79 1000 l 226 1000 l 226 552 l 314 552 l 417 1000 l 571 1000 l 449 481 l 580 0 l 426 0 l 314 410 l 226 410 m 330 -240 q 281 -230 298 -240 q 257 -200 264 -219 q 251 -154 251 -180 q 257 -111 251 -130 q 279 -79 262 -91 q 330 -68 296 -68 q 378 -78 361 -68 q 401 -109 395 -89 q 408 -154 408 -128 q 402 -198 408 -178 q 380 -229 397 -218 q 330 -240 363 -240 z "},"Ḷ":{"ha":518,"x_min":79,"x_max":484,"o":"m 79 1000 l 226 1000 l 226 142 l 484 142 l 484 0 l 79 0 l 79 1000 m 281 -240 q 233 -230 250 -240 q 209 -200 216 -219 q 203 -154 203 -180 q 209 -111 203 -130 q 231 -79 214 -91 q 281 -68 248 -68 q 330 -78 313 -68 q 353 -109 347 -89 q 359 -154 359 -128 q 354 -198 359 -178 q 332 -229 349 -218 q 281 -240 315 -240 z "},"ḷ":{"ha":518,"x_min":79,"x_max":484,"o":"m 79 1000 l 226 1000 l 226 142 l 484 142 l 484 0 l 79 0 l 79 1000 m 281 -240 q 233 -230 250 -240 q 209 -200 216 -219 q 203 -154 203 -180 q 209 -111 203 -130 q 231 -79 214 -91 q 281 -68 248 -68 q 330 -78 313 -68 q 353 -109 347 -89 q 359 -154 359 -128 q 354 -198 359 -178 q 332 -229 349 -218 q 281 -240 315 -240 z "},"Ḹ":{"ha":518,"x_min":22,"x_max":484,"o":"m 79 1000 l 226 1000 l 226 142 l 484 142 l 484 0 l 79 0 l 79 1000 m 286 1092 l 22 1092 l 22 1202 l 286 1202 l 286 1092 m 281 -240 q 233 -230 250 -240 q 209 -200 216 -219 q 203 -154 203 -180 q 209 -111 203 -130 q 231 -79 214 -91 q 281 -68 248 -68 q 330 -78 313 -68 q 353 -109 347 -89 q 359 -154 359 -128 q 354 -198 359 -178 q 332 -229 349 -218 q 281 -240 315 -240 z "},"ḹ":{"ha":518,"x_min":22,"x_max":484,"o":"m 79 1000 l 226 1000 l 226 142 l 484 142 l 484 0 l 79 0 l 79 1000 m 286 1092 l 22 1092 l 22 1202 l 286 1202 l 286 1092 m 281 -240 q 233 -230 250 -240 q 209 -200 216 -219 q 203 -154 203 -180 q 209 -111 203 -130 q 231 -79 214 -91 q 281 -68 248 -68 q 330 -78 313 -68 q 354 -109 347 -89 q 360 -154 360 -128 q 354 -198 360 -178 q 332 -229 349 -218 q 281 -240 315 -240 z "},"Ḻ":{"ha":518,"x_min":79,"x_max":484,"o":"m 79 1000 l 226 1000 l 226 142 l 484 142 l 484 0 l 79 0 l 79 1000 m 79 -210 l 79 -68 l 484 -68 l 484 -210 l 79 -210 z "},"ḻ":{"ha":518,"x_min":79,"x_max":484,"o":"m 79 1000 l 226 1000 l 226 142 l 484 142 l 484 0 l 79 0 l 79 1000 m 79 -210 l 79 -68 l 484 -68 l 484 -210 l 79 -210 z "},"Ṁ":{"ha":859,"x_min":79,"x_max":754,"o":"m 416 357 l 612 1000 l 754 1000 l 754 0 l 612 0 l 612 574 l 450 0 l 383 0 l 220 574 l 220 0 l 79 0 l 79 1000 l 220 1000 l 416 357 m 416 1055 q 371 1065 387 1055 q 349 1093 355 1075 q 342 1136 342 1112 q 348 1177 342 1159 q 369 1206 353 1196 q 416 1217 385 1217 q 463 1207 447 1217 q 485 1179 479 1197 q 490 1136 490 1160 q 485 1095 490 1114 q 464 1066 479 1076 q 416 1055 448 1055 z "},"ṁ":{"ha":859,"x_min":79,"x_max":754,"o":"m 416 357 l 612 1000 l 754 1000 l 754 0 l 612 0 l 612 574 l 450 0 l 383 0 l 220 574 l 220 0 l 79 0 l 79 1000 l 220 1000 l 416 357 m 416 1055 q 371 1065 387 1055 q 349 1093 355 1075 q 342 1136 342 1112 q 348 1177 342 1159 q 369 1206 353 1196 q 416 1217 385 1217 q 463 1207 447 1217 q 485 1179 479 1197 q 490 1136 490 1160 q 485 1095 490 1114 q 464 1066 479 1076 q 416 1055 448 1055 z "},"Ṃ":{"ha":859,"x_min":79,"x_max":754,"o":"m 416 357 l 612 1000 l 754 1000 l 754 0 l 612 0 l 612 574 l 450 0 l 383 0 l 220 574 l 220 0 l 79 0 l 79 1000 l 220 1000 l 416 357 m 416 -240 q 368 -230 385 -240 q 344 -200 351 -219 q 338 -154 338 -180 q 343 -111 338 -130 q 366 -79 349 -91 q 416 -68 383 -68 q 465 -78 448 -68 q 488 -109 482 -89 q 494 -154 494 -128 q 489 -198 494 -178 q 467 -229 484 -218 q 416 -240 450 -240 z "},"ṃ":{"ha":859,"x_min":79,"x_max":754,"o":"m 416 357 l 612 1000 l 754 1000 l 754 0 l 612 0 l 612 574 l 450 0 l 383 0 l 220 574 l 220 0 l 79 0 l 79 1000 l 220 1000 l 416 357 m 416 -240 q 368 -230 385 -240 q 344 -200 351 -219 q 338 -154 338 -180 q 343 -111 338 -130 q 366 -79 349 -91 q 416 -68 383 -68 q 465 -78 448 -68 q 488 -109 482 -89 q 494 -154 494 -128 q 489 -198 494 -178 q 467 -229 484 -218 q 416 -240 450 -240 z "},"Ṅ":{"ha":663,"x_min":79,"x_max":558,"o":"m 558 0 l 420 0 l 227 567 l 227 0 l 79 0 l 79 1000 l 217 1000 l 411 432 l 411 1000 l 558 1000 l 558 0 m 319 1055 q 273 1065 289 1055 q 251 1093 257 1075 q 245 1136 245 1112 q 250 1177 245 1159 q 272 1206 256 1196 q 319 1217 288 1217 q 365 1207 349 1217 q 387 1179 381 1197 q 393 1136 393 1160 q 387 1095 393 1114 q 366 1066 382 1076 q 319 1055 351 1055 z "},"ṅ":{"ha":663,"x_min":79,"x_max":558,"o":"m 558 0 l 420 0 l 227 567 l 227 0 l 79 0 l 79 1000 l 217 1000 l 411 432 l 411 1000 l 558 1000 l 558 0 m 319 1055 q 273 1065 289 1055 q 251 1093 257 1075 q 245 1136 245 1112 q 250 1177 245 1159 q 272 1206 256 1196 q 319 1217 288 1217 q 365 1207 349 1217 q 387 1179 381 1197 q 393 1136 393 1160 q 387 1095 393 1114 q 366 1066 382 1076 q 319 1055 351 1055 z "},"Ṇ":{"ha":663,"x_min":79,"x_max":558,"o":"m 558 0 l 420 0 l 227 567 l 227 0 l 79 0 l 79 1000 l 217 1000 l 411 432 l 411 1000 l 558 1000 l 558 0 m 319 -240 q 270 -230 287 -240 q 247 -200 253 -219 q 240 -154 240 -180 q 246 -111 240 -130 q 269 -79 252 -91 q 319 -68 286 -68 q 368 -78 351 -68 q 391 -109 385 -89 q 397 -154 397 -128 q 391 -198 397 -178 q 369 -229 386 -218 q 319 -240 352 -240 z "},"ṇ":{"ha":663,"x_min":79,"x_max":558,"o":"m 558 0 l 420 0 l 227 567 l 227 0 l 79 0 l 79 1000 l 217 1000 l 411 432 l 411 1000 l 558 1000 l 558 0 m 319 -240 q 270 -230 287 -240 q 247 -200 253 -219 q 240 -154 240 -180 q 246 -111 240 -130 q 269 -79 252 -91 q 319 -68 286 -68 q 368 -78 351 -68 q 391 -109 385 -89 q 397 -154 397 -128 q 391 -198 397 -178 q 369 -229 386 -218 q 319 -240 352 -240 z "},"Ṉ":{"ha":663,"x_min":79,"x_max":558,"o":"m 558 0 l 420 0 l 227 567 l 227 0 l 79 0 l 79 1000 l 217 1000 l 411 432 l 411 1000 l 558 1000 l 558 0 m 503 -210 l 134 -210 l 134 -68 l 503 -68 l 503 -210 z "},"ṉ":{"ha":663,"x_min":79,"x_max":558,"o":"m 558 0 l 420 0 l 227 567 l 227 0 l 79 0 l 79 1000 l 217 1000 l 411 432 l 411 1000 l 558 1000 l 558 0 m 503 -210 l 134 -210 l 134 -68 l 503 -68 l 503 -210 z "},"Ṙ":{"ha":625,"x_min":79,"x_max":580,"o":"m 580 0 l 426 0 l 319 410 l 226 410 l 226 0 l 79 0 l 79 1000 l 319 1000 q 492 930 427 1000 q 558 738 558 861 l 558 672 q 461 452 558 521 l 580 0 m 319 552 q 376 567 356 552 q 403 609 396 582 q 410 672 410 636 l 410 738 q 403 801 410 774 q 376 843 396 828 q 319 857 356 857 l 226 857 l 226 552 l 319 552 m 296 1055 q 251 1065 267 1055 q 229 1093 235 1075 q 222 1136 222 1112 q 228 1177 222 1159 q 249 1206 233 1196 q 296 1217 265 1217 q 343 1207 327 1217 q 365 1179 359 1197 q 370 1136 370 1160 q 365 1095 370 1114 q 344 1066 359 1076 q 296 1055 328 1055 z "},"ṙ":{"ha":625,"x_min":79,"x_max":580,"o":"m 580 0 l 426 0 l 319 410 l 226 410 l 226 0 l 79 0 l 79 1000 l 319 1000 q 492 930 427 1000 q 558 738 558 861 l 558 672 q 461 452 558 521 l 580 0 m 319 552 q 376 567 356 552 q 403 609 396 582 q 410 672 410 636 l 410 738 q 403 801 410 774 q 376 843 396 828 q 319 857 356 857 l 226 857 l 226 552 l 319 552 m 296 1055 q 251 1065 267 1055 q 229 1094 235 1076 q 222 1137 222 1112 q 228 1178 222 1159 q 249 1207 233 1196 q 296 1217 265 1217 q 342 1207 326 1217 q 364 1179 358 1198 q 370 1137 370 1161 q 365 1095 370 1114 q 343 1066 359 1077 q 296 1055 328 1055 z "},"Ṛ":{"ha":625,"x_min":79,"x_max":580,"o":"m 580 0 l 426 0 l 319 410 l 226 410 l 226 0 l 79 0 l 79 1000 l 319 1000 q 492 930 427 1000 q 558 738 558 861 l 558 672 q 461 452 558 521 l 580 0 m 319 552 q 376 567 356 552 q 403 609 396 582 q 410 672 410 636 l 410 738 q 403 801 410 774 q 376 843 396 828 q 319 857 356 857 l 226 857 l 226 552 l 319 552 m 330 -240 q 281 -230 298 -240 q 257 -200 264 -219 q 251 -154 251 -180 q 257 -111 251 -130 q 279 -79 262 -91 q 330 -68 296 -68 q 378 -78 361 -68 q 401 -109 395 -89 q 408 -154 408 -128 q 402 -198 408 -178 q 380 -229 397 -218 q 330 -240 363 -240 z "},"ṛ":{"ha":625,"x_min":79,"x_max":580,"o":"m 580 0 l 426 0 l 319 410 l 226 410 l 226 0 l 79 0 l 79 1000 l 319 1000 q 492 930 427 1000 q 558 738 558 861 l 558 672 q 461 452 558 521 l 580 0 m 319 552 q 376 567 356 552 q 403 609 396 582 q 410 672 410 636 l 410 738 q 403 801 410 774 q 376 843 396 828 q 319 857 356 857 l 226 857 l 226 552 l 319 552 m 330 -240 q 281 -230 298 -240 q 257 -200 264 -219 q 251 -154 251 -180 q 257 -111 251 -130 q 279 -79 262 -91 q 330 -68 296 -68 q 378 -78 361 -68 q 401 -109 395 -89 q 408 -154 408 -128 q 402 -198 408 -178 q 379 -229 396 -218 q 330 -240 363 -240 z "},"Ṝ":{"ha":625,"x_min":79,"x_max":580,"o":"m 580 0 l 426 0 l 319 410 l 226 410 l 226 0 l 79 0 l 79 1000 l 319 1000 q 492 930 427 1000 q 558 738 558 861 l 558 672 q 461 452 558 521 l 580 0 m 319 552 q 376 567 356 552 q 403 609 396 582 q 410 672 410 636 l 410 738 q 403 801 410 774 q 376 843 396 828 q 319 857 356 857 l 226 857 l 226 552 l 319 552 m 434 1092 l 170 1092 l 170 1202 l 434 1202 l 434 1092 m 302 -240 q 254 -230 271 -240 q 230 -200 237 -219 q 224 -154 224 -180 q 230 -111 224 -130 q 252 -79 235 -91 q 302 -68 269 -68 q 351 -78 334 -68 q 374 -109 368 -89 q 380 -154 380 -128 q 375 -198 380 -178 q 353 -229 370 -218 q 302 -240 336 -240 z "},"ṝ":{"ha":625,"x_min":79,"x_max":580,"o":"m 580 0 l 426 0 l 319 410 l 226 410 l 226 0 l 79 0 l 79 1000 l 319 1000 q 492 930 427 1000 q 558 738 558 861 l 558 672 q 461 452 558 521 l 580 0 m 319 552 q 376 567 356 552 q 403 609 396 582 q 410 672 410 636 l 410 738 q 403 801 410 774 q 376 843 396 828 q 319 857 356 857 l 226 857 l 226 552 l 319 552 m 434 1092 l 170 1092 l 170 1202 l 434 1202 l 434 1092 m 302 -240 q 254 -230 271 -240 q 230 -200 237 -219 q 224 -154 224 -180 q 230 -111 224 -130 q 252 -79 235 -91 q 302 -68 269 -68 q 351 -78 334 -68 q 374 -109 368 -89 q 380 -154 380 -128 q 375 -198 380 -178 q 352 -229 369 -218 q 302 -240 336 -240 z "},"Ṟ":{"ha":625,"x_min":79,"x_max":580,"o":"m 580 0 l 426 0 l 319 410 l 226 410 l 226 0 l 79 0 l 79 1000 l 319 1000 q 492 930 427 1000 q 558 738 558 861 l 558 672 q 461 452 558 521 l 580 0 m 319 552 q 376 567 356 552 q 403 609 396 582 q 410 672 410 636 l 410 738 q 403 801 410 774 q 376 843 396 828 q 319 857 356 857 l 226 857 l 226 552 l 319 552 m 513 -210 l 144 -210 l 144 -68 l 513 -68 l 513 -210 z "},"ṟ":{"ha":625,"x_min":79,"x_max":580,"o":"m 580 0 l 426 0 l 319 410 l 226 410 l 226 0 l 79 0 l 79 1000 l 319 1000 q 492 930 427 1000 q 558 738 558 861 l 558 672 q 461 452 558 521 l 580 0 m 319 552 q 376 567 356 552 q 403 609 396 582 q 410 672 410 636 l 410 738 q 403 801 410 774 q 376 843 396 828 q 319 857 356 857 l 226 857 l 226 552 l 319 552 m 514 -210 l 144 -210 l 144 -68 l 514 -68 l 514 -210 z "},"Ṣ":{"ha":584,"x_min":43,"x_max":523,"o":"m 283 -17 q 109 53 175 -17 q 43 245 43 122 l 43 309 l 191 309 l 191 245 q 217 149 191 178 q 283 125 239 125 q 349 149 328 125 q 376 245 376 178 l 376 275 q 309 386 376 332 q 242 435 278 410 q 109 547 152 496 q 43 722 43 622 l 43 754 q 110 947 43 878 q 283 1017 176 1017 q 457 947 391 1017 q 523 754 523 878 l 523 690 l 376 690 l 376 754 q 350 850 376 822 q 283 874 328 874 q 217 850 239 874 q 191 754 191 821 l 191 724 q 262 601 191 659 q 332 550 294 575 q 462 443 420 490 q 523 277 523 372 l 523 245 q 457 53 523 122 q 283 -17 391 -17 m 283 -240 q 235 -230 252 -240 q 211 -200 218 -219 q 205 -154 205 -180 q 211 -111 205 -130 q 233 -79 216 -91 q 283 -68 250 -68 q 332 -78 315 -68 q 355 -109 349 -89 q 361 -154 361 -128 q 356 -198 361 -178 q 334 -229 351 -218 q 283 -240 317 -240 z "},"ṣ":{"ha":584,"x_min":43,"x_max":523,"o":"m 283 -17 q 109 53 175 -17 q 43 245 43 122 l 43 309 l 191 309 l 191 245 q 217 149 191 178 q 283 125 239 125 q 349 149 328 125 q 376 245 376 178 l 376 275 q 309 386 376 332 q 242 435 278 410 q 109 547 152 496 q 43 722 43 622 l 43 754 q 110 947 43 878 q 283 1017 176 1017 q 457 947 391 1017 q 523 754 523 878 l 523 690 l 376 690 l 376 754 q 350 850 376 822 q 283 874 328 874 q 217 850 239 874 q 191 754 191 821 l 191 724 q 262 601 191 659 q 332 550 294 575 q 462 443 420 490 q 523 277 523 372 l 523 245 q 457 53 523 122 q 283 -17 391 -17 m 283 -240 q 235 -230 252 -240 q 211 -200 218 -219 q 205 -154 205 -180 q 211 -111 205 -130 q 233 -79 216 -91 q 283 -68 250 -68 q 332 -78 315 -68 q 355 -109 349 -89 q 361 -154 361 -128 q 356 -198 361 -178 q 334 -229 351 -218 q 283 -240 317 -240 z "},"Ṭ":{"ha":554,"x_min":30,"x_max":509,"o":"m 344 857 l 344 0 l 196 0 l 196 857 l 30 857 l 30 1000 l 509 1000 l 509 857 l 344 857 m 270 -240 q 221 -230 238 -240 q 198 -200 204 -219 q 191 -154 191 -180 q 197 -111 191 -130 q 220 -79 203 -91 q 270 -68 237 -68 q 319 -78 302 -68 q 342 -109 336 -89 q 348 -154 348 -128 q 342 -198 348 -178 q 320 -229 337 -218 q 270 -240 303 -240 z "},"ṭ":{"ha":554,"x_min":30,"x_max":509,"o":"m 344 857 l 344 0 l 196 0 l 196 857 l 30 857 l 30 1000 l 509 1000 l 509 857 l 344 857 m 270 -240 q 221 -230 238 -240 q 198 -200 204 -219 q 191 -154 191 -180 q 197 -111 191 -130 q 220 -79 203 -91 q 270 -68 237 -68 q 319 -78 302 -68 q 342 -109 336 -89 q 348 -154 348 -128 q 342 -198 348 -178 q 320 -229 337 -218 q 270 -240 303 -240 z "},"Ẁ":{"ha":994,"x_min":33,"x_max":951,"o":"m 838 0 l 612 0 l 493 857 l 490 857 l 372 0 l 145 0 l 33 1000 l 178 1000 l 262 179 l 265 179 l 383 1000 l 600 1000 l 718 179 l 722 179 l 805 1000 l 951 1000 l 838 0 m 526 1055 l 448 1055 l 317 1240 l 470 1240 l 526 1055 z "},"ẁ":{"ha":994,"x_min":33,"x_max":951,"o":"m 838 0 l 612 0 l 493 857 l 490 857 l 372 0 l 145 0 l 33 1000 l 178 1000 l 262 179 l 265 179 l 383 1000 l 600 1000 l 718 179 l 722 179 l 805 1000 l 951 1000 l 838 0 m 525 1055 l 448 1055 l 316 1239 l 470 1239 l 525 1055 z "},"Ẃ":{"ha":994,"x_min":33,"x_max":951,"o":"m 838 0 l 612 0 l 493 857 l 490 857 l 372 0 l 145 0 l 33 1000 l 178 1000 l 262 179 l 265 179 l 383 1000 l 600 1000 l 718 179 l 722 179 l 805 1000 l 951 1000 l 838 0 m 422 1055 l 477 1240 l 631 1240 l 499 1055 l 422 1055 z "},"ẃ":{"ha":994,"x_min":33,"x_max":951,"o":"m 838 0 l 612 0 l 493 857 l 490 857 l 372 0 l 145 0 l 33 1000 l 178 1000 l 262 179 l 265 179 l 383 1000 l 600 1000 l 718 179 l 722 179 l 805 1000 l 951 1000 l 838 0 m 422 1055 l 477 1240 l 631 1240 l 499 1055 l 422 1055 z "},"Ẅ":{"ha":994,"x_min":33,"x_max":951,"o":"m 838 0 l 612 0 l 493 857 l 490 857 l 372 0 l 145 0 l 33 1000 l 178 1000 l 262 179 l 265 179 l 383 1000 l 600 1000 l 718 179 l 722 179 l 805 1000 l 951 1000 l 838 0 m 395 1055 q 349 1065 365 1055 q 327 1093 333 1075 q 321 1136 321 1112 q 326 1177 321 1159 q 348 1206 332 1196 q 395 1217 363 1217 q 441 1207 425 1217 q 463 1179 457 1197 q 469 1136 469 1160 q 463 1095 469 1114 q 442 1066 458 1076 q 395 1055 427 1055 m 589 1055 q 543 1065 559 1055 q 521 1093 527 1075 q 515 1136 515 1112 q 520 1177 515 1159 q 542 1206 526 1196 q 589 1217 557 1217 q 634 1207 618 1217 q 656 1179 650 1197 q 663 1136 663 1160 q 657 1095 663 1114 q 636 1066 652 1076 q 589 1055 620 1055 z "},"ẅ":{"ha":994,"x_min":33,"x_max":951,"o":"m 838 0 l 612 0 l 493 857 l 490 857 l 372 0 l 145 0 l 33 1000 l 178 1000 l 262 179 l 265 179 l 383 1000 l 600 1000 l 718 179 l 722 179 l 805 1000 l 951 1000 l 838 0 m 395 1055 q 349 1065 365 1055 q 327 1093 333 1075 q 321 1136 321 1112 q 326 1177 321 1159 q 348 1206 332 1196 q 395 1217 363 1217 q 441 1207 425 1217 q 463 1179 457 1197 q 469 1136 469 1160 q 463 1095 469 1114 q 442 1066 458 1076 q 395 1055 427 1055 m 589 1055 q 543 1065 559 1055 q 521 1093 527 1075 q 515 1136 515 1112 q 520 1177 515 1159 q 542 1206 526 1196 q 589 1217 557 1217 q 634 1207 618 1217 q 656 1179 650 1197 q 663 1136 663 1160 q 657 1095 663 1114 q 636 1066 652 1076 q 589 1055 620 1055 z "},"Ẉ":{"ha":994,"x_min":33,"x_max":951,"o":"m 838 0 l 612 0 l 493 857 l 490 857 l 372 0 l 145 0 l 33 1000 l 178 1000 l 262 179 l 265 179 l 383 1000 l 600 1000 l 718 179 l 722 179 l 805 1000 l 951 1000 l 838 0 m 492 -240 q 443 -230 460 -240 q 419 -200 426 -219 q 413 -154 413 -180 q 419 -111 413 -130 q 441 -79 425 -91 q 492 -68 458 -68 q 541 -78 524 -68 q 564 -109 557 -89 q 570 -154 570 -128 q 564 -198 570 -178 q 542 -229 559 -218 q 492 -240 525 -240 z "},"ẉ":{"ha":994,"x_min":33,"x_max":951,"o":"m 838 0 l 612 0 l 493 857 l 490 857 l 372 0 l 145 0 l 33 1000 l 178 1000 l 262 179 l 265 179 l 383 1000 l 600 1000 l 718 179 l 722 179 l 805 1000 l 951 1000 l 838 0 m 492 -240 q 443 -230 460 -240 q 419 -200 426 -219 q 413 -154 413 -180 q 419 -111 413 -130 q 441 -79 425 -91 q 492 -68 458 -68 q 541 -78 524 -68 q 564 -109 557 -89 q 570 -154 570 -128 q 564 -198 570 -178 q 542 -229 559 -218 q 492 -240 525 -240 z "},"Ẓ":{"ha":497,"x_min":41,"x_max":447,"o":"m 447 0 l 41 0 l 41 71 l 277 857 l 41 857 l 41 1000 l 447 1000 l 447 928 l 210 142 l 447 142 l 447 0 m 244 -240 q 195 -230 212 -240 q 172 -200 178 -219 q 165 -154 165 -180 q 171 -111 165 -130 q 194 -79 177 -91 q 244 -68 211 -68 q 293 -78 276 -68 q 316 -109 310 -89 q 322 -154 322 -128 q 317 -198 322 -178 q 294 -229 311 -218 q 244 -240 277 -240 z "},"ẓ":{"ha":497,"x_min":41,"x_max":447,"o":"m 447 0 l 41 0 l 41 71 l 277 857 l 41 857 l 41 1000 l 447 1000 l 447 928 l 210 142 l 447 142 l 447 0 m 244 -240 q 195 -230 212 -240 q 172 -200 178 -219 q 165 -154 165 -180 q 171 -111 165 -130 q 194 -79 177 -91 q 244 -68 211 -68 q 293 -78 276 -68 q 316 -109 310 -89 q 322 -154 322 -128 q 317 -198 322 -178 q 294 -229 311 -218 q 244 -240 277 -240 z "},"Ẽ":{"ha":547,"x_min":79,"x_max":485,"o":"m 485 0 l 79 0 l 79 1000 l 485 1000 l 485 857 l 227 857 l 227 552 l 466 552 l 466 410 l 227 410 l 227 142 l 485 142 l 485 0 m 342 1055 q 299 1067 317 1056 q 266 1093 281 1079 q 241 1113 254 1105 q 216 1122 229 1122 q 192 1105 201 1122 q 183 1057 183 1088 l 111 1057 q 139 1162 111 1116 q 221 1210 167 1208 q 264 1198 246 1209 q 297 1172 283 1186 q 322 1152 310 1160 q 348 1143 334 1143 q 371 1160 362 1143 q 380 1208 380 1177 l 452 1208 q 425 1103 452 1149 q 342 1055 397 1057 z "},"ẽ":{"ha":547,"x_min":79,"x_max":485,"o":"m 485 0 l 79 0 l 79 1000 l 485 1000 l 485 857 l 227 857 l 227 552 l 466 552 l 466 410 l 227 410 l 227 142 l 485 142 l 485 0 m 342 1055 q 299 1067 317 1056 q 266 1093 281 1079 q 241 1113 254 1105 q 216 1122 229 1122 q 192 1105 201 1122 q 183 1057 183 1088 l 111 1057 q 139 1162 111 1116 q 221 1210 167 1208 q 264 1198 246 1209 q 297 1172 283 1186 q 322 1152 310 1160 q 348 1143 334 1143 q 371 1160 362 1143 q 380 1208 380 1177 l 452 1208 q 425 1103 452 1149 q 342 1055 397 1057 z "},"Ỳ":{"ha":558,"x_min":7,"x_max":542,"o":"m 348 0 l 201 0 l 201 343 l 7 1000 l 155 1000 l 273 571 l 276 571 l 394 1000 l 542 1000 l 348 343 l 348 0 m 344 1055 l 267 1055 l 135 1240 l 288 1240 l 344 1055 z "},"ỳ":{"ha":558,"x_min":7,"x_max":542,"o":"m 348 0 l 201 0 l 201 343 l 7 1000 l 155 1000 l 273 571 l 276 571 l 394 1000 l 542 1000 l 348 343 l 348 0 m 344 1055 l 267 1055 l 135 1240 l 288 1240 l 344 1055 z "},"Ỵ":{"ha":558,"x_min":7,"x_max":542,"o":"m 348 0 l 201 0 l 201 343 l 7 1000 l 155 1000 l 273 571 l 276 571 l 394 1000 l 542 1000 l 348 343 l 348 0 m 275 -240 q 226 -230 243 -240 q 202 -200 209 -219 q 196 -154 196 -180 q 202 -111 196 -130 q 224 -79 208 -91 q 275 -68 241 -68 q 323 -78 307 -68 q 347 -109 340 -89 q 353 -154 353 -128 q 347 -198 353 -178 q 325 -229 342 -218 q 275 -240 308 -240 z "},"ỵ":{"ha":558,"x_min":7,"x_max":542,"o":"m 348 0 l 201 0 l 201 343 l 7 1000 l 155 1000 l 273 571 l 276 571 l 394 1000 l 542 1000 l 348 343 l 348 0 m 275 -240 q 226 -230 243 -240 q 202 -200 209 -219 q 196 -154 196 -180 q 202 -111 196 -130 q 224 -79 208 -91 q 275 -68 241 -68 q 323 -78 307 -68 q 347 -109 340 -89 q 353 -154 353 -128 q 347 -198 353 -178 q 325 -229 341 -218 q 275 -240 308 -240 z "},"⅓":{"ha":964,"x_min":62,"x_max":922,"o":"m 361 372 l 62 372 l 62 485 l 146 485 l 146 879 l 62 879 l 62 975 l 210 1000 l 277 1000 l 277 485 l 361 485 l 361 372 m 313 0 l 204 0 l 649 1000 l 758 1000 l 313 0 m 758 -20 q 638 24 684 -20 q 593 141 593 68 l 593 203 l 724 203 l 724 140 q 736 98 724 105 q 758 92 744 92 q 778 97 772 92 q 788 112 785 101 q 791 140 791 123 l 791 200 q 788 228 791 217 q 778 243 785 239 q 758 248 772 248 l 692 248 l 692 359 l 758 359 q 776 364 770 359 q 785 379 782 368 q 788 407 788 390 l 788 467 q 785 495 788 484 q 776 511 782 507 q 758 515 770 515 q 730 496 736 515 q 728 467 728 484 l 728 404 l 596 404 l 596 467 q 644 587 596 542 q 758 627 688 627 q 871 587 828 627 q 920 467 920 542 l 920 408 q 881 304 920 328 q 922 199 922 281 l 922 141 q 877 24 922 68 q 758 -20 832 -20 z "},"⅔":{"ha":965,"x_min":41,"x_max":924,"o":"m 370 380 l 41 380 l 41 515 q 123 682 41 602 q 164 719 143 701 q 204 758 184 738 q 239 823 239 792 l 239 857 q 235 885 239 873 q 205 904 230 904 q 186 900 191 904 q 172 857 172 891 l 172 793 l 41 793 l 41 855 q 86 972 41 928 q 205 1017 132 1017 q 325 972 280 1017 q 370 855 370 928 l 370 821 q 311 690 370 752 q 258 640 286 664 q 216 599 235 620 q 172 514 172 555 l 172 492 l 239 492 l 239 592 l 370 592 l 370 380 m 315 0 l 205 0 l 650 1000 l 760 1000 l 315 0 m 759 -20 q 640 24 685 -20 q 595 141 595 68 l 595 203 l 726 203 l 726 140 q 738 98 726 105 q 759 92 745 92 q 780 97 773 92 q 789 112 786 101 q 792 140 792 123 l 792 200 q 789 228 792 217 q 780 243 786 239 q 759 248 773 248 l 694 248 l 694 359 l 759 359 q 778 364 772 359 q 786 379 783 368 q 789 407 789 390 l 789 467 q 786 495 789 484 q 778 511 783 507 q 759 515 772 515 q 732 496 737 515 q 729 467 729 484 l 729 404 l 597 404 l 597 467 q 646 587 597 542 q 759 627 689 627 q 873 587 829 627 q 921 467 921 542 l 921 408 q 882 304 921 328 q 924 199 924 281 l 924 141 q 879 24 924 68 q 759 -20 833 -20 z "},"≡":{"ha":450,"x_min":-15,"x_max":432,"o":"m 432 536 l 432 426 l -15 426 l -15 536 l 432 536 m 432 315 l 432 205 l -15 205 l -15 315 l 432 315 m 432 758 l 432 647 l -15 647 l -15 758 l 432 758 z "}}}
